<svg width="251" height="66" viewBox="0 0 251 66" fill="none" xmlns="http://www.w3.org/2000/svg">
<g clip-path="url(#clip0_1_2)">
<rect width="251" height="66" fill="white"/>
<path d="M17.9565 24.256H12.3885V21.6H26.4685V24.256H20.9005V44H17.9565V24.256ZM29.1432 21.6H41.1113V24.256H32.0553V30.944H39.2233V33.632H32.0553V41.344H41.3673V44H29.1432V21.6ZM53.1063 44.448C51.0369 44.448 49.2343 43.9787 47.6983 43.04C46.1623 42.08 44.9676 40.7253 44.1143 38.976C43.2823 37.2053 42.8663 35.1467 42.8663 32.8C42.8663 30.4747 43.2929 28.4373 44.1463 26.688C45.0209 24.9173 46.2263 23.552 47.7623 22.592C49.2983 21.632 51.0369 21.152 52.9783 21.152C54.6849 21.152 56.3063 21.472 57.8423 22.112L57.5223 24.832C56.1569 24.1493 54.8343 23.808 53.5543 23.808C51.9756 23.808 50.6209 24.2027 49.4903 24.992C48.3809 25.7813 47.5383 26.8587 46.9623 28.224C46.3863 29.5893 46.0983 31.1147 46.0983 32.8C46.0983 34.4853 46.3863 36.0107 46.9623 37.376C47.5383 38.7413 48.3809 39.8187 49.4903 40.608C50.6209 41.3973 51.9863 41.792 53.5863 41.792C54.9729 41.792 56.2849 41.472 57.5223 40.832L57.8423 43.552C56.4769 44.1493 54.8983 44.448 53.1063 44.448ZM60.7995 21.6H63.7115V30.848H74.0155V21.6H76.9275V44H74.0155V33.696H63.7115V44H60.7995V21.6ZM86.4553 44.448C85.4099 44.448 84.3113 44.32 83.1593 44.064C82.0286 43.8293 81.1006 43.5413 80.3753 43.2L80.7913 40C81.6446 40.5333 82.5939 40.9707 83.6393 41.312C84.6846 41.632 85.7193 41.792 86.7433 41.792C88.0659 41.792 89.1006 41.5253 89.8473 40.992C90.5939 40.4373 90.9673 39.6373 90.9673 38.592C90.9673 37.8453 90.7859 37.2053 90.4233 36.672C90.0819 36.1387 89.5806 35.6693 88.9193 35.264C88.2579 34.8373 87.3299 34.3573 86.1353 33.824C84.7273 33.184 83.6073 32.5973 82.7753 32.064C81.9646 31.5307 81.3139 30.8693 80.8233 30.08C80.3326 29.2907 80.0872 28.3093 80.0872 27.136C80.0872 25.9413 80.3966 24.896 81.0153 24C81.6339 23.0827 82.4979 22.3787 83.6073 21.888C84.7379 21.3973 86.0179 21.152 87.4473 21.152C88.5353 21.152 89.5593 21.2693 90.5193 21.504C91.5006 21.7387 92.3326 22.0267 93.0153 22.368L92.6953 25.376C90.9246 24.3307 89.1219 23.808 87.2873 23.808C86.0499 23.808 85.0793 24.064 84.3753 24.576C83.6713 25.088 83.3193 25.8773 83.3193 26.944C83.3193 27.6693 83.5006 28.2773 83.8633 28.768C84.2473 29.2373 84.7699 29.664 85.4313 30.048C86.0926 30.4107 87.0953 30.9013 88.4392 31.52C90.4446 32.416 91.9059 33.3867 92.8233 34.432C93.7406 35.456 94.1993 36.7467 94.1993 38.304C94.1993 40.2027 93.5059 41.7067 92.1193 42.816C90.7326 43.904 88.8446 44.448 86.4553 44.448ZM114.936 32.8C114.936 34.3787 114.744 35.84 114.36 37.184C113.976 38.528 113.432 39.6907 112.728 40.672L114.712 42.752L112.888 44.448L111.032 42.528C109.453 43.808 107.597 44.448 105.464 44.448C103.629 44.448 101.987 43.968 100.536 43.008C99.1067 42.048 97.9867 40.6933 97.176 38.944C96.3653 37.1733 95.96 35.1253 95.96 32.8C95.96 30.4747 96.3653 28.4373 97.176 26.688C97.9867 24.9173 99.1067 23.552 100.536 22.592C101.987 21.632 103.629 21.152 105.464 21.152C107.299 21.152 108.931 21.632 110.36 22.592C111.789 23.552 112.909 24.9173 113.72 26.688C114.531 28.4373 114.936 30.4747 114.936 32.8ZM105.464 41.536C106.851 41.536 108.024 41.152 108.984 40.384L106.264 37.536L108.056 35.84L110.584 38.464C111.416 36.928 111.832 35.04 111.832 32.8C111.832 30.24 111.277 28.1493 110.168 26.528C109.08 24.8853 107.512 24.064 105.464 24.064C103.416 24.064 101.837 24.8853 100.728 26.528C99.6187 28.1493 99.064 30.24 99.064 32.8C99.064 35.36 99.6187 37.4613 100.728 39.104C101.837 40.7253 103.416 41.536 105.464 41.536ZM125.762 44.448C123.053 44.448 121.048 43.6373 119.746 42.016C118.445 40.3947 117.794 38.1013 117.794 35.136V21.6H120.706V34.304C120.706 35.8613 120.824 37.1733 121.058 38.24C121.314 39.3067 121.816 40.1707 122.562 40.832C123.309 41.472 124.376 41.792 125.762 41.792C127.17 41.792 128.248 41.472 128.994 40.832C129.741 40.1707 130.232 39.3067 130.466 38.24C130.722 37.1733 130.85 35.8613 130.85 34.304V21.6H133.762V35.136C133.762 38.1227 133.112 40.4267 131.81 42.048C130.509 43.648 128.493 44.448 125.762 44.448ZM147.316 37.92H140.372L138.58 44H135.444L142.324 21.6H145.332L152.212 44H149.108L147.316 37.92ZM146.516 35.2L143.828 26.112L141.172 35.2H146.516ZM154.805 21.6H160.565C162.911 21.6 164.735 22.1867 166.037 23.36C167.359 24.512 168.021 26.208 168.021 28.448C168.021 29.728 167.711 30.8907 167.093 31.936C166.495 32.96 165.653 33.7707 164.565 34.368L169.045 44H165.589L161.589 35.232C161.247 35.2747 160.895 35.296 160.533 35.296H157.717V44H154.805V21.6ZM160.309 32.608C161.93 32.608 163.114 32.256 163.861 31.552C164.607 30.848 164.981 29.8133 164.981 28.448C164.981 27.0613 164.607 26.016 163.861 25.312C163.114 24.608 161.93 24.256 160.309 24.256H157.717V32.608H160.309ZM171.893 21.6H183.861V24.256H174.805V30.944H181.973V33.632H174.805V41.344H184.117V44H171.893V21.6ZM187.143 21.6H194.311C196.167 21.6 197.81 22.048 199.239 22.944C200.69 23.84 201.821 25.1307 202.631 26.816C203.442 28.5013 203.847 30.496 203.847 32.8C203.847 35.104 203.442 37.0987 202.631 38.784C201.821 40.4693 200.69 41.76 199.239 42.656C197.81 43.552 196.167 44 194.311 44H187.143V21.6ZM193.767 41.344C196.007 41.344 197.703 40.5973 198.855 39.104C200.029 37.6107 200.615 35.5093 200.615 32.8C200.615 30.0907 200.029 27.9893 198.855 26.496C197.703 25.0027 196.007 24.256 193.767 24.256H190.055V41.344H193.767ZM206.124 40.64H209.292V44H206.124V40.64ZM212.962 21.6H215.906V44H212.962V21.6ZM228.745 44.448C226.911 44.448 225.268 43.968 223.817 43.008C222.388 42.048 221.268 40.6933 220.457 38.944C219.647 37.1733 219.241 35.1253 219.241 32.8C219.241 30.4747 219.647 28.4373 220.457 26.688C221.268 24.9173 222.388 23.552 223.817 22.592C225.268 21.632 226.911 21.152 228.745 21.152C230.58 21.152 232.212 21.632 233.641 22.592C235.071 23.552 236.191 24.9173 237.001 26.688C237.812 28.4373 238.217 30.4747 238.217 32.8C238.217 35.1253 237.812 37.1733 237.001 38.944C236.191 40.6933 235.071 42.048 233.641 43.008C232.212 43.968 230.58 44.448 228.745 44.448ZM228.745 41.536C230.793 41.536 232.361 40.7253 233.449 39.104C234.559 37.4613 235.113 35.36 235.113 32.8C235.113 30.24 234.559 28.1493 233.449 26.528C232.361 24.8853 230.793 24.064 228.745 24.064C226.697 24.064 225.119 24.8853 224.009 26.528C222.9 28.1493 222.345 30.24 222.345 32.8C222.345 35.36 222.9 37.4613 224.009 39.104C225.119 40.7253 226.697 41.536 228.745 41.536Z" fill="black"/>
<path d="M17.9565 24.256H18.9565V23.256H17.9565V24.256ZM12.3885 24.256H11.3885V25.256H12.3885V24.256ZM12.3885 21.6V20.6H11.3885V21.6H12.3885ZM26.4685 21.6H27.4685V20.6H26.4685V21.6ZM26.4685 24.256V25.256H27.4685V24.256H26.4685ZM20.9005 24.256V23.256H19.9005V24.256H20.9005ZM20.9005 44V45H21.9005V44H20.9005ZM17.9565 44H16.9565V45H17.9565V44ZM17.9565 23.256H12.3885V25.256H17.9565V23.256ZM13.3885 24.256V21.6H11.3885V24.256H13.3885ZM12.3885 22.6H26.4685V20.6H12.3885V22.6ZM25.4685 21.6V24.256H27.4685V21.6H25.4685ZM26.4685 23.256H20.9005V25.256H26.4685V23.256ZM19.9005 24.256V44H21.9005V24.256H19.9005ZM20.9005 43H17.9565V45H20.9005V43ZM18.9565 44V24.256H16.9565V44H18.9565ZM29.1432 21.6V20.6H28.1432V21.6H29.1432ZM41.1113 21.6H42.1113V20.6H41.1113V21.6ZM41.1113 24.256V25.256H42.1113V24.256H41.1113ZM32.0553 24.256V23.256H31.0553V24.256H32.0553ZM32.0553 30.944H31.0553V31.944H32.0553V30.944ZM39.2233 30.944H40.2233V29.944H39.2233V30.944ZM39.2233 33.632V34.632H40.2233V33.632H39.2233ZM32.0553 33.632V32.632H31.0553V33.632H32.0553ZM32.0553 41.344H31.0553V42.344H32.0553V41.344ZM41.3673 41.344H42.3673V40.344H41.3673V41.344ZM41.3673 44V45H42.3673V44H41.3673ZM29.1432 44H28.1432V45H29.1432V44ZM29.1432 22.6H41.1113V20.6H29.1432V22.6ZM40.1113 21.6V24.256H42.1113V21.6H40.1113ZM41.1113 23.256H32.0553V25.256H41.1113V23.256ZM31.0553 24.256V30.944H33.0553V24.256H31.0553ZM32.0553 31.944H39.2233V29.944H32.0553V31.944ZM38.2233 30.944V33.632H40.2233V30.944H38.2233ZM39.2233 32.632H32.0553V34.632H39.2233V32.632ZM31.0553 33.632V41.344H33.0553V33.632H31.0553ZM32.0553 42.344H41.3673V40.344H32.0553V42.344ZM40.3673 41.344V44H42.3673V41.344H40.3673ZM41.3673 43H29.1432V45H41.3673V43ZM30.1432 44V21.6H28.1432V44H30.1432ZM47.6983 43.04L47.1682 43.888L47.1768 43.8933L47.6983 43.04ZM44.1143 38.976L43.2092 39.4013L43.2123 39.4079L43.2155 39.4144L44.1143 38.976ZM44.1463 26.688L43.2497 26.2451L43.2475 26.2496L44.1463 26.688ZM47.7623 22.592L47.2323 21.744L47.2323 21.744L47.7623 22.592ZM57.8423 22.112L58.8354 22.2288L58.9236 21.4792L58.2269 21.1889L57.8423 22.112ZM57.5223 24.832L57.075 25.7264L58.349 26.3634L58.5154 24.9488L57.5223 24.832ZM49.4903 24.992L48.9178 24.172L48.9105 24.1772L49.4903 24.992ZM49.4903 40.608L48.9105 41.4228L48.9178 41.428L49.4903 40.608ZM57.5223 40.832L58.5154 40.7152L58.3465 39.2798L57.0628 39.9438L57.5223 40.832ZM57.8423 43.552L58.2431 44.4682L58.922 44.1711L58.8354 43.4352L57.8423 43.552ZM53.1063 43.448C51.1929 43.448 49.5764 43.0158 48.2197 42.1867L47.1768 43.8933C48.8921 44.9415 50.881 45.448 53.1063 45.448V43.448ZM48.2282 42.192C46.863 41.3387 45.7906 40.1316 45.013 38.5376L43.2155 39.4144C44.1446 41.3191 45.4615 42.8213 47.1683 43.888L48.2282 42.192ZM45.0193 38.5507C44.2611 36.937 43.8663 35.0286 43.8663 32.8H41.8663C41.8663 35.2648 42.3034 37.4737 43.2092 39.4013L45.0193 38.5507ZM43.8663 32.8C43.8663 30.5973 44.27 28.7151 45.045 27.1264L43.2475 26.2496C42.3158 28.1595 41.8663 30.352 41.8663 32.8H43.8663ZM45.0428 27.1309C45.843 25.5111 46.9278 24.2928 48.2922 23.44L47.2323 21.744C45.5247 22.8112 44.1989 24.3236 43.2497 26.2451L45.0428 27.1309ZM48.2922 23.44C49.6578 22.5865 51.2103 22.152 52.9783 22.152V20.152C50.8635 20.152 48.9387 20.6775 47.2323 21.744L48.2922 23.44ZM52.9783 22.152C54.5564 22.152 56.0467 22.4472 57.4576 23.0351L58.2269 21.1889C56.5658 20.4968 54.8135 20.152 52.9783 20.152V22.152ZM56.8491 21.9952L56.5291 24.7152L58.5154 24.9488L58.8354 22.2288L56.8491 21.9952ZM57.9695 23.9376C56.4918 23.1987 55.0166 22.808 53.5543 22.808V24.808C54.6519 24.808 55.822 25.0999 57.075 25.7264L57.9695 23.9376ZM53.5543 22.808C51.8015 22.808 50.2399 23.2491 48.9178 24.172L50.0627 25.812C51.0019 25.1562 52.1496 24.808 53.5543 24.808V22.808ZM48.9105 24.1772C47.6367 25.0836 46.6824 26.3147 46.0409 27.8353L47.8836 28.6127C48.3941 27.4027 49.1252 26.4791 50.07 25.8068L48.9105 24.1772ZM46.0409 27.8353C45.4063 29.3394 45.0983 30.9994 45.0983 32.8H47.0983C47.0983 31.2299 47.3662 29.8392 47.8836 28.6127L46.0409 27.8353ZM45.0983 32.8C45.0983 34.6006 45.4063 36.2606 46.0409 37.7647L47.8836 36.9873C47.3662 35.7607 47.0983 34.3701 47.0983 32.8H45.0983ZM46.0409 37.7647C46.6824 39.2853 47.6367 40.5164 48.9105 41.4228L50.07 39.7932C49.1252 39.1209 48.3941 38.1973 47.8836 36.9873L46.0409 37.7647ZM48.9178 41.428C50.2421 42.3525 51.8153 42.792 53.5863 42.792V40.792C52.1572 40.792 50.9997 40.4422 50.0627 39.788L48.9178 41.428ZM53.5863 42.792C55.1336 42.792 56.603 42.4333 57.9817 41.7202L57.0628 39.9438C55.9668 40.5107 54.8123 40.792 53.5863 40.792V42.792ZM56.5291 40.9488L56.8491 43.6688L58.8354 43.4352L58.5154 40.7152L56.5291 40.9488ZM57.4414 42.6358C56.2254 43.1679 54.7877 43.448 53.1063 43.448V45.448C55.0088 45.448 56.7285 45.1308 58.2431 44.4682L57.4414 42.6358ZM60.7995 21.6V20.6H59.7995V21.6H60.7995ZM63.7115 21.6H64.7115V20.6H63.7115V21.6ZM63.7115 30.848H62.7115V31.848H63.7115V30.848ZM74.0155 30.848V31.848H75.0155V30.848H74.0155ZM74.0155 21.6V20.6H73.0155V21.6H74.0155ZM76.9275 21.6H77.9275V20.6H76.9275V21.6ZM76.9275 44V45H77.9275V44H76.9275ZM74.0155 44H73.0155V45H74.0155V44ZM74.0155 33.696H75.0155V32.696H74.0155V33.696ZM63.7115 33.696V32.696H62.7115V33.696H63.7115ZM63.7115 44V45H64.7115V44H63.7115ZM60.7995 44H59.7995V45H60.7995V44ZM60.7995 22.6H63.7115V20.6H60.7995V22.6ZM62.7115 21.6V30.848H64.7115V21.6H62.7115ZM63.7115 31.848H74.0155V29.848H63.7115V31.848ZM75.0155 30.848V21.6H73.0155V30.848H75.0155ZM74.0155 22.6H76.9275V20.6H74.0155V22.6ZM75.9275 21.6V44H77.9275V21.6H75.9275ZM76.9275 43H74.0155V45H76.9275V43ZM75.0155 44V33.696H73.0155V44H75.0155ZM74.0155 32.696H63.7115V34.696H74.0155V32.696ZM62.7115 33.696V44H64.7115V33.696H62.7115ZM63.7115 43H60.7995V45H63.7115V43ZM61.7995 44V21.6H59.7995V44H61.7995ZM83.1593 44.064L83.3762 43.0877L83.3625 43.0849L83.1593 44.064ZM80.3753 43.2L79.3836 43.0711L79.2896 43.7943L79.9495 44.1048L80.3753 43.2ZM80.7913 40L81.3212 39.152L80.0004 38.3265L79.7996 39.8711L80.7913 40ZM83.6393 41.312L83.3288 42.2626L83.3377 42.2655L83.3465 42.2682L83.6393 41.312ZM89.8473 40.992L90.4285 41.8057L90.4361 41.8003L90.4436 41.7947L89.8473 40.992ZM90.4233 36.672L89.581 37.2111L89.5885 37.2228L89.5963 37.2343L90.4233 36.672ZM88.9193 35.264L88.3771 36.1043L88.3868 36.1106L88.3967 36.1166L88.9193 35.264ZM86.1353 33.824L85.7214 34.7344L85.7276 34.7371L86.1353 33.824ZM82.7753 32.064L82.2256 32.8995L82.2356 32.9059L82.7753 32.064ZM80.8233 30.08L79.974 30.6079L80.8233 30.08ZM81.0153 24L81.8382 24.5682L81.8443 24.5591L81.0153 24ZM83.6073 21.888L83.2091 20.9706L83.2027 20.9735L83.6073 21.888ZM90.5193 21.504L90.2818 22.4754L90.2867 22.4766L90.5193 21.504ZM93.0153 22.368L94.0096 22.4738L94.083 21.7839L93.4625 21.4736L93.0153 22.368ZM92.6953 25.376L92.1869 26.2371L93.5252 27.0272L93.6896 25.4818L92.6953 25.376ZM84.3753 24.576L83.7871 23.7673L83.7871 23.7673L84.3753 24.576ZM83.8633 28.768L83.0591 29.3624L83.0737 29.3822L83.0893 29.4012L83.8633 28.768ZM85.4313 30.048L84.9291 30.9128L84.9397 30.9189L84.9504 30.9248L85.4313 30.048ZM88.4392 31.52L88.0211 32.4284L88.0313 32.433L88.4392 31.52ZM92.8233 34.432L92.0716 35.0916L92.0784 35.0992L92.8233 34.432ZM92.1193 42.816L92.7366 43.6028L92.7439 43.5969L92.1193 42.816ZM86.4553 43.448C85.4915 43.448 84.4659 43.33 83.3762 43.0878L82.9423 45.0402C84.1566 45.31 85.3283 45.448 86.4553 45.448V43.448ZM83.3625 43.0849C82.2781 42.8598 81.4318 42.592 80.801 42.2952L79.9495 44.1048C80.7694 44.4907 81.7791 44.7989 82.956 45.0431L83.3625 43.0849ZM81.3669 43.3289L81.7829 40.1289L79.7996 39.8711L79.3836 43.0711L81.3669 43.3289ZM80.2613 40.848C81.1894 41.4281 82.2135 41.8984 83.3288 42.2626L83.9497 40.3614C82.9743 40.0429 82.0998 39.6386 81.3212 39.152L80.2613 40.848ZM83.3465 42.2682C84.4803 42.6153 85.6136 42.792 86.7433 42.792V40.792C85.8249 40.792 84.8888 40.6487 83.932 40.3558L83.3465 42.2682ZM86.7433 42.792C88.186 42.792 89.4523 42.503 90.4285 41.8057L89.266 40.1783C88.7489 40.5476 87.9458 40.792 86.7433 40.792V42.792ZM90.4436 41.7947C91.4783 41.0261 91.9673 39.9087 91.9673 38.592H89.9673C89.9673 39.366 89.7095 39.8486 89.2509 40.1893L90.4436 41.7947ZM91.9673 38.592C91.9673 37.6773 91.7426 36.8339 91.2502 36.1097L89.5963 37.2343C89.8292 37.5768 89.9673 38.0134 89.9673 38.592H91.9673ZM91.2655 36.1329C90.8264 35.4469 90.2036 34.8783 89.4418 34.4114L88.3967 36.1166C88.9576 36.4604 89.3374 36.8305 89.581 37.2111L91.2655 36.1329ZM89.4614 34.4237C88.7384 33.9572 87.758 33.4533 86.5429 32.9109L85.7276 34.7371C86.9018 35.2614 87.7775 35.7174 88.3771 36.1043L89.4614 34.4237ZM86.5491 32.9136C85.1632 32.2837 84.0908 31.7195 83.3149 31.2221L82.2356 32.9059C83.1237 33.4752 84.2913 34.0843 85.7214 34.7344L86.5491 32.9136ZM83.3249 31.2286C82.6297 30.7712 82.0834 30.213 81.6725 29.5521L79.974 30.6079C80.5445 31.5257 81.2995 32.2901 82.2256 32.8994L83.3249 31.2286ZM81.6725 29.5521C81.3032 28.9579 81.0872 28.1713 81.0872 27.136H79.0872C79.0872 28.4474 79.362 29.6234 79.974 30.6079L81.6725 29.5521ZM81.0872 27.136C81.0872 26.1237 81.346 25.2809 81.8381 24.5682L80.1924 23.4318C79.4472 24.5111 79.0872 25.759 79.0872 27.136H81.0872ZM81.8443 24.5591C82.3477 23.8127 83.0574 23.2247 84.0118 22.8025L83.2027 20.9735C81.9384 21.5327 80.9201 22.3526 80.1862 23.4409L81.8443 24.5591ZM84.0053 22.8053C84.9919 22.3772 86.1332 22.152 87.4473 22.152V20.152C85.9026 20.152 84.4839 20.4175 83.2092 20.9707L84.0053 22.8053ZM87.4473 22.152C88.4632 22.152 89.4069 22.2615 90.2818 22.4754L90.7567 20.5326C89.7116 20.2771 88.6073 20.152 87.4473 20.152V22.152ZM90.2867 22.4766C91.216 22.6988 91.9715 22.9642 92.568 23.2624L93.4625 21.4736C92.6937 21.0892 91.7852 20.7785 90.7518 20.5314L90.2867 22.4766ZM92.0209 22.2622L91.7009 25.2702L93.6896 25.4818L94.0096 22.4738L92.0209 22.2622ZM93.2036 24.5149C91.298 23.3899 89.3216 22.808 87.2873 22.808V24.808C88.9222 24.808 90.5512 25.2715 92.1869 26.2371L93.2036 24.5149ZM87.2873 22.808C85.9247 22.808 84.7205 23.0884 83.7871 23.7673L84.9634 25.3847C85.438 25.0396 86.1751 24.808 87.2873 24.808V22.808ZM83.7871 23.7673C82.7652 24.5105 82.3193 25.6384 82.3193 26.944H84.3193C84.3193 26.1163 84.5773 25.6655 84.9634 25.3847L83.7871 23.7673ZM82.3193 26.944C82.3193 27.8417 82.5465 28.669 83.0591 29.3624L84.6674 28.1736C84.4546 27.8857 84.3193 27.4969 84.3193 26.944H82.3193ZM83.0893 29.4012C83.5662 29.9841 84.19 30.4836 84.9291 30.9128L85.9334 29.1832C85.3499 28.8444 84.9283 28.4905 84.6372 28.1348L83.0893 29.4012ZM84.9504 30.9248C85.6434 31.3049 86.6719 31.8073 88.0211 32.4284L88.8574 30.6116C87.5186 29.9953 86.5417 29.5165 85.9121 29.1712L84.9504 30.9248ZM88.0313 32.433C89.9731 33.3006 91.2885 34.1991 92.0716 35.0916L93.5749 33.7724C92.5234 32.5742 90.9161 31.5314 88.8472 30.607L88.0313 32.433ZM92.0784 35.0992C92.8095 35.9153 93.1993 36.9579 93.1993 38.304H95.1993C95.1993 36.5355 94.6717 34.9967 93.5681 33.7648L92.0784 35.0992ZM93.1993 38.304C93.1993 39.9231 92.6258 41.1302 91.4946 42.0351L92.7439 43.5969C94.3861 42.2832 95.1993 40.4823 95.1993 38.304H93.1993ZM91.502 42.0293C90.3448 42.9372 88.6998 43.448 86.4553 43.448V45.448C88.9894 45.448 91.1203 44.8708 92.7365 43.6027L91.502 42.0293ZM112.728 40.672L111.915 40.0891L111.432 40.7625L112.004 41.3622L112.728 40.672ZM114.712 42.752L115.393 43.4843L116.135 42.7947L115.436 42.0618L114.712 42.752ZM112.888 44.448L112.169 45.143L112.851 45.8482L113.569 45.1803L112.888 44.448ZM111.032 42.528L111.751 41.833L111.114 41.1741L110.402 41.7512L111.032 42.528ZM100.536 43.008L99.9784 43.8382L99.9841 43.8419L100.536 43.008ZM97.176 38.944L96.2668 39.3603L96.2687 39.3645L97.176 38.944ZM97.176 26.688L98.0833 27.1085L98.0852 27.1043L97.176 26.688ZM100.536 22.592L99.9841 21.758L99.9784 21.7619L100.536 22.592ZM110.36 22.592L109.802 23.4221L109.802 23.4221L110.36 22.592ZM113.72 26.688L112.811 27.1043L112.813 27.1085L113.72 26.688ZM108.984 40.384L109.609 41.1649L110.461 40.4829L109.707 39.6933L108.984 40.384ZM106.264 37.536L105.577 36.8097L104.847 37.5002L105.541 38.2267L106.264 37.536ZM108.056 35.84L108.776 35.1462L108.088 34.4324L107.369 35.1137L108.056 35.84ZM110.584 38.464L109.864 39.1578L110.812 40.1422L111.463 38.9403L110.584 38.464ZM110.168 26.528L109.334 27.0802L109.338 27.0865L109.343 27.0927L110.168 26.528ZM100.728 26.528L101.553 27.0927L101.557 27.0877L100.728 26.528ZM100.728 39.104L99.8993 39.6637L99.9027 39.6687L100.728 39.104ZM113.936 32.8C113.936 34.2976 113.754 35.6653 113.398 36.9093L115.322 37.4587C115.734 36.0147 115.936 34.4598 115.936 32.8H113.936ZM113.398 36.9093C113.041 38.1598 112.543 39.2146 111.915 40.0891L113.541 41.2549C114.321 40.1667 114.911 38.8962 115.322 37.4587L113.398 36.9093ZM112.004 41.3622L113.988 43.4422L115.436 42.0618L113.452 39.9818L112.004 41.3622ZM114.031 42.0197L112.207 43.7157L113.569 45.1803L115.393 43.4843L114.031 42.0197ZM113.607 43.753L111.751 41.833L110.313 43.223L112.169 45.143L113.607 43.753ZM110.402 41.7512C109.011 42.8793 107.38 43.448 105.464 43.448V45.448C107.814 45.448 109.896 44.7367 111.662 43.3048L110.402 41.7512ZM105.464 43.448C103.814 43.448 102.366 43.0197 101.088 42.1741L99.9841 43.8419C101.608 44.9163 103.444 45.448 105.464 45.448V43.448ZM101.094 42.1779C99.8337 41.3317 98.8265 40.1273 98.0833 38.5235L96.2687 39.3645C97.1468 41.2594 98.3796 42.7643 99.9784 43.8381L101.094 42.1779ZM98.0852 38.5277C97.3448 36.9105 96.96 35.0091 96.96 32.8H94.96C94.96 35.2415 95.3858 37.4361 96.2668 39.3603L98.0852 38.5277ZM96.96 32.8C96.96 30.5905 97.345 28.7017 98.0833 27.1085L96.2687 26.2675C95.3857 28.1729 94.96 30.3589 94.96 32.8H96.96ZM98.0852 27.1043C98.8294 25.4788 99.8367 24.2663 101.094 23.4221L99.9784 21.7619C98.3766 22.8377 97.1439 24.3558 96.2668 26.2717L98.0852 27.1043ZM101.088 23.4259C102.366 22.5803 103.814 22.152 105.464 22.152V20.152C103.444 20.152 101.608 20.6837 99.9841 21.7581L101.088 23.4259ZM105.464 22.152C107.114 22.152 108.549 22.5803 109.802 23.4221L110.918 21.7619C109.312 20.6837 107.484 20.152 105.464 20.152V22.152ZM109.802 23.4221C111.059 24.2663 112.067 25.4788 112.811 27.1043L114.629 26.2717C113.752 24.3558 112.519 22.8377 110.918 21.7619L109.802 23.4221ZM112.813 27.1085C113.551 28.7017 113.936 30.5905 113.936 32.8H115.936C115.936 30.3589 115.51 28.1729 114.627 26.2675L112.813 27.1085ZM105.464 42.536C107.047 42.536 108.449 42.0928 109.609 41.1649L108.359 39.6031C107.599 40.2112 106.654 40.536 105.464 40.536V42.536ZM109.707 39.6933L106.987 36.8453L105.541 38.2267L108.261 41.0747L109.707 39.6933ZM106.951 38.2623L108.743 36.5663L107.369 35.1137L105.577 36.8097L106.951 38.2623ZM107.336 36.5338L109.864 39.1578L111.304 37.7702L108.776 35.1462L107.336 36.5338ZM111.463 38.9403C112.394 37.2225 112.832 35.1606 112.832 32.8H110.832C110.832 34.9194 110.438 36.6335 109.705 37.9877L111.463 38.9403ZM112.832 32.8C112.832 30.099 112.246 27.7948 110.993 25.9633L109.343 27.0927C110.308 28.5039 110.832 30.381 110.832 32.8H112.832ZM111.002 25.9758C109.72 24.0405 107.832 23.064 105.464 23.064V25.064C107.192 25.064 108.44 25.7302 109.334 27.0802L111.002 25.9758ZM105.464 23.064C103.097 23.064 101.202 24.0396 99.8993 25.9683L101.557 27.0877C102.473 25.7311 103.735 25.064 105.464 25.064V23.064ZM99.9027 25.9633C98.6496 27.7948 98.064 30.099 98.064 32.8H100.064C100.064 30.381 100.588 28.5039 101.553 27.0927L99.9027 25.9633ZM98.064 32.8C98.064 35.5018 98.6499 37.8136 99.8993 39.6637L101.557 38.5443C100.587 37.1091 100.064 35.2182 100.064 32.8H98.064ZM99.9027 39.6687C101.208 41.576 103.103 42.536 105.464 42.536V40.536C103.729 40.536 102.467 39.8747 101.553 38.5393L99.9027 39.6687ZM119.746 42.016L118.966 42.6419L118.966 42.6419L119.746 42.016ZM117.794 21.6V20.6H116.794V21.6H117.794ZM120.706 21.6H121.706V20.6H120.706V21.6ZM121.058 38.24L120.082 38.4549L120.084 38.4641L120.086 38.4734L121.058 38.24ZM122.562 40.832L121.899 41.5806L121.905 41.586L121.911 41.5913L122.562 40.832ZM128.994 40.832L129.645 41.5913L129.651 41.586L129.657 41.5806L128.994 40.832ZM130.466 38.24L129.494 38.0066L129.492 38.0159L129.49 38.0251L130.466 38.24ZM130.85 21.6V20.6H129.85V21.6H130.85ZM133.762 21.6H134.762V20.6H133.762V21.6ZM131.81 42.048L132.586 42.679L132.59 42.6739L131.81 42.048ZM125.762 43.448C123.257 43.448 121.583 42.707 120.526 41.3901L118.966 42.6419C120.512 44.5676 122.849 45.448 125.762 45.448V43.448ZM120.526 41.3901C119.417 40.0083 118.794 37.9685 118.794 35.136H116.794C116.794 38.2341 117.473 40.7811 118.966 42.6419L120.526 41.3901ZM118.794 35.136V21.6H116.794V35.136H118.794ZM117.794 22.6H120.706V20.6H117.794V22.6ZM119.706 21.6V34.304H121.706V21.6H119.706ZM119.706 34.304C119.706 35.9058 119.826 37.2948 120.082 38.4549L122.035 38.0251C121.821 37.0518 121.706 35.8169 121.706 34.304H119.706ZM120.086 38.4734C120.385 39.7186 120.984 40.7698 121.899 41.5806L123.225 40.0834C122.647 39.5716 122.244 38.8947 122.031 38.0066L120.086 38.4734ZM121.911 41.5913C122.901 42.4398 124.234 42.792 125.762 42.792V40.792C124.517 40.792 123.716 40.5042 123.213 40.0727L121.911 41.5913ZM125.762 42.792C127.308 42.792 128.653 42.4419 129.645 41.5913L128.343 40.0727C127.843 40.5021 127.033 40.792 125.762 40.792V42.792ZM129.657 41.5806C130.577 40.7656 131.167 39.7075 131.443 38.4549L129.49 38.0251C129.296 38.9059 128.904 39.5757 128.331 40.0834L129.657 41.5806ZM131.439 38.4734C131.719 37.3058 131.85 35.91 131.85 34.304H129.85C129.85 35.8127 129.726 37.0409 129.494 38.0066L131.439 38.4734ZM131.85 34.304V21.6H129.85V34.304H131.85ZM130.85 22.6H133.762V20.6H130.85V22.6ZM132.762 21.6V35.136H134.762V21.6H132.762ZM132.762 35.136C132.762 37.9919 132.139 40.0414 131.03 41.4221L132.59 42.6739C134.085 40.812 134.762 38.2534 134.762 35.136H132.762ZM131.034 41.417C129.98 42.713 128.296 43.448 125.762 43.448V45.448C128.689 45.448 131.037 44.583 132.586 42.679L131.034 41.417ZM147.316 37.92L148.275 37.6373L148.063 36.92H147.316V37.92ZM140.372 37.92V36.92H139.624L139.412 37.6373L140.372 37.92ZM138.58 44V45H139.327L139.539 44.2827L138.58 44ZM135.444 44L134.488 43.7064L134.09 45H135.444V44ZM142.324 21.6V20.6H141.585L141.368 21.3064L142.324 21.6ZM145.332 21.6L146.287 21.3064L146.07 20.6H145.332V21.6ZM152.212 44V45H153.565L153.167 43.7064L152.212 44ZM149.108 44L148.148 44.2827L148.36 45H149.108V44ZM146.516 35.2V36.2H147.854L147.474 34.9164L146.516 35.2ZM143.828 26.112L144.786 25.8284L143.822 22.5668L142.868 25.8315L143.828 26.112ZM141.172 35.2L140.212 34.9195L139.837 36.2H141.172V35.2ZM147.316 36.92H140.372V38.92H147.316V36.92ZM139.412 37.6373L137.62 43.7173L139.539 44.2827L141.331 38.2027L139.412 37.6373ZM138.58 43H135.444V45H138.58V43ZM136.399 44.2936L143.279 21.8936L141.368 21.3064L134.488 43.7064L136.399 44.2936ZM142.324 22.6H145.332V20.6H142.324V22.6ZM144.376 21.8936L151.256 44.2936L153.167 43.7064L146.287 21.3064L144.376 21.8936ZM152.212 43H149.108V45H152.212V43ZM150.067 43.7173L148.275 37.6373L146.356 38.2027L148.148 44.2827L150.067 43.7173ZM147.474 34.9164L144.786 25.8284L142.869 26.3956L145.557 35.4836L147.474 34.9164ZM142.868 25.8315L140.212 34.9195L142.131 35.4805L144.787 26.3925L142.868 25.8315ZM141.172 36.2H146.516V34.2H141.172V36.2ZM154.805 21.6V20.6H153.805V21.6H154.805ZM166.037 23.36L165.367 24.1027L165.373 24.1084L165.38 24.1141L166.037 23.36ZM167.093 31.936L166.232 31.4267L166.229 31.4321L167.093 31.936ZM164.565 34.368L164.083 33.4914L163.264 33.9416L163.658 34.7897L164.565 34.368ZM169.045 44V45H170.613L169.951 43.5783L169.045 44ZM165.589 44L164.679 44.4151L164.946 45H165.589V44ZM161.589 35.232L162.499 34.8169L162.194 34.1486L161.465 34.2397L161.589 35.232ZM157.717 35.296V34.296H156.717V35.296H157.717ZM157.717 44V45H158.717V44H157.717ZM154.805 44H153.805V45H154.805V44ZM163.861 31.552L163.175 30.8244L163.175 30.8244L163.861 31.552ZM163.861 25.312L164.547 24.5844L164.547 24.5844L163.861 25.312ZM157.717 24.256V23.256H156.717V24.256H157.717ZM157.717 32.608H156.717V33.608H157.717V32.608ZM154.805 22.6H160.565V20.6H154.805V22.6ZM160.565 22.6C162.749 22.6 164.304 23.1444 165.367 24.1027L166.706 22.6173C165.167 21.229 163.074 20.6 160.565 20.6V22.6ZM165.38 24.1141C166.427 25.0262 167.021 26.4112 167.021 28.448H169.021C169.021 26.0048 168.292 23.9978 166.694 22.6059L165.38 24.1141ZM167.021 28.448C167.021 29.5588 166.755 30.544 166.232 31.4267L167.953 32.4453C168.668 31.2374 169.021 29.8972 169.021 28.448H167.021ZM166.229 31.4321C165.727 32.292 165.02 32.9771 164.083 33.4914L165.046 35.2446C166.285 34.5643 167.263 33.628 167.957 32.4399L166.229 31.4321ZM163.658 34.7897L168.138 44.4217L169.951 43.5783L165.471 33.9463L163.658 34.7897ZM169.045 43H165.589V45H169.045V43ZM166.499 43.5849L162.499 34.8169L160.679 35.6471L164.679 44.4151L166.499 43.5849ZM161.465 34.2397C161.167 34.277 160.856 34.296 160.533 34.296V36.296C160.935 36.296 161.328 36.2724 161.713 36.2243L161.465 34.2397ZM160.533 34.296H157.717V36.296H160.533V34.296ZM156.717 35.296V44H158.717V35.296H156.717ZM157.717 43H154.805V45H157.717V43ZM155.805 44V21.6H153.805V44H155.805ZM160.309 33.608C162.043 33.608 163.532 33.2362 164.547 32.2796L163.175 30.8244C162.696 31.2758 161.817 31.608 160.309 31.608V33.608ZM164.547 32.2796C165.554 31.3301 165.981 29.9938 165.981 28.448H163.981C163.981 29.6329 163.661 30.3659 163.175 30.8244L164.547 32.2796ZM165.981 28.448C165.981 26.8863 165.557 25.5367 164.547 24.5844L163.175 26.0396C163.658 26.4953 163.981 27.2364 163.981 28.448H165.981ZM164.547 24.5844C163.532 23.6278 162.043 23.256 160.309 23.256V25.256C161.817 25.256 162.696 25.5882 163.175 26.0396L164.547 24.5844ZM160.309 23.256H157.717V25.256H160.309V23.256ZM156.717 24.256V32.608H158.717V24.256H156.717ZM157.717 33.608H160.309V31.608H157.717V33.608ZM171.893 21.6V20.6H170.893V21.6H171.893ZM183.861 21.6H184.861V20.6H183.861V21.6ZM183.861 24.256V25.256H184.861V24.256H183.861ZM174.805 24.256V23.256H173.805V24.256H174.805ZM174.805 30.944H173.805V31.944H174.805V30.944ZM181.973 30.944H182.973V29.944H181.973V30.944ZM181.973 33.632V34.632H182.973V33.632H181.973ZM174.805 33.632V32.632H173.805V33.632H174.805ZM174.805 41.344H173.805V42.344H174.805V41.344ZM184.117 41.344H185.117V40.344H184.117V41.344ZM184.117 44V45H185.117V44H184.117ZM171.893 44H170.893V45H171.893V44ZM171.893 22.6H183.861V20.6H171.893V22.6ZM182.861 21.6V24.256H184.861V21.6H182.861ZM183.861 23.256H174.805V25.256H183.861V23.256ZM173.805 24.256V30.944H175.805V24.256H173.805ZM174.805 31.944H181.973V29.944H174.805V31.944ZM180.973 30.944V33.632H182.973V30.944H180.973ZM181.973 32.632H174.805V34.632H181.973V32.632ZM173.805 33.632V41.344H175.805V33.632H173.805ZM174.805 42.344H184.117V40.344H174.805V42.344ZM183.117 41.344V44H185.117V41.344H183.117ZM184.117 43H171.893V45H184.117V43ZM172.893 44V21.6H170.893V44H172.893ZM187.143 21.6V20.6H186.143V21.6H187.143ZM199.239 22.944L198.708 23.7913L198.714 23.7948L199.239 22.944ZM202.631 26.816L201.73 27.2495L201.73 27.2495L202.631 26.816ZM202.631 38.784L203.532 39.2175L203.532 39.2175L202.631 38.784ZM199.239 42.656L198.714 41.8052L198.708 41.8087L199.239 42.656ZM187.143 44H186.143V45H187.143V44ZM198.855 39.104L198.069 38.4862L198.063 38.4932L198.855 39.104ZM198.855 26.496L198.063 27.1068L198.069 27.1138L198.855 26.496ZM190.055 24.256V23.256H189.055V24.256H190.055ZM190.055 41.344H189.055V42.344H190.055V41.344ZM187.143 22.6H194.311V20.6H187.143V22.6ZM194.311 22.6C195.999 22.6 197.454 23.0049 198.708 23.7913L199.77 22.0967C198.166 21.0911 196.336 20.6 194.311 20.6V22.6ZM198.714 23.7948C199.986 24.5808 200.994 25.719 201.73 27.2495L203.532 26.3825C202.647 24.5424 201.394 23.0992 199.765 22.0932L198.714 23.7948ZM201.73 27.2495C202.462 28.7719 202.847 30.612 202.847 32.8H204.847C204.847 30.38 204.421 28.2308 203.532 26.3825L201.73 27.2495ZM202.847 32.8C202.847 34.988 202.462 36.8281 201.73 38.3505L203.532 39.2175C204.421 37.3692 204.847 35.22 204.847 32.8H202.847ZM201.73 38.3505C200.994 39.881 199.986 41.0192 198.714 41.8052L199.765 43.5068C201.394 42.5008 202.647 41.0576 203.532 39.2175L201.73 38.3505ZM198.708 41.8087C197.454 42.5951 195.999 43 194.311 43V45C196.336 45 198.166 44.5089 199.77 43.5033L198.708 41.8087ZM194.311 43H187.143V45H194.311V43ZM188.143 44V21.6H186.143V44H188.143ZM193.767 42.344C196.252 42.344 198.269 41.501 199.647 39.7148L198.063 38.4932C197.137 39.6937 195.763 40.344 193.767 40.344V42.344ZM199.642 39.7218C201.002 37.9909 201.615 35.6403 201.615 32.8H199.615C199.615 35.3784 199.056 37.2304 198.069 38.4862L199.642 39.7218ZM201.615 32.8C201.615 29.9597 201.002 27.6091 199.642 25.8782L198.069 27.1138C199.056 28.3696 199.615 30.2216 199.615 32.8H201.615ZM199.647 25.8852C198.269 24.099 196.252 23.256 193.767 23.256V25.256C195.763 25.256 197.137 25.9063 198.063 27.1068L199.647 25.8852ZM193.767 23.256H190.055V25.256H193.767V23.256ZM189.055 24.256V41.344H191.055V24.256H189.055ZM190.055 42.344H193.767V40.344H190.055V42.344ZM206.124 40.64V39.64H205.124V40.64H206.124ZM209.292 40.64H210.292V39.64H209.292V40.64ZM209.292 44V45H210.292V44H209.292ZM206.124 44H205.124V45H206.124V44ZM206.124 41.64H209.292V39.64H206.124V41.64ZM208.292 40.64V44H210.292V40.64H208.292ZM209.292 43H206.124V45H209.292V43ZM207.124 44V40.64H205.124V44H207.124ZM212.962 21.6V20.6H211.962V21.6H212.962ZM215.906 21.6H216.906V20.6H215.906V21.6ZM215.906 44V45H216.906V44H215.906ZM212.962 44H211.962V45H212.962V44ZM212.962 22.6H215.906V20.6H212.962V22.6ZM214.906 21.6V44H216.906V21.6H214.906ZM215.906 43H212.962V45H215.906V43ZM213.962 44V21.6H211.962V44H213.962ZM223.817 43.008L223.26 43.8382L223.265 43.8419L223.817 43.008ZM220.457 38.944L219.548 39.3603L219.55 39.3645L220.457 38.944ZM220.457 26.688L221.365 27.1085L221.366 27.1043L220.457 26.688ZM223.817 22.592L223.265 21.758L223.26 21.7619L223.817 22.592ZM233.641 22.592L233.084 23.4221L233.084 23.4221L233.641 22.592ZM237.001 26.688L236.092 27.1043L236.094 27.1085L237.001 26.688ZM237.001 38.944L237.909 39.3645L237.91 39.3603L237.001 38.944ZM233.641 43.008L233.084 42.1779L233.084 42.1779L233.641 43.008ZM233.449 39.104L232.621 38.5443L232.619 38.5468L233.449 39.104ZM233.449 26.528L232.616 27.0802L232.62 27.0865L232.624 27.0927L233.449 26.528ZM224.009 26.528L224.835 27.0927L224.838 27.0877L224.009 26.528ZM224.009 39.104L223.181 39.6637L223.184 39.6687L224.009 39.104ZM228.745 43.448C227.096 43.448 225.647 43.0197 224.369 42.1741L223.265 43.8419C224.889 44.9163 226.726 45.448 228.745 45.448V43.448ZM224.375 42.1779C223.115 41.3317 222.108 40.1273 221.365 38.5235L219.55 39.3645C220.428 41.2594 221.661 42.7643 223.26 43.8381L224.375 42.1779ZM221.366 38.5277C220.626 36.9105 220.241 35.0091 220.241 32.8H218.241C218.241 35.2415 218.667 37.4361 219.548 39.3603L221.366 38.5277ZM220.241 32.8C220.241 30.5905 220.626 28.7017 221.365 27.1085L219.55 26.2675C218.667 28.1729 218.241 30.3589 218.241 32.8H220.241ZM221.366 27.1043C222.111 25.4788 223.118 24.2663 224.375 23.4221L223.26 21.7619C221.658 22.8377 220.425 24.3558 219.548 26.2717L221.366 27.1043ZM224.369 23.4259C225.647 22.5803 227.096 22.152 228.745 22.152V20.152C226.726 20.152 224.889 20.6837 223.265 21.7581L224.369 23.4259ZM228.745 22.152C230.395 22.152 231.83 22.5803 233.084 23.4221L234.199 21.7619C232.594 20.6837 230.765 20.152 228.745 20.152V22.152ZM233.084 23.4221C234.341 24.2663 235.348 25.4788 236.092 27.1043L237.91 26.2717C237.033 24.3558 235.801 22.8377 234.199 21.7619L233.084 23.4221ZM236.094 27.1085C236.832 28.7017 237.217 30.5905 237.217 32.8H239.217C239.217 30.3589 238.792 28.1729 237.909 26.2675L236.094 27.1085ZM237.217 32.8C237.217 35.0091 236.832 36.9105 236.092 38.5277L237.91 39.3603C238.791 37.4361 239.217 35.2415 239.217 32.8H237.217ZM236.094 38.5235C235.351 40.1273 234.344 41.3317 233.084 42.1779L234.199 43.8381C235.798 42.7643 237.03 41.2594 237.909 39.3645L236.094 38.5235ZM233.084 42.1779C231.83 43.0197 230.395 43.448 228.745 43.448V45.448C230.765 45.448 232.594 44.9163 234.199 43.8381L233.084 42.1779ZM228.745 42.536C231.107 42.536 232.995 41.5751 234.28 39.6612L232.619 38.5468C231.727 39.8756 230.479 40.536 228.745 40.536V42.536ZM234.278 39.6637C235.527 37.8136 236.113 35.5018 236.113 32.8H234.113C234.113 35.2182 233.59 37.1091 232.621 38.5443L234.278 39.6637ZM236.113 32.8C236.113 30.099 235.528 27.7948 234.275 25.9633L232.624 27.0927C233.59 28.5039 234.113 30.381 234.113 32.8H236.113ZM234.283 25.9758C233.001 24.0405 231.113 23.064 228.745 23.064V25.064C230.474 25.064 231.721 25.7302 232.616 27.0802L234.283 25.9758ZM228.745 23.064C226.378 23.064 224.483 24.0396 223.181 25.9683L224.838 27.0877C225.754 25.7311 227.016 25.064 228.745 25.064V23.064ZM223.184 25.9633C221.931 27.7948 221.345 30.099 221.345 32.8H223.345C223.345 30.381 223.869 28.5039 224.835 27.0927L223.184 25.9633ZM221.345 32.8C221.345 35.5018 221.931 37.8136 223.181 39.6637L224.838 38.5443C223.869 37.1091 223.345 35.2182 223.345 32.8H221.345ZM223.184 39.6687C224.489 41.576 226.384 42.536 228.745 42.536V40.536C227.011 40.536 225.748 39.8747 224.835 38.5393L223.184 39.6687Z" fill="black" fill-opacity="0.69"/>
</g>
<defs>
<clipPath id="clip0_1_2">
<rect width="251" height="66" fill="white"/>
</clipPath>
</defs>
</svg>
