<svg width="251" id="Techsquared" height="66" viewBox="0 0 251 66" fill="none" xmlns="http://www.w3.org/2000/svg">
<rect width="251" height="66" fill="#1E1E1E"/>
<g clip-path="url(#clip0_0_1)">
<rect width="251" height="66" fill="white"/>
<path d="M11.1149 23.816H10.7309C8.83221 23.816 7.34954 24.296 6.28288 25.256C5.23754 26.1947 4.71488 27.8693 4.71488 30.28C4.71488 31.0693 4.78954 31.624 4.93888 31.944C5.08821 32.2427 5.16288 32.4133 5.16288 32.456C4.01088 32.456 3.14688 32.2213 2.57088 31.752C2.01621 31.2613 1.73888 30.4613 1.73888 29.352C1.73888 27.8373 2.11221 26.4613 2.85888 25.224C3.60554 23.9653 4.78954 22.952 6.41088 22.184C8.05354 21.416 10.1335 21.032 12.6509 21.032C14.0589 21.032 15.5735 21.16 17.1949 21.416C18.5602 21.6507 19.7762 21.768 20.8429 21.768C22.2082 21.768 23.4455 21.544 24.5549 21.096C24.5122 22.4827 24.1602 23.5067 23.4989 24.168C22.8375 24.8293 21.8562 25.16 20.5549 25.16C19.8722 25.16 19.1895 25.1067 18.5069 25C17.8242 24.8933 16.8535 24.712 15.5949 24.456L11.1789 45H6.57088L11.1149 23.816ZM23.0651 45.576C21.1238 45.576 19.6518 45.0427 18.6491 43.976C17.6678 42.9093 17.1771 41.5653 17.1771 39.944C17.1771 38.792 17.4118 37.64 17.8811 36.488C18.3718 35.3147 19.0651 34.2907 19.9611 33.416C20.8571 32.5413 21.9025 31.9547 23.0971 31.656C22.4358 31.1867 21.9451 30.6213 21.6251 29.96C21.3051 29.2773 21.1451 28.5627 21.1451 27.816C21.1451 26.7067 21.4438 25.6187 22.0411 24.552C22.6598 23.4853 23.5025 22.6213 24.5691 21.96C25.6571 21.2773 26.8518 20.936 28.1531 20.936C29.4971 20.936 30.5958 21.288 31.4491 21.992C32.3025 22.696 32.7291 23.6773 32.7291 24.936C32.7291 25.8747 32.4945 26.664 32.0251 27.304C31.5558 27.944 31.0011 28.264 30.3611 28.264C29.7851 28.264 29.2838 27.976 28.8571 27.4C29.2411 27.272 29.5718 26.92 29.8491 26.344C30.1265 25.768 30.2651 25.192 30.2651 24.616C30.2651 23.9973 30.0945 23.5493 29.7531 23.272C29.4118 22.9733 28.9958 22.824 28.5051 22.824C27.8865 22.824 27.3211 23.048 26.8091 23.496C26.3185 23.9227 25.9345 24.488 25.6571 25.192C25.3798 25.8747 25.2411 26.5893 25.2411 27.336C25.2411 28.36 25.5078 29.2667 26.0411 30.056C26.5745 30.824 27.3851 31.3467 28.4731 31.624C27.3851 31.8587 26.4038 32.392 25.5291 33.224C24.6545 34.056 23.9718 35.0267 23.4811 36.136C22.9905 37.224 22.7451 38.2693 22.7451 39.272C22.7451 40.232 22.9905 41.0107 23.4811 41.608C23.9931 42.2053 24.7611 42.504 25.7851 42.504C26.8518 42.504 27.9611 42.216 29.1131 41.64C30.2865 41.0427 31.1505 40.2427 31.7051 39.24L32.4411 39.56C31.6091 41.3947 30.3291 42.856 28.6011 43.944C26.8731 45.032 25.0278 45.576 23.0651 45.576ZM39.2566 45.512C36.846 45.512 35.0753 44.904 33.9446 43.688C32.814 42.472 32.2486 40.456 32.2486 37.64C32.2486 35.4 32.622 32.9893 33.3686 30.408C34.1366 27.8267 35.3526 25.6187 37.0166 23.784C38.702 21.928 40.8353 21 43.4166 21C45.0166 21 46.3073 21.352 47.2886 22.056C48.27 22.76 48.7606 23.8373 48.7606 25.288C48.7606 26.2053 48.5793 26.9307 48.2166 27.464C47.854 27.976 47.2886 28.232 46.5206 28.232C45.7526 28.232 45.1446 27.9547 44.6966 27.4C45.0806 27.208 45.422 26.824 45.7206 26.248C46.0193 25.672 46.1686 25.0747 46.1686 24.456C46.1686 23.88 46.0086 23.4107 45.6886 23.048C45.39 22.6853 44.8993 22.504 44.2166 22.504C43.086 22.504 42.0086 23.2827 40.9846 24.84C39.9606 26.376 39.1286 28.3173 38.4886 30.664C37.87 33.0107 37.5606 35.272 37.5606 37.448C37.5606 39.0693 37.838 40.3067 38.3926 41.16C38.9473 42.0133 39.95 42.44 41.4006 42.44C42.6593 42.44 43.822 42.1627 44.8886 41.608C45.9553 41.0533 46.8726 40.264 47.6406 39.24L48.3766 39.56C47.8433 40.904 47.054 42.024 46.0086 42.92C44.9633 43.816 43.8433 44.4773 42.6486 44.904C41.454 45.3093 40.3233 45.512 39.2566 45.512ZM55.3869 23.24C53.9575 23.8373 52.8482 24.7333 52.0589 25.928C51.2909 27.1227 50.9069 28.5627 50.9069 30.248C50.9069 31.0373 50.9815 31.592 51.1309 31.912C51.2802 32.2107 51.3549 32.3813 51.3549 32.424C50.2029 32.424 49.3389 32.1893 48.7629 31.72C48.2082 31.2293 47.9309 30.4293 47.9309 29.32C47.9309 27.9547 48.4855 26.632 49.5949 25.352C50.7255 24.0507 52.1655 23.0053 53.9149 22.216C55.6642 21.4053 57.4135 21 59.1629 21C59.4615 21 59.8882 21.0213 60.4429 21.064L58.3949 30.6H63.0989L65.1469 21.064H69.7549L64.6669 45H60.0589L62.6189 32.968H57.9149L55.3549 45H50.7469L55.3869 23.24ZM76.6681 45.576C75.3241 45.576 74.1401 45.3413 73.1161 44.872C72.0921 44.4027 71.3028 43.752 70.7481 42.92C70.1935 42.0667 69.9161 41.0853 69.9161 39.976C69.9161 39.0373 70.1081 38.184 70.4921 37.416C70.8975 36.648 71.4308 36.04 72.0921 35.592C72.7748 35.144 73.5215 34.92 74.3321 34.92C75.0788 34.92 75.7081 35.112 76.2201 35.496C76.7321 35.8587 77.0521 36.3707 77.1801 37.032C76.0708 37.032 75.1855 37.3307 74.5241 37.928C73.8628 38.504 73.5321 39.2933 73.5321 40.296C73.5321 41.2133 73.8095 41.9493 74.3641 42.504C74.9188 43.0587 75.6548 43.336 76.5721 43.336C77.7028 43.336 78.6308 42.9627 79.3561 42.216C80.1028 41.448 80.4761 40.488 80.4761 39.336C80.4761 38.3333 80.1988 37.384 79.6441 36.488C79.0895 35.592 78.2575 34.504 77.1481 33.224C75.9961 31.9013 75.1215 30.7707 74.5241 29.832C73.9481 28.872 73.6601 27.8267 73.6601 26.696C73.6601 25.5867 73.9695 24.5947 74.5881 23.72C75.2068 22.824 76.0601 22.12 77.1481 21.608C78.2361 21.096 79.4628 20.84 80.8281 20.84C82.5561 20.84 83.9321 21.2453 84.9561 22.056C86.0015 22.8667 86.5241 23.9547 86.5241 25.32C86.5241 26.216 86.3001 26.9413 85.8521 27.496C85.4041 28.0507 84.8175 28.328 84.0921 28.328C83.2815 28.328 82.6308 27.9973 82.1401 27.336C82.5455 27.0373 82.8655 26.6427 83.1001 26.152C83.3348 25.6613 83.4521 25.1493 83.4521 24.616C83.4521 23.9333 83.2495 23.3893 82.8441 22.984C82.4388 22.5787 81.8841 22.376 81.1801 22.376C80.3268 22.376 79.6228 22.6853 79.0681 23.304C78.5348 23.9013 78.2681 24.6693 78.2681 25.608C78.2681 26.4613 78.5135 27.2613 79.0041 28.008C79.4948 28.7333 80.2628 29.672 81.3081 30.824C82.1615 31.7413 82.8441 32.5307 83.3561 33.192C83.8895 33.8533 84.3375 34.6213 84.7001 35.496C85.0841 36.3493 85.2761 37.2773 85.2761 38.28C85.2761 39.6453 84.8921 40.8827 84.1241 41.992C83.3775 43.1013 82.3428 43.976 81.0201 44.616C79.7188 45.256 78.2681 45.576 76.6681 45.576ZM103.366 48.616C102.491 48.616 101.787 48.4347 101.254 48.072C100.721 47.7307 100.315 47.2933 100.038 46.76C99.7821 46.248 99.5155 45.576 99.2381 44.744C98.2781 45.0427 97.2861 45.192 96.2621 45.192C94.4701 45.192 93.0621 44.68 92.0381 43.656C91.0355 42.632 90.5341 41 90.5341 38.76C90.5341 36.8613 90.8755 34.728 91.5581 32.36C92.2408 29.992 93.2328 27.9653 94.5341 26.28C95.8568 24.5947 97.4141 23.752 99.2061 23.752C99.8461 23.752 100.401 23.8373 100.87 24.008C99.9315 24.5627 99.0248 25.704 98.1501 27.432C97.2968 29.16 96.6035 31.0907 96.0701 33.224C95.5368 35.3573 95.2701 37.2453 95.2701 38.888V39.464C95.2701 39.8267 95.2915 40.0933 95.3341 40.264C96.1021 40.072 96.7635 39.976 97.3181 39.976C98.2781 39.976 99.1315 40.264 99.8781 40.84C100.966 39.432 101.894 37.5227 102.662 35.112C103.43 32.68 103.814 30.3333 103.814 28.072C103.814 26.7493 103.697 25.6933 103.462 24.904C103.249 24.0933 102.843 23.4853 102.246 23.08C101.649 22.6747 100.806 22.472 99.7181 22.472C98.0755 22.472 96.5501 22.8133 95.1421 23.496C93.7341 24.1573 92.6035 25.1173 91.7501 26.376C90.9181 27.6133 90.5021 29.0533 90.5021 30.696C90.5021 31.272 90.5555 31.6987 90.6621 31.976C90.7688 32.232 90.8221 32.3813 90.8221 32.424C89.7555 32.424 88.9448 32.2107 88.3901 31.784C87.8568 31.3573 87.5901 30.6747 87.5901 29.736C87.5901 28.264 88.1875 26.856 89.3821 25.512C90.5981 24.168 92.1981 23.08 94.1821 22.248C96.1875 21.416 98.2888 21 100.486 21C103.153 21 105.083 21.7253 106.278 23.176C107.473 24.6267 108.07 26.632 108.07 29.192C108.07 30.7707 107.846 32.4667 107.398 34.28C106.95 36.072 106.267 37.7787 105.35 39.4C104.433 41.0213 103.302 42.3333 101.958 43.336C102.513 44.168 103.089 44.808 103.686 45.256C104.283 45.704 105.041 45.928 105.958 45.928C106.086 45.928 106.321 45.9067 106.662 45.864C106.257 46.9093 105.787 47.624 105.254 48.008C104.742 48.4133 104.113 48.616 103.366 48.616ZM97.1261 42.6C97.5955 42.6 98.0008 42.4827 98.3421 42.248C97.9155 41.5227 97.3075 41.16 96.5181 41.16C96.1768 41.16 95.8675 41.2027 95.5901 41.288C95.8888 42.1627 96.4008 42.6 97.1261 42.6ZM119.719 45.224C117.607 45.224 116.007 44.712 114.919 43.688C113.853 42.6427 113.319 41.1067 113.319 39.08C113.319 38.0773 113.469 36.9573 113.767 35.72L117.031 22.728C115.197 23.2187 113.767 24.0933 112.743 25.352C111.719 26.5893 111.207 27.9547 111.207 29.448C111.207 30.4933 111.485 31.5067 112.039 32.488C110.823 32.488 109.874 32.1893 109.191 31.592C108.53 30.9947 108.199 30.152 108.199 29.064C108.199 27.6773 108.754 26.3547 109.863 25.096C110.994 23.816 112.487 22.792 114.343 22.024C116.199 21.256 118.162 20.872 120.231 20.872C120.957 20.872 121.554 20.9253 122.023 21.032L118.119 35.816C117.757 37.16 117.575 38.312 117.575 39.272C117.575 41.2987 118.407 42.312 120.071 42.312C122.461 42.312 124.114 40.1147 125.031 35.72L128.231 20.936H132.743L129.639 35.72C128.957 38.856 127.773 41.224 126.087 42.824C124.423 44.424 122.301 45.224 119.719 45.224ZM138.242 48.648C137.452 48.648 136.759 48.584 136.162 48.456C135.564 48.328 135.042 48.0187 134.594 47.528C134.167 47.0373 133.954 46.28 133.954 45.256C133.954 43.8267 134.38 41.9067 135.234 39.496C136.108 37.0853 137.25 34.664 138.658 32.232C137.591 32.296 136.748 32.456 136.13 32.712C135.511 32.968 135.106 33.3627 134.914 33.896C134.999 33.896 135.084 34.0027 135.17 34.216C135.276 34.4293 135.33 34.6533 135.33 34.888C135.33 35.272 135.159 35.5813 134.818 35.816C134.476 36.0293 134.05 36.136 133.538 36.136C132.94 36.136 132.46 35.976 132.098 35.656C131.735 35.336 131.554 34.8773 131.554 34.28C131.554 33.5547 131.831 32.8933 132.386 32.296C132.962 31.6987 133.751 31.2293 134.754 30.888C135.756 30.5253 136.866 30.344 138.082 30.344C138.53 30.344 139.084 30.376 139.746 30.44C141.495 27.6667 143.34 25.4053 145.282 23.656C147.244 21.8853 149.111 21 150.882 21C151.906 21 152.748 21.1493 153.41 21.448L148.386 45H143.778L146.242 33.384C145.452 33.0213 144.727 32.7547 144.066 32.584C143.404 32.4133 142.7 32.296 141.954 32.232C140.738 34.856 139.735 37.544 138.946 40.296C138.178 43.0267 137.794 45.2133 137.794 46.856C137.794 47.6667 137.943 48.264 138.242 48.648ZM148.386 23.272C147.468 23.7627 146.508 24.68 145.506 26.024C144.524 27.3467 143.564 28.9573 142.626 30.856C144.162 31.1547 145.463 31.528 146.53 31.976L148.386 23.272ZM166.593 45.544C164.929 45.544 164.097 44.8293 164.097 43.4C164.097 42.9307 164.161 42.3973 164.289 41.8C164.438 41.1813 164.641 40.392 164.897 39.432C165.195 38.4293 165.419 37.576 165.569 36.872C165.718 36.168 165.793 35.5387 165.793 34.984C165.793 33.5333 165.153 32.808 163.873 32.808C163.531 32.808 163.179 32.8507 162.817 32.936L160.257 45H155.649L160.001 24.648L164.737 24.008L163.169 31.4H163.425C164.257 31.4 165.025 31.112 165.729 30.536C166.433 29.96 166.977 29.2453 167.361 28.392C167.766 27.5173 167.969 26.664 167.969 25.832C167.969 24.8507 167.67 24.0507 167.073 23.432C166.497 22.792 165.622 22.472 164.449 22.472C162.721 22.472 161.206 22.7813 159.905 23.4C158.603 24.0187 157.59 24.9147 156.865 26.088C156.161 27.2613 155.809 28.648 155.809 30.248C155.809 31.0373 155.883 31.592 156.033 31.912C156.182 32.2107 156.257 32.3813 156.257 32.424C155.105 32.424 154.241 32.1893 153.665 31.72C153.11 31.2293 152.833 30.4293 152.833 29.32C152.833 27.9547 153.387 26.632 154.497 25.352C155.627 24.0507 157.067 23.0053 158.817 22.216C160.566 21.4053 162.315 21 164.065 21C165.665 21 167.009 21.2347 168.097 21.704C169.185 22.1733 169.995 22.8027 170.529 23.592C171.062 24.36 171.329 25.2027 171.329 26.12C171.329 27.1227 171.019 28.1253 170.401 29.128C169.782 30.1307 168.939 30.952 167.873 31.592C168.683 31.8267 169.249 32.2213 169.569 32.776C169.91 33.3093 170.081 33.9813 170.081 34.792C170.081 35.4107 170.006 36.072 169.857 36.776C169.707 37.4587 169.494 38.312 169.217 39.336C169.046 39.9973 168.886 40.648 168.737 41.288C168.587 41.928 168.513 42.4613 168.513 42.888C168.513 43.3787 168.619 43.816 168.833 44.2C169.067 44.584 169.377 44.8507 169.761 45C168.459 45.3627 167.403 45.544 166.593 45.544ZM177.971 45.576C176.03 45.576 174.558 45.0427 173.555 43.976C172.574 42.9093 172.083 41.5653 172.083 39.944C172.083 38.792 172.318 37.64 172.787 36.488C173.278 35.3147 173.971 34.2907 174.867 33.416C175.763 32.5413 176.809 31.9547 178.003 31.656C177.342 31.1867 176.851 30.6213 176.531 29.96C176.211 29.2773 176.051 28.5627 176.051 27.816C176.051 26.7067 176.35 25.6187 176.947 24.552C177.566 23.4853 178.409 22.6213 179.475 21.96C180.563 21.2773 181.758 20.936 183.059 20.936C184.403 20.936 185.502 21.288 186.355 21.992C187.209 22.696 187.635 23.6773 187.635 24.936C187.635 25.8747 187.401 26.664 186.931 27.304C186.462 27.944 185.907 28.264 185.267 28.264C184.691 28.264 184.19 27.976 183.763 27.4C184.147 27.272 184.478 26.92 184.755 26.344C185.033 25.768 185.171 25.192 185.171 24.616C185.171 23.9973 185.001 23.5493 184.659 23.272C184.318 22.9733 183.902 22.824 183.411 22.824C182.793 22.824 182.227 23.048 181.715 23.496C181.225 23.9227 180.841 24.488 180.563 25.192C180.286 25.8747 180.147 26.5893 180.147 27.336C180.147 28.36 180.414 29.2667 180.947 30.056C181.481 30.824 182.291 31.3467 183.379 31.624C182.291 31.8587 181.31 32.392 180.435 33.224C179.561 34.056 178.878 35.0267 178.387 36.136C177.897 37.224 177.651 38.2693 177.651 39.272C177.651 40.232 177.897 41.0107 178.387 41.608C178.899 42.2053 179.667 42.504 180.691 42.504C181.758 42.504 182.867 42.216 184.019 41.64C185.193 41.0427 186.057 40.2427 186.611 39.24L187.347 39.56C186.515 41.3947 185.235 42.856 183.507 43.944C181.779 45.032 179.934 45.576 177.971 45.576ZM198.323 45.416C197.043 45.416 195.742 44.8507 194.419 43.72L194.163 45H189.555L193.907 24.648L198.643 24.008L194.803 41.96C195.4 42.3867 196.008 42.6 196.627 42.6C197.843 42.6 198.91 41.896 199.827 40.488C200.766 39.08 201.491 37.288 202.003 35.112C202.515 32.936 202.771 30.7387 202.771 28.52C202.771 26.4293 202.355 24.904 201.523 23.944C200.712 22.9627 199.571 22.472 198.099 22.472C196.499 22.472 195.059 22.792 193.779 23.432C192.52 24.0507 191.528 24.9467 190.803 26.12C190.078 27.2933 189.715 28.6693 189.715 30.248C189.715 31.0373 189.79 31.592 189.939 31.912C190.088 32.2107 190.163 32.3813 190.163 32.424C189.054 32.424 188.2 32.1893 187.603 31.72C187.027 31.2507 186.739 30.4933 186.739 29.448C186.739 27.9973 187.283 26.6213 188.371 25.32C189.459 24.0187 190.91 22.9733 192.723 22.184C194.558 21.3947 196.531 21 198.643 21C201.566 21 203.72 21.864 205.107 23.592C206.494 25.32 207.187 27.528 207.187 30.216C207.187 32.648 206.771 35.048 205.939 37.416C205.128 39.7627 204.04 41.6827 202.675 43.176C201.31 44.6693 199.859 45.416 198.323 45.416ZM211.286 45.128C210.582 45.128 209.984 44.8827 209.494 44.392C209.003 43.9013 208.758 43.304 208.758 42.6C208.758 41.896 209.003 41.2987 209.494 40.808C209.984 40.296 210.582 40.04 211.286 40.04C211.99 40.04 212.587 40.296 213.078 40.808C213.59 41.2987 213.846 41.896 213.846 42.6C213.846 43.304 213.59 43.9013 213.078 44.392C212.587 44.8827 211.99 45.128 211.286 45.128ZM223.82 23.272C222.391 23.848 221.281 24.7333 220.492 25.928C219.724 27.1013 219.34 28.5413 219.34 30.248C219.34 31.0373 219.415 31.592 219.564 31.912C219.713 32.2107 219.788 32.3813 219.788 32.424C218.636 32.424 217.772 32.1893 217.196 31.72C216.641 31.2293 216.364 30.4293 216.364 29.32C216.364 27.9547 216.919 26.632 218.028 25.352C219.159 24.0507 220.599 23.0053 222.348 22.216C224.097 21.4053 225.847 21 227.596 21C227.895 21 228.321 21.0213 228.876 21.064L223.788 45H219.18L223.82 23.272ZM237.356 45.192C235.564 45.192 234.156 44.68 233.132 43.656C232.129 42.632 231.628 41 231.628 38.76C231.628 36.8613 231.969 34.728 232.652 32.36C233.335 29.992 234.327 27.9653 235.628 26.28C236.951 24.5947 238.508 23.752 240.3 23.752C240.94 23.752 241.495 23.8373 241.964 24.008C241.025 24.5627 240.119 25.704 239.244 27.432C238.391 29.16 237.697 31.0907 237.164 33.224C236.631 35.3573 236.364 37.2453 236.364 38.888C236.364 40.04 236.513 40.9467 236.812 41.608C237.111 42.2693 237.58 42.6 238.22 42.6C239.265 42.6 240.3 41.8533 241.324 40.36C242.369 38.8453 243.223 36.9467 243.884 34.664C244.567 32.3813 244.908 30.184 244.908 28.072C244.908 26.7493 244.791 25.6933 244.556 24.904C244.343 24.0933 243.937 23.4853 243.34 23.08C242.743 22.6747 241.9 22.472 240.812 22.472C239.169 22.472 237.644 22.8133 236.236 23.496C234.828 24.1573 233.697 25.1173 232.844 26.376C232.012 27.6133 231.596 29.0533 231.596 30.696C231.596 31.272 231.649 31.6987 231.756 31.976C231.863 32.232 231.916 32.3813 231.916 32.424C230.849 32.424 230.039 32.2107 229.484 31.784C228.951 31.3573 228.684 30.6747 228.684 29.736C228.684 28.264 229.281 26.856 230.476 25.512C231.692 24.168 233.292 23.08 235.276 22.248C237.281 21.416 239.383 21 241.58 21C244.247 21 246.177 21.7253 247.372 23.176C248.567 24.6267 249.164 26.632 249.164 29.192C249.164 31.4747 248.737 33.8533 247.884 36.328C247.031 38.8027 245.708 40.904 243.916 42.632C242.145 44.3387 239.959 45.192 237.356 45.192Z" fill="black"/>
<path d="M11.1149 23.816L12.0926 24.0257L12.3521 22.816H11.1149V23.816ZM6.28288 25.256L6.951 26L6.95184 25.9993L6.28288 25.256ZM4.93888 31.944L4.03269 32.3669L4.03841 32.3791L4.04445 32.3912L4.93888 31.944ZM5.16288 32.456V33.456H6.16288V32.456H5.16288ZM2.57088 31.752L1.9083 32.501L1.92349 32.5144L1.9392 32.5272L2.57088 31.752ZM2.85888 25.224L3.71509 25.7407L3.71893 25.7342L2.85888 25.224ZM6.41088 22.184L5.98734 21.2781L5.98279 21.2803L6.41088 22.184ZM17.1949 21.416L17.3643 20.4304L17.3508 20.4282L17.1949 21.416ZM24.5549 21.096L25.5544 21.1268L25.6015 19.5948L24.1804 20.1688L24.5549 21.096ZM23.4989 24.168L24.206 24.8751L24.206 24.8751L23.4989 24.168ZM18.5069 25L18.3525 25.988L18.3525 25.988L18.5069 25ZM15.5949 24.456L15.7942 23.4761L14.825 23.279L14.6172 24.2458L15.5949 24.456ZM11.1789 45V46H11.9868L12.1565 45.2102L11.1789 45ZM6.57088 45L5.59312 44.7903L5.33363 46H6.57088V45ZM11.1149 22.816H10.7309V24.816H11.1149V22.816ZM10.7309 22.816C8.66656 22.816 6.91684 23.3401 5.61391 24.5127L6.95184 25.9993C7.78224 25.2519 8.99786 24.816 10.7309 24.816V22.816ZM5.61475 24.512C4.24802 25.7392 3.71488 27.7783 3.71488 30.28H5.71488C5.71488 27.9603 6.22707 26.6501 6.951 26L5.61475 24.512ZM3.71488 30.28C3.71488 31.0782 3.78211 31.8299 4.03269 32.3669L5.84506 31.5211C5.79698 31.4181 5.71488 31.0604 5.71488 30.28H3.71488ZM4.04445 32.3912C4.11643 32.5352 4.16357 32.6348 4.19072 32.6968C4.20483 32.7291 4.20761 32.7378 4.20502 32.7303C4.20379 32.7268 4.19686 32.7071 4.18923 32.6765C4.18528 32.6607 4.17951 32.6356 4.17442 32.6036C4.16968 32.5738 4.16288 32.5219 4.16288 32.456H6.16288C6.16288 32.2527 6.0973 32.0827 6.09273 32.0696C6.07147 32.0089 6.04625 31.9483 6.02303 31.8952C5.97552 31.7866 5.91065 31.6515 5.8333 31.4968L4.04445 32.3912ZM5.16288 31.456C4.12098 31.456 3.52517 31.2396 3.20255 30.9768L1.9392 32.5272C2.76858 33.203 3.90077 33.456 5.16288 33.456V31.456ZM3.23345 31.003C2.98158 30.7802 2.73888 30.3187 2.73888 29.352H0.738875C0.738875 30.604 1.05084 31.7425 1.9083 32.501L3.23345 31.003ZM2.73888 29.352C2.73888 28.0103 3.0671 26.8144 3.71506 25.7407L2.00269 24.7073C1.15732 26.1082 0.738875 27.6644 0.738875 29.352H2.73888ZM3.71893 25.7342C4.34308 24.6821 5.35657 23.7899 6.83896 23.0877L5.98279 21.2803C4.22252 22.1141 2.86801 23.2486 1.99882 24.7138L3.71893 25.7342ZM6.8344 23.0899C8.30344 22.4031 10.2266 22.032 12.6509 22.032V20.032C10.0405 20.032 7.80364 20.4289 5.98735 21.2781L6.8344 23.0899ZM12.6509 22.032C13.9989 22.032 15.4609 22.1546 17.0389 22.4038L17.3508 20.4282C15.6862 20.1654 14.1188 20.032 12.6509 20.032V22.032ZM17.0255 22.4015C18.4312 22.6432 19.7056 22.768 20.8429 22.768V20.768C19.8469 20.768 18.6892 20.6582 17.3643 20.4304L17.0255 22.4015ZM20.8429 22.768C22.3186 22.768 23.6854 22.5256 24.9293 22.0232L24.1804 20.1688C23.2057 20.5624 22.0979 20.768 20.8429 20.768V22.768ZM23.5553 21.0652C23.5168 22.3184 23.2027 23.05 22.7918 23.4609L24.206 24.8751C25.1177 23.9633 25.5076 22.6469 25.5544 21.1268L23.5553 21.0652ZM22.7918 23.4609C22.3814 23.8713 21.6966 24.16 20.5549 24.16V26.16C22.0158 26.16 23.2937 25.7874 24.206 24.8751L22.7918 23.4609ZM20.5549 24.16C19.9245 24.16 19.2935 24.1108 18.6613 24.012L18.3525 25.988C19.0856 26.1026 19.8199 26.16 20.5549 26.16V24.16ZM18.6613 24.012C18.0013 23.9089 17.0482 23.7311 15.7942 23.4761L15.3956 25.4359C16.6588 25.6929 17.6471 25.8778 18.3525 25.988L18.6613 24.012ZM14.6172 24.2458L10.2012 44.7898L12.1565 45.2102L16.5725 24.6662L14.6172 24.2458ZM11.1789 44H6.57088V46H11.1789V44ZM7.54863 45.2097L12.0926 24.0257L10.1371 23.6063L5.59312 44.7903L7.54863 45.2097ZM18.6491 43.976L17.9132 44.6531L17.9205 44.6609L18.6491 43.976ZM17.8811 36.488L16.9585 36.1022L16.955 36.1107L17.8811 36.488ZM23.0971 31.656L23.3397 32.6261L25.449 32.0988L23.6759 30.8405L23.0971 31.656ZM21.6251 29.96L20.7196 30.3845L20.725 30.3956L21.6251 29.96ZM22.0411 24.552L21.1761 24.0503L21.1723 24.0568L21.1686 24.0634L22.0411 24.552ZM24.5691 21.96L25.0961 22.8099L25.1006 22.8071L24.5691 21.96ZM31.4491 21.992L30.8127 22.7634L30.8127 22.7634L31.4491 21.992ZM32.0251 27.304L31.2187 26.7126L31.2187 26.7126L32.0251 27.304ZM28.8571 27.4L28.5409 26.4513L27.2329 26.8873L28.0536 27.9952L28.8571 27.4ZM29.8491 26.344L30.7501 26.7778L30.7501 26.7778L29.8491 26.344ZM29.7531 23.272L29.0946 24.0246L29.1084 24.0366L29.1225 24.0481L29.7531 23.272ZM26.8091 23.496L27.4653 24.2506L27.4676 24.2486L26.8091 23.496ZM25.6571 25.192L26.5836 25.5684L26.5875 25.5585L25.6571 25.192ZM26.0411 30.056L25.2125 30.6159L25.2198 30.6264L26.0411 30.056ZM28.4731 31.624L28.684 32.6015L28.7201 30.655L28.4731 31.624ZM25.5291 33.224L24.8399 32.4994L24.8399 32.4994L25.5291 33.224ZM23.4811 36.136L24.3927 36.5471L24.3957 36.5405L23.4811 36.136ZM23.4811 41.608L22.7084 42.2427L22.715 42.2508L22.7219 42.2588L23.4811 41.608ZM29.1131 41.64L29.5604 42.5345L29.5668 42.5312L29.1131 41.64ZM31.7051 39.24L32.1039 38.3229L31.2701 37.9605L30.8301 38.7559L31.7051 39.24ZM32.4411 39.56L33.3519 39.973L33.7714 39.0479L32.8399 38.6429L32.4411 39.56ZM28.6011 43.944L29.1339 44.7902L29.1339 44.7902L28.6011 43.944ZM23.0651 44.576C21.3057 44.576 20.1354 44.0971 19.3778 43.2911L17.9205 44.6609C19.1682 45.9882 20.9419 46.576 23.0651 46.576V44.576ZM19.3851 43.2989C18.5941 42.4392 18.1771 41.3466 18.1771 39.944H16.1771C16.1771 41.784 16.7415 43.3795 17.9132 44.6531L19.3851 43.2989ZM18.1771 39.944C18.1771 38.9314 18.3828 37.9071 18.8072 36.8653L16.955 36.1107C16.4408 37.3729 16.1771 38.6526 16.1771 39.944H18.1771ZM18.8037 36.8738C19.2434 35.8223 19.8613 34.911 20.6597 34.1316L19.2626 32.7004C18.269 33.6704 17.5002 34.807 16.9585 36.1022L18.8037 36.8738ZM20.6597 34.1316C21.4311 33.3785 22.3199 32.8811 23.3397 32.6261L22.8546 30.6859C21.485 31.0282 20.2831 31.7042 19.2626 32.7004L20.6597 34.1316ZM23.6759 30.8405C23.1374 30.4584 22.7645 30.0187 22.5253 29.5244L20.725 30.3956C21.1258 31.2239 21.7342 31.915 22.5184 32.4715L23.6759 30.8405ZM22.5306 29.5356C22.2722 28.9844 22.1451 28.4145 22.1451 27.816H20.1451C20.1451 28.7108 20.338 29.5703 20.7197 30.3844L22.5306 29.5356ZM22.1451 27.816C22.1451 26.8948 22.3912 25.9736 22.9136 25.0406L21.1686 24.0634C20.4964 25.2637 20.1451 26.5185 20.1451 27.816H22.1451ZM22.9062 25.0537C23.4409 24.1317 24.1664 23.3863 25.0961 22.8099L24.0422 21.1101C22.8385 21.8564 21.8787 22.8389 21.1761 24.0503L22.9062 25.0537ZM25.1006 22.8071C26.0272 22.2257 27.0372 21.936 28.1531 21.936V19.936C26.6664 19.936 25.2871 20.329 24.0376 21.1129L25.1006 22.8071ZM28.1531 21.936C29.3166 21.936 30.1748 22.2371 30.8127 22.7634L32.0855 21.2206C31.0168 20.3389 29.6776 19.936 28.1531 19.936V21.936ZM30.8127 22.7634C31.4024 23.2498 31.7291 23.9296 31.7291 24.936H33.7291C33.7291 23.425 33.2025 22.1422 32.0855 21.2206L30.8127 22.7634ZM31.7291 24.936C31.7291 25.702 31.5405 26.2738 31.2187 26.7126L32.8315 27.8954C33.4484 27.0541 33.7291 26.0473 33.7291 24.936H31.7291ZM31.2187 26.7126C30.8873 27.1646 30.6059 27.264 30.3611 27.264V29.264C31.3964 29.264 32.2243 28.7234 32.8315 27.8954L31.2187 26.7126ZM30.3611 27.264C30.1793 27.264 29.9501 27.1955 29.6607 26.8048L28.0536 27.9952C28.6175 28.7565 29.3909 29.264 30.3611 29.264V27.264ZM29.1734 28.3487C29.9292 28.0967 30.4216 27.4602 30.7501 26.7778L28.9481 25.9102C28.722 26.3798 28.553 26.4473 28.5409 26.4513L29.1734 28.3487ZM30.7501 26.7778C31.0854 26.0815 31.2651 25.358 31.2651 24.616H29.2651C29.2651 25.026 29.1675 25.4545 28.9481 25.9102L30.7501 26.7778ZM31.2651 24.616C31.2651 23.8246 31.0429 23.0315 30.3837 22.4959L29.1225 24.0481C29.146 24.0672 29.2651 24.1701 29.2651 24.616H31.2651ZM30.4116 22.5194C29.8725 22.0477 29.2166 21.824 28.5051 21.824V23.824C28.775 23.824 28.9511 23.899 29.0946 24.0246L30.4116 22.5194ZM28.5051 21.824C27.6194 21.824 26.8253 22.153 26.1506 22.7434L27.4676 24.2486C27.8169 23.943 28.1535 23.824 28.5051 23.824V21.824ZM26.1529 22.7414C25.5226 23.2895 25.0533 23.9965 24.7267 24.8255L26.5875 25.5585C26.8156 24.9795 27.1143 24.5558 27.4653 24.2506L26.1529 22.7414ZM24.7307 24.8156C24.4041 25.6195 24.2411 26.4621 24.2411 27.336H26.2411C26.2411 26.7166 26.3555 26.1299 26.5836 25.5684L24.7307 24.8156ZM24.2411 27.336C24.2411 28.5438 24.559 29.6486 25.2125 30.6159L26.8697 29.4961C26.4566 28.8847 26.2411 28.1762 26.2411 27.336H24.2411ZM25.2198 30.6264C25.9167 31.63 26.954 32.2687 28.2261 32.593L28.7201 30.655C27.8162 30.4246 27.2322 30.018 26.8625 29.4856L25.2198 30.6264ZM28.2623 30.6465C26.9795 30.9232 25.8361 31.5519 24.8399 32.4994L26.2183 33.9486C26.9715 33.2321 27.7908 32.7942 28.684 32.6015L28.2623 30.6465ZM24.8399 32.4994C23.8693 33.4227 23.1103 34.5023 22.5666 35.7315L24.3957 36.5405C24.8333 35.5511 25.4396 34.6893 26.2183 33.9486L24.8399 32.4994ZM22.5695 35.7249C22.0315 36.9179 21.7451 38.1032 21.7451 39.272H23.7451C23.7451 38.4355 23.9494 37.5301 24.3927 36.5471L22.5695 35.7249ZM21.7451 39.272C21.7451 40.4059 22.038 41.4265 22.7084 42.2427L24.2539 40.9733C23.943 40.5948 23.7451 40.0581 23.7451 39.272H21.7451ZM22.7219 42.2588C23.4775 43.1404 24.5633 43.504 25.7851 43.504V41.504C24.959 41.504 24.5087 41.2703 24.2404 40.9572L22.7219 42.2588ZM25.7851 43.504C27.036 43.504 28.2979 43.1656 29.5603 42.5344L28.6659 40.7456C27.6243 41.2664 26.6676 41.504 25.7851 41.504V43.504ZM29.5668 42.5312C30.8908 41.8571 31.915 40.9265 32.5802 39.7241L30.8301 38.7559C30.3859 39.5589 29.6821 40.2282 28.6594 40.7488L29.5668 42.5312ZM31.3064 40.1571L32.0424 40.4771L32.8399 38.6429L32.1039 38.3229L31.3064 40.1571ZM31.5304 39.147C30.7804 40.8008 29.6331 42.1126 28.0683 43.0978L29.1339 44.7902C31.0252 43.5994 32.4378 41.9885 33.3519 39.973L31.5304 39.147ZM28.0683 43.0978C26.4931 44.0896 24.8314 44.576 23.0651 44.576V46.576C25.2242 46.576 27.2532 45.9744 29.1339 44.7902L28.0683 43.0978ZM33.9446 43.688L34.677 43.0071L34.677 43.0071L33.9446 43.688ZM33.3686 30.408L32.4101 30.1228L32.408 30.1301L33.3686 30.408ZM37.0166 23.784L36.2763 23.1117L36.2759 23.1122L37.0166 23.784ZM47.2886 22.056L46.7057 22.8685L46.7057 22.8685L47.2886 22.056ZM48.2166 27.464L49.0327 28.042L49.0382 28.0342L49.0436 28.0263L48.2166 27.464ZM44.6966 27.4L44.2494 26.5056L43.1377 27.0614L43.9187 28.0283L44.6966 27.4ZM45.6886 23.048L44.9167 23.6837L44.9275 23.6969L44.9388 23.7096L45.6886 23.048ZM40.9846 24.84L41.8167 25.3947L41.8202 25.3894L40.9846 24.84ZM38.4886 30.664L37.5238 30.4009L37.5217 30.4091L38.4886 30.664ZM38.3926 41.16L37.5542 41.705L37.5542 41.705L38.3926 41.16ZM44.8886 41.608L45.35 42.4952L45.35 42.4952L44.8886 41.608ZM47.6406 39.24L48.0394 38.3229L47.3147 38.0079L46.8406 38.64L47.6406 39.24ZM48.3766 39.56L49.3061 39.9288L49.6632 39.029L48.7754 38.6429L48.3766 39.56ZM46.0086 42.92L46.6594 43.6793L46.6594 43.6793L46.0086 42.92ZM42.6486 44.904L42.9699 45.851L42.9775 45.8484L42.985 45.8457L42.6486 44.904ZM39.2566 44.512C36.9967 44.512 35.5465 43.9422 34.677 43.0071L33.2123 44.3689C34.6041 45.8658 36.6952 46.512 39.2566 46.512V44.512ZM34.677 43.0071C33.8041 42.0684 33.2486 40.3666 33.2486 37.64H31.2486C31.2486 40.5454 31.8238 42.8756 33.2123 44.3689L34.677 43.0071ZM33.2486 37.64C33.2486 35.5105 33.6037 33.1943 34.3292 30.6859L32.408 30.1301C31.6402 32.7844 31.2486 35.2895 31.2486 37.64H33.2486ZM34.3271 30.6932C35.0562 28.2427 36.2025 26.1701 37.7573 24.4558L36.2759 23.1122C34.5027 25.0672 33.2171 27.4107 32.4101 30.1228L34.3271 30.6932ZM37.757 24.4562C39.2465 22.8159 41.1077 22 43.4166 22V20C40.5628 20 38.1575 21.0401 36.2763 23.1117L37.757 24.4562ZM43.4166 22C44.8748 22 45.9418 22.3205 46.7057 22.8685L47.8715 21.2435C46.6728 20.3835 45.1585 20 43.4166 20V22ZM46.7057 22.8685C47.3708 23.3456 47.7606 24.0861 47.7606 25.288H49.7606C49.7606 23.5885 49.1691 22.1744 47.8715 21.2435L46.7057 22.8685ZM47.7606 25.288C47.7606 26.086 47.6012 26.5906 47.3897 26.9017L49.0436 28.0263C49.5574 27.2707 49.7606 26.3246 49.7606 25.288H47.7606ZM47.4006 26.886C47.2683 27.0728 47.0463 27.232 46.5206 27.232V29.232C47.531 29.232 48.4396 28.8792 49.0327 28.042L47.4006 26.886ZM46.5206 27.232C46.0281 27.232 45.7165 27.0713 45.4746 26.7717L43.9187 28.0283C44.5727 28.8381 45.4772 29.232 46.5206 29.232V27.232ZM45.1438 28.2944C45.7913 27.9707 46.2594 27.3814 46.6084 26.7083L44.8329 25.7877C44.5845 26.2666 44.37 26.4453 44.2494 26.5056L45.1438 28.2944ZM46.6084 26.7083C46.9771 25.9972 47.1686 25.2427 47.1686 24.456H45.1686C45.1686 24.9066 45.0615 25.3468 44.8329 25.7877L46.6084 26.7083ZM47.1686 24.456C47.1686 23.6853 46.9494 22.9654 46.4385 22.3864L44.9388 23.7096C45.0679 23.8559 45.1686 24.0747 45.1686 24.456H47.1686ZM46.4606 22.4123C45.898 21.7292 45.0583 21.504 44.2166 21.504V23.504C44.7403 23.504 44.8819 23.6414 44.9167 23.6837L46.4606 22.4123ZM44.2166 21.504C42.5752 21.504 41.2358 22.6379 40.1491 24.2906L41.8202 25.3894C42.7815 23.9274 43.5967 23.504 44.2166 23.504V21.504ZM40.1526 24.2853C39.0534 25.934 38.1837 27.9815 37.5239 30.4009L39.4534 30.9271C40.0736 28.6532 40.8678 26.818 41.8167 25.3947L40.1526 24.2853ZM37.5217 30.4091C36.8836 32.8295 36.5606 35.1767 36.5606 37.448H38.5606C38.5606 35.3673 38.8564 33.1918 39.4556 30.9189L37.5217 30.4091ZM36.5606 37.448C36.5606 39.158 36.8487 40.6196 37.5542 41.705L39.2311 40.615C38.8272 39.9938 38.5606 38.9807 38.5606 37.448H36.5606ZM37.5542 41.705C38.3648 42.9521 39.7678 43.44 41.4006 43.44V41.44C40.1321 41.44 39.5298 41.0746 39.2311 40.615L37.5542 41.705ZM41.4006 43.44C42.8121 43.44 44.1341 43.1275 45.35 42.4952L44.4273 40.7208C43.5098 41.1978 42.5065 41.44 41.4006 41.44V43.44ZM45.35 42.4952C46.5581 41.867 47.5886 40.976 48.4406 39.84L46.8406 38.64C46.1566 39.552 45.3524 40.2397 44.4273 40.7208L45.35 42.4952ZM47.2419 40.1571L47.9779 40.4771L48.7754 38.6429L48.0394 38.3229L47.2419 40.1571ZM47.4471 39.1912C46.9705 40.3922 46.2737 41.3757 45.3578 42.1607L46.6594 43.6793C47.8342 42.6723 48.716 41.4158 49.3061 39.9288L47.4471 39.1912ZM45.3578 42.1607C44.3973 42.984 43.3824 43.5801 42.3123 43.9623L42.985 45.8457C44.3042 45.3746 45.5292 44.648 46.6594 43.6793L45.3578 42.1607ZM42.3273 43.957C41.2177 44.3335 40.1961 44.512 39.2566 44.512V46.512C40.4505 46.512 41.6902 46.2852 42.9699 45.851L42.3273 43.957ZM55.3869 23.24L56.3649 23.4485L56.7631 21.581L55.0013 22.3173L55.3869 23.24ZM52.0589 25.928L51.2245 25.3767L51.2177 25.3872L52.0589 25.928ZM51.1309 31.912L50.2247 32.3349L50.2304 32.3471L50.2364 32.3592L51.1309 31.912ZM51.3549 32.424V33.424H52.3549V32.424H51.3549ZM48.7629 31.72L48.1003 32.469L48.1155 32.4824L48.1312 32.4952L48.7629 31.72ZM49.5949 25.352L48.84 24.6961L48.8392 24.6971L49.5949 25.352ZM53.9149 22.216L54.3262 23.1276L54.3353 23.1233L53.9149 22.216ZM60.4429 21.064L61.4206 21.274L61.661 20.1547L60.5196 20.0669L60.4429 21.064ZM58.3949 30.6L57.4172 30.39L57.1573 31.6H58.3949V30.6ZM63.0989 30.6V31.6H63.9069L64.0766 30.81L63.0989 30.6ZM65.1469 21.064V20.064H64.3388L64.1692 20.854L65.1469 21.064ZM69.7549 21.064L70.733 21.2719L70.9898 20.064H69.7549V21.064ZM64.6669 45V46H65.4767L65.645 45.2079L64.6669 45ZM60.0589 45L59.0808 44.7919L58.8237 46H60.0589V45ZM62.6189 32.968L63.597 33.1761L63.854 31.968H62.6189V32.968ZM57.9149 32.968V31.968H57.1053L56.9368 32.7599L57.9149 32.968ZM55.3549 45V46H56.1645L56.333 45.2081L55.3549 45ZM50.7469 45L49.7689 44.7915L49.5112 46H50.7469V45ZM55.0013 22.3173C53.4045 22.9846 52.1323 24.0028 51.2245 25.3767L52.8932 26.4793C53.5641 25.4638 54.5106 24.69 55.7725 24.1627L55.0013 22.3173ZM51.2177 25.3872C50.328 26.7713 49.9069 28.4072 49.9069 30.248H51.9069C51.9069 28.7181 52.2538 27.4741 52.9001 26.4688L51.2177 25.3872ZM49.9069 30.248C49.9069 31.0462 49.9741 31.7979 50.2247 32.3349L52.0371 31.4891C51.989 31.3861 51.9069 31.0284 51.9069 30.248H49.9069ZM50.2364 32.3592C50.3084 32.5032 50.3556 32.6028 50.3827 32.6648C50.3968 32.6971 50.3996 32.7058 50.397 32.6983C50.3958 32.6948 50.3889 32.6751 50.3812 32.6445C50.3773 32.6287 50.3715 32.6036 50.3664 32.5716C50.3617 32.5418 50.3549 32.4899 50.3549 32.424H52.3549C52.3549 32.2207 52.2893 32.0507 52.2847 32.0376C52.2635 31.9769 52.2383 31.9163 52.215 31.8632C52.1675 31.7546 52.1027 31.6195 52.0253 31.4648L50.2364 32.3592ZM51.3549 31.424C50.313 31.424 49.7172 31.2076 49.3945 30.9448L48.1312 32.4952C48.9606 33.171 50.0928 33.424 51.3549 33.424V31.424ZM49.4254 30.971C49.1736 30.7482 48.9309 30.2867 48.9309 29.32H46.9309C46.9309 30.572 47.2428 31.7105 48.1003 32.469L49.4254 30.971ZM48.9309 29.32C48.9309 28.2492 49.3595 27.1505 50.3506 26.0069L48.8392 24.6971C47.6116 26.1135 46.9309 27.6602 46.9309 29.32H48.9309ZM50.3497 26.0079C51.3755 24.8273 52.6935 23.8642 54.3262 23.1275L53.5036 21.3045C51.6376 22.1465 50.0756 23.274 48.84 24.6961L50.3497 26.0079ZM54.3353 23.1233C55.9665 22.3674 57.573 22 59.1629 22V20C57.254 20 55.3619 20.4433 53.4944 21.3087L54.3353 23.1233ZM59.1629 22C59.4228 22 59.8193 22.019 60.3662 22.0611L60.5196 20.0669C59.9571 20.0237 59.5003 20 59.1629 20V22ZM59.4652 20.854L57.4172 30.39L59.3726 30.81L61.4206 21.274L59.4652 20.854ZM58.3949 31.6H63.0989V29.6H58.3949V31.6ZM64.0766 30.81L66.1246 21.274L64.1692 20.854L62.1212 30.39L64.0766 30.81ZM65.1469 22.064H69.7549V20.064H65.1469V22.064ZM68.7767 20.8561L63.6887 44.7921L65.645 45.2079L70.733 21.2719L68.7767 20.8561ZM64.6669 44H60.0589V46H64.6669V44ZM61.037 45.2081L63.597 33.1761L61.6408 32.7599L59.0808 44.7919L61.037 45.2081ZM62.6189 31.968H57.9149V33.968H62.6189V31.968ZM56.9368 32.7599L54.3768 44.7919L56.333 45.2081L58.893 33.1761L56.9368 32.7599ZM55.3549 44H50.7469V46H55.3549V44ZM51.7249 45.2085L56.3649 23.4485L54.4089 23.0315L49.7689 44.7915L51.7249 45.2085ZM73.1161 44.872L72.6995 45.7811L72.6995 45.7811L73.1161 44.872ZM70.7481 42.92L69.9096 43.465L69.9161 43.4747L70.7481 42.92ZM70.4921 37.416L69.6077 36.9492L69.6026 36.959L69.5977 36.9688L70.4921 37.416ZM72.0921 35.592L71.5435 34.756L71.5373 34.76L71.5313 34.7641L72.0921 35.592ZM76.2201 35.496L75.6201 36.296L75.631 36.3042L75.6421 36.312L76.2201 35.496ZM77.1801 37.032V38.032H78.3922L78.1619 36.842L77.1801 37.032ZM74.5241 37.928L75.1809 38.6821L75.1877 38.6762L75.1944 38.6701L74.5241 37.928ZM79.3561 42.216L78.6391 41.5189L78.6388 41.5192L79.3561 42.216ZM79.6441 36.488L80.4944 35.9616L80.4944 35.9616L79.6441 36.488ZM77.1481 33.224L77.9038 32.5691L77.9022 32.5672L77.1481 33.224ZM74.5241 29.832L73.6666 30.3465L73.6734 30.3578L73.6805 30.3689L74.5241 29.832ZM74.5881 23.72L75.4046 24.2975L75.411 24.2882L74.5881 23.72ZM77.1481 21.608L77.5739 22.5128L77.5739 22.5128L77.1481 21.608ZM84.9561 22.056L84.3354 22.8401L84.3433 22.8462L84.9561 22.056ZM85.8521 27.496L85.0742 26.8677L85.0742 26.8677L85.8521 27.496ZM82.1401 27.336L81.5469 26.5309L80.7392 27.1261L81.337 27.9318L82.1401 27.336ZM83.1001 26.152L82.198 25.7205L82.198 25.7205L83.1001 26.152ZM79.0681 23.304L78.3236 22.6365L78.3222 22.638L79.0681 23.304ZM79.0041 28.008L78.1683 28.5572L78.1758 28.5683L79.0041 28.008ZM81.3081 30.824L80.5675 31.496L80.5759 31.5051L81.3081 30.824ZM83.3561 33.192L82.5654 33.8042L82.5715 33.812L82.5777 33.8198L83.3561 33.192ZM84.7001 35.496L83.7764 35.879L83.7821 35.8928L83.7882 35.9064L84.7001 35.496ZM84.1241 41.992L83.3019 41.4227L83.2945 41.4336L84.1241 41.992ZM81.0201 44.616L80.5846 43.7158L80.5788 43.7187L81.0201 44.616ZM76.6681 44.576C75.4406 44.576 74.4033 44.3619 73.5328 43.9629L72.6995 45.7811C73.877 46.3208 75.2077 46.576 76.6681 46.576V44.576ZM73.5328 43.9629C72.6555 43.5609 72.0193 43.024 71.5802 42.3653L69.9161 43.4747C70.5862 44.48 71.5287 45.2445 72.6995 45.7811L73.5328 43.9629ZM71.5866 42.375C71.1468 41.6984 70.9161 40.91 70.9161 39.976H68.9161C68.9161 41.2607 69.2401 42.4349 69.9097 43.465L71.5866 42.375ZM70.9161 39.976C70.9161 39.1779 71.0783 38.4798 71.3866 37.8632L69.5977 36.9688C69.138 37.8882 68.9161 38.8968 68.9161 39.976H70.9161ZM71.3765 37.8828C71.7121 37.2469 72.1391 36.768 72.653 36.4199L71.5313 34.7641C70.7225 35.312 70.0828 36.0491 69.6077 36.9492L71.3765 37.8828ZM72.6408 36.428C73.1617 36.0862 73.7179 35.92 74.3321 35.92V33.92C73.325 33.92 72.3879 34.2018 71.5435 34.756L72.6408 36.428ZM74.3321 35.92C74.8998 35.92 75.3089 36.0626 75.6201 36.296L76.8201 34.696C76.1073 34.1614 75.2578 33.92 74.3321 33.92V35.92ZM75.6421 36.312C75.9275 36.5142 76.1153 36.7931 76.1983 37.222L78.1619 36.842C77.9889 35.9482 77.5367 35.2031 76.7981 34.68L75.6421 36.312ZM77.1801 36.032C75.8863 36.032 74.741 36.3846 73.8538 37.1859L75.1944 38.6701C75.6299 38.2767 76.2553 38.032 77.1801 38.032V36.032ZM73.8673 37.1739C72.9555 37.9681 72.5321 39.0502 72.5321 40.296H74.5321C74.5321 39.5365 74.7701 39.0399 75.1809 38.6821L73.8673 37.1739ZM72.5321 40.296C72.5321 41.4301 72.8831 42.4372 73.657 43.2111L75.0712 41.7969C74.7358 41.4615 74.5321 40.9966 74.5321 40.296H72.5321ZM73.657 43.2111C74.4309 43.985 75.4381 44.336 76.5721 44.336V42.336C75.8715 42.336 75.4067 42.1323 75.0712 41.7969L73.657 43.2111ZM76.5721 44.336C77.9472 44.336 79.1425 43.871 80.0734 42.9128L78.6388 41.5192C78.1191 42.0543 77.4583 42.336 76.5721 42.336V44.336ZM80.0731 42.9131C81.0158 41.9435 81.4761 40.7267 81.4761 39.336H79.4761C79.4761 40.2493 79.1898 40.9525 78.6391 41.5189L80.0731 42.9131ZM81.4761 39.336C81.4761 38.1377 81.1417 37.0073 80.4944 35.9616L78.7939 37.0144C79.2559 37.7607 79.4761 38.529 79.4761 39.336H81.4761ZM80.4944 35.9616C79.9001 35.0016 79.0298 33.8683 77.9038 32.5691L76.3924 33.8789C77.4851 35.1397 78.2788 36.1824 78.7939 37.0144L80.4944 35.9616ZM77.9022 32.5672C76.7666 31.2634 75.9276 30.1748 75.3678 29.2951L73.6805 30.3689C74.3153 31.3665 75.2256 32.5393 76.394 33.8808L77.9022 32.5672ZM75.3816 29.3175C74.8998 28.5145 74.6601 27.6473 74.6601 26.696H72.6601C72.6601 28.006 72.9964 29.2295 73.6666 30.3465L75.3816 29.3175ZM74.6601 26.696C74.6601 25.7857 74.9098 24.997 75.4045 24.2975L73.7717 23.1425C73.0292 24.1923 72.6601 25.3876 72.6601 26.696H74.6601ZM75.411 24.2882C75.9191 23.5523 76.6286 22.9577 77.5739 22.5128L76.7223 20.7032C75.4917 21.2823 74.4944 22.0957 73.7652 23.1518L75.411 24.2882ZM77.5739 22.5128C78.5118 22.0715 79.59 21.84 80.8281 21.84V19.84C79.3356 19.84 77.9605 20.1205 76.7223 20.7032L77.5739 22.5128ZM80.8281 21.84C82.4038 21.84 83.5379 22.2086 84.3354 22.84L85.5768 21.272C84.3264 20.282 82.7085 19.84 80.8281 19.84V21.84ZM84.3433 22.8462C85.1354 23.4605 85.5241 24.2522 85.5241 25.32H87.5241C87.5241 23.6572 86.8675 22.2729 85.5689 21.2658L84.3433 22.8462ZM85.5241 25.32C85.5241 26.0474 85.3448 26.5326 85.0742 26.8677L86.6301 28.1243C87.2554 27.3501 87.5241 26.3846 87.5241 25.32H85.5241ZM85.0742 26.8677C84.8198 27.1826 84.5214 27.328 84.0921 27.328V29.328C85.1135 29.328 85.9884 28.9187 86.6301 28.1243L85.0742 26.8677ZM84.0921 27.328C83.6039 27.328 83.2488 27.152 82.9432 26.7402L81.337 27.9318C82.0128 28.8427 82.959 29.328 84.0921 29.328V27.328ZM82.7333 28.1411C83.2812 27.7374 83.7026 27.2099 84.0023 26.5835L82.198 25.7205C82.0283 26.0754 81.8097 26.3373 81.5469 26.5309L82.7333 28.1411ZM84.0023 26.5835C84.3 25.9608 84.4521 25.3017 84.4521 24.616H82.4521C82.4521 24.997 82.3696 25.3618 82.198 25.7205L84.0023 26.5835ZM84.4521 24.616C84.4521 23.7224 84.1793 22.905 83.5512 22.2769L82.137 23.6911C82.3196 23.8737 82.4521 24.1442 82.4521 24.616H84.4521ZM83.5512 22.2769C82.9173 21.643 82.0851 21.376 81.1801 21.376V23.376C81.6832 23.376 81.9603 23.5143 82.137 23.6911L83.5512 22.2769ZM81.1801 21.376C80.0514 21.376 79.0737 21.7998 78.3236 22.6365L79.8127 23.9715C80.1719 23.5709 80.6022 23.376 81.1801 23.376V21.376ZM78.3222 22.638C77.5976 23.4495 77.2681 24.4685 77.2681 25.608H79.2681C79.2681 24.8702 79.4719 24.3532 79.8141 23.97L78.3222 22.638ZM77.2681 25.608C77.2681 26.666 77.5759 27.6555 78.1684 28.5572L79.8398 27.4588C79.451 26.8672 79.2681 26.2567 79.2681 25.608H77.2681ZM78.1758 28.5683C78.7059 29.3519 79.5108 30.3313 80.5676 31.496L82.0487 30.152C81.0148 29.0127 80.2837 28.1148 79.8324 27.4477L78.1758 28.5683ZM80.5759 31.5051C81.4178 32.4101 82.0785 33.1753 82.5654 33.8042L84.1468 32.5798C83.6097 31.8861 82.9052 31.0726 82.0403 30.1429L80.5759 31.5051ZM82.5777 33.8198C83.0448 34.3989 83.4461 35.0825 83.7764 35.879L85.6239 35.113C85.2288 34.1602 84.7341 33.3078 84.1345 32.5642L82.5777 33.8198ZM83.7882 35.9064C84.1101 36.6216 84.2761 37.4085 84.2761 38.28H86.2761C86.2761 37.1461 86.0582 36.077 85.612 35.0856L83.7882 35.9064ZM84.2761 38.28C84.2761 39.4445 83.9527 40.4828 83.3019 41.4228L84.9463 42.5612C85.8316 41.2825 86.2761 39.8461 86.2761 38.28H84.2761ZM83.2945 41.4336C82.6562 42.3819 81.7642 43.1451 80.5846 43.7158L81.4557 45.5162C82.9214 44.8069 84.0987 43.8207 84.9537 42.5504L83.2945 41.4336ZM80.5788 43.7187C79.4285 44.2844 78.1311 44.576 76.6681 44.576V46.576C78.4051 46.576 80.0091 46.2276 81.4614 45.5133L80.5788 43.7187ZM101.254 48.072L101.816 47.2451L101.805 47.2372L101.793 47.2297L101.254 48.072ZM100.038 46.76L99.1437 47.2072L99.1472 47.2143L99.1509 47.2214L100.038 46.76ZM99.2381 44.744L100.187 44.4278L99.8769 43.498L98.9411 43.7891L99.2381 44.744ZM92.0381 43.656L91.3236 44.3557L91.331 44.3631L92.0381 43.656ZM91.5581 32.36L92.519 32.637L91.5581 32.36ZM94.5341 26.28L93.7474 25.6626L93.7426 25.6688L94.5341 26.28ZM100.87 24.008L101.379 24.8689L103.202 23.7918L101.212 23.0682L100.87 24.008ZM98.1501 27.432L97.2579 26.9804L97.2535 26.9892L98.1501 27.432ZM96.0701 33.224L95.1 32.9815L95.1 32.9815L96.0701 33.224ZM95.3341 40.264L94.364 40.5065L94.6065 41.4767L95.5767 41.2341L95.3341 40.264ZM99.8781 40.84L99.2673 41.6318L100.058 42.2421L100.669 41.4514L99.8781 40.84ZM102.662 35.112L103.615 35.4156L103.616 35.4131L102.662 35.112ZM103.462 24.904L102.495 25.1585L102.499 25.1738L102.504 25.189L103.462 24.904ZM102.246 23.08L102.808 22.2525L102.808 22.2525L102.246 23.08ZM95.1421 23.496L95.5673 24.4012L95.5784 24.3958L95.1421 23.496ZM91.7501 26.376L90.9224 25.8148L90.9203 25.818L91.7501 26.376ZM90.6621 31.976L89.7288 32.335L89.7337 32.3479L89.739 32.3606L90.6621 31.976ZM90.8221 32.424V33.424H91.8221V32.424H90.8221ZM88.3901 31.784L87.7654 32.5649L87.7729 32.5708L87.7804 32.5766L88.3901 31.784ZM89.3821 25.512L88.6406 24.8411L88.6347 24.8476L89.3821 25.512ZM94.1821 22.248L93.7989 21.3243L93.7954 21.3258L94.1821 22.248ZM107.398 34.28L108.368 34.5225L108.369 34.5198L107.398 34.28ZM105.35 39.4L106.22 39.8924L106.22 39.8924L105.35 39.4ZM101.958 43.336L101.36 42.5345L100.6 43.1016L101.126 43.8907L101.958 43.336ZM103.686 45.256L104.286 44.456L104.286 44.456L103.686 45.256ZM106.662 45.864L107.594 46.2255L108.2 44.664L106.538 44.8717L106.662 45.864ZM105.254 48.008L104.67 47.1965L104.651 47.2098L104.633 47.224L105.254 48.008ZM98.3421 42.248L98.9087 43.072L99.6765 42.5441L99.2041 41.741L98.3421 42.248ZM95.5901 41.288L95.296 40.3322L94.3106 40.6354L94.6438 41.6111L95.5901 41.288ZM103.366 47.616C102.622 47.616 102.134 47.4613 101.816 47.2451L100.692 48.8989C101.441 49.4081 102.361 49.616 103.366 49.616V47.616ZM101.793 47.2297C101.399 46.9775 101.118 46.6683 100.925 46.2986L99.1509 47.2214C99.5133 47.9183 100.043 48.4838 100.715 48.9143L101.793 47.2297ZM100.933 46.3128C100.706 45.8591 100.456 45.2358 100.187 44.4278L98.2894 45.0602C98.5748 45.9162 98.8585 46.6369 99.1437 47.2072L100.933 46.3128ZM98.9411 43.7891C98.079 44.0573 97.1873 44.192 96.2621 44.192V46.192C97.385 46.192 98.4772 46.028 99.5352 45.6989L98.9411 43.7891ZM96.2621 44.192C94.6686 44.192 93.5393 43.7429 92.7452 42.9489L91.331 44.3631C92.585 45.6171 94.2716 46.192 96.2621 46.192V44.192ZM92.7526 42.9564C92.0131 42.2011 91.5341 40.8811 91.5341 38.76H89.5341C89.5341 41.1189 90.0579 43.0629 91.3236 44.3556L92.7526 42.9564ZM91.5341 38.76C91.5341 36.9781 91.855 34.9402 92.519 32.637L90.5973 32.083C89.8959 34.5158 89.5341 36.7446 89.5341 38.76H91.5341ZM92.519 32.637C93.1722 30.3713 94.1124 28.4624 95.3256 26.8912L93.7426 25.6688C92.3532 27.4683 91.3094 29.6127 90.5973 32.083L92.519 32.637ZM95.3208 26.8974C96.4953 25.4009 97.7825 24.752 99.2061 24.752V22.752C97.0458 22.752 95.2183 23.7885 93.7475 25.6626L95.3208 26.8974ZM99.2061 24.752C99.7608 24.752 100.195 24.8264 100.528 24.9478L101.212 23.0682C100.607 22.8483 99.9314 22.752 99.2061 22.752V24.752ZM100.361 23.1471C99.1747 23.8483 98.1605 25.1972 97.2579 26.9804L99.0423 27.8836C99.8891 26.2108 100.688 25.277 101.379 24.8689L100.361 23.1471ZM97.2535 26.9892C96.3645 28.7894 95.6482 30.7884 95.1 32.9815L97.0403 33.4665C97.5587 31.3929 98.2291 29.5306 99.0468 27.8748L97.2535 26.9892ZM95.1 32.9815C94.553 35.1692 94.2701 37.1414 94.2701 38.888H96.2701C96.2701 37.3493 96.5205 35.5455 97.0403 33.4665L95.1 32.9815ZM94.2701 38.888V39.464H96.2701V38.888H94.2701ZM94.2701 39.464C94.2701 39.8412 94.29 40.2106 94.364 40.5065L96.3043 40.0215C96.2929 39.9761 96.2701 39.8121 96.2701 39.464H94.2701ZM95.5767 41.2341C96.2961 41.0543 96.8718 40.976 97.3181 40.976V38.976C96.6552 38.976 95.9082 39.0897 95.0916 39.2939L95.5767 41.2341ZM97.3181 40.976C98.0614 40.976 98.699 41.1934 99.2673 41.6318L100.489 40.0482C99.5639 39.3346 98.4948 38.976 97.3181 38.976V40.976ZM100.669 41.4514C101.852 39.921 102.825 37.8944 103.615 35.4156L101.709 34.8084C100.963 37.1509 100.08 38.943 99.0868 40.2286L100.669 41.4514ZM103.616 35.4131C104.411 32.896 104.814 30.4476 104.814 28.072H102.814C102.814 30.2191 102.45 32.464 101.709 34.8109L103.616 35.4131ZM104.814 28.072C104.814 26.7037 104.694 25.5395 104.421 24.619L102.504 25.189C102.699 25.8472 102.814 26.795 102.814 28.072H104.814ZM104.429 24.6495C104.165 23.645 103.637 22.8151 102.808 22.2525L101.685 23.9075C102.05 24.1556 102.333 24.5416 102.495 25.1585L104.429 24.6495ZM102.808 22.2525C101.98 21.6911 100.911 21.472 99.7181 21.472V23.472C100.701 23.472 101.317 23.6582 101.685 23.9075L102.808 22.2525ZM99.7181 21.472C97.9321 21.472 96.2566 21.8443 94.7059 22.5962L95.5784 24.3958C96.8436 23.7824 98.2189 23.472 99.7181 23.472V21.472ZM94.717 22.5909C93.1503 23.3268 91.879 24.4039 90.9224 25.8148L92.5778 26.9372C93.3279 25.8308 94.318 24.9879 95.5673 24.4011L94.717 22.5909ZM90.9203 25.818C89.9662 27.2369 89.5021 28.8756 89.5021 30.696H91.5021C91.5021 29.231 91.8701 27.9897 92.58 26.934L90.9203 25.818ZM89.5021 30.696C89.5021 31.3016 89.5538 31.8801 89.7288 32.335L91.5955 31.617C91.5571 31.5172 91.5021 31.2424 91.5021 30.696H89.5021ZM89.739 32.3606C89.7899 32.4826 89.8223 32.5656 89.8404 32.6163C89.8497 32.6426 89.851 32.6482 89.8486 32.6396C89.8474 32.6353 89.8426 32.618 89.8376 32.5918C89.835 32.5783 89.8315 32.5581 89.8285 32.533C89.8256 32.5089 89.8221 32.4711 89.8221 32.424H91.8221C91.8221 32.2642 91.783 32.1307 91.7756 32.1044C91.7599 32.0478 91.7412 31.9921 91.7239 31.9437C91.6887 31.8451 91.6411 31.7254 91.5852 31.5914L89.739 32.3606ZM90.8221 31.424C89.8665 31.424 89.3092 31.2293 88.9998 30.9914L87.7804 32.5766C88.5804 33.192 89.6444 33.424 90.8221 33.424V31.424ZM89.0148 31.0031C88.7991 30.8306 88.5901 30.4915 88.5901 29.736H86.5901C86.5901 30.8579 86.9145 31.8841 87.7654 32.5649L89.0148 31.0031ZM88.5901 29.736C88.5901 28.5603 89.0599 27.3797 90.1295 26.1764L88.6347 24.8476C87.315 26.3323 86.5901 27.9677 86.5901 29.736H88.5901ZM90.1237 26.1829C91.2245 24.9661 92.6951 23.956 94.5689 23.1702L93.7954 21.3258C91.7011 22.204 89.9717 23.3699 88.6406 24.8411L90.1237 26.1829ZM94.5653 23.1717C96.4477 22.3907 98.4187 22 100.486 22V20C98.1589 20 95.9272 20.4413 93.7989 21.3243L94.5653 23.1717ZM100.486 22C102.984 22 104.571 22.6764 105.506 23.8117L107.05 22.5403C105.596 20.7743 103.321 20 100.486 20V22ZM105.506 23.8117C106.508 25.0279 107.07 26.7802 107.07 29.192H109.07C109.07 26.4838 108.438 24.2255 107.05 22.5403L105.506 23.8117ZM107.07 29.192C107.07 30.6767 106.859 32.2914 106.427 34.0402L108.369 34.5198C108.833 32.6419 109.07 30.8646 109.07 29.192H107.07ZM106.428 34.0375C106.002 35.7413 105.353 37.364 104.48 38.9076L106.22 39.8924C107.182 38.1934 107.898 36.4027 108.368 34.5225L106.428 34.0375ZM104.48 38.9076C103.623 40.4215 102.581 41.6236 101.36 42.5345L102.556 44.1375C104.023 43.0431 105.242 41.6211 106.22 39.8924L104.48 38.9076ZM101.126 43.8907C101.724 44.7871 102.373 45.5213 103.086 46.056L104.286 44.456C103.804 44.0947 103.302 43.5489 102.79 42.7813L101.126 43.8907ZM103.086 46.056C103.893 46.6612 104.875 46.928 105.958 46.928V44.928C105.207 44.928 104.674 44.7468 104.286 44.456L103.086 46.056ZM105.958 46.928C106.157 46.928 106.45 46.8983 106.786 46.8563L106.538 44.8717C106.192 44.915 106.015 44.928 105.958 44.928V46.928ZM105.73 45.5025C105.351 46.4804 104.97 46.9802 104.67 47.1965L105.838 48.8195C106.605 48.2678 107.163 47.3383 107.594 46.2255L105.73 45.5025ZM104.633 47.224C104.323 47.4697 103.921 47.616 103.366 47.616V49.616C104.304 49.616 105.161 49.3569 105.875 48.792L104.633 47.224ZM97.1261 43.6C97.7699 43.6 98.379 43.4362 98.9087 43.072L97.7756 41.424C97.6226 41.5292 97.4211 41.6 97.1261 41.6V43.6ZM99.2041 41.741C98.6122 40.7348 97.6895 40.16 96.5181 40.16V42.16C96.9254 42.16 97.2187 42.3105 97.4802 42.755L99.2041 41.741ZM96.5181 40.16C96.0942 40.16 95.6837 40.2129 95.296 40.3322L95.8842 42.2438C96.0512 42.1924 96.2594 42.16 96.5181 42.16V40.16ZM94.6438 41.6111C94.8304 42.1575 95.1146 42.6617 95.5486 43.0324C96.0002 43.4181 96.5452 43.6 97.1261 43.6V41.6C96.9817 41.6 96.908 41.5632 96.8476 41.5116C96.7696 41.445 96.6486 41.2931 96.5365 40.9649L94.6438 41.6111ZM114.919 43.688L114.219 44.4022L114.227 44.4093L114.234 44.4162L114.919 43.688ZM113.767 35.72L112.797 35.4763L112.795 35.4854L113.767 35.72ZM117.031 22.728L118.001 22.9717L118.416 21.3227L116.773 21.762L117.031 22.728ZM112.743 25.352L113.514 25.9896L113.519 25.9831L112.743 25.352ZM112.039 32.488V33.488H113.753L112.91 31.9959L112.039 32.488ZM109.191 31.592L108.521 32.3341L108.527 32.3394L108.533 32.3446L109.191 31.592ZM109.863 25.096L109.114 24.434L109.113 24.4348L109.863 25.096ZM114.343 22.024L113.961 21.1L113.961 21.1L114.343 22.024ZM122.023 21.032L122.99 21.2873L123.255 20.2863L122.245 20.0569L122.023 21.032ZM118.119 35.816L119.085 36.0765L119.086 36.0713L118.119 35.816ZM125.031 35.72L124.054 35.5084L124.052 35.5157L125.031 35.72ZM128.231 20.936V19.936H127.425L127.254 20.7244L128.231 20.936ZM132.743 20.936L133.722 21.1415L133.975 19.936H132.743V20.936ZM129.639 35.72L130.617 35.9327L130.618 35.9255L129.639 35.72ZM126.087 42.824L125.399 42.0988L125.394 42.1032L126.087 42.824ZM119.719 44.224C117.757 44.224 116.442 43.7483 115.605 42.9598L114.234 44.4162C115.572 45.6757 117.458 46.224 119.719 46.224V44.224ZM115.619 42.9738C114.805 42.176 114.319 40.9367 114.319 39.08H112.319C112.319 41.2766 112.9 43.1094 114.219 44.4022L115.619 42.9738ZM114.319 39.08C114.319 38.1742 114.455 37.1347 114.739 35.9546L112.795 35.4854C112.483 36.78 112.319 37.9804 112.319 39.08H114.319ZM114.737 35.9637L118.001 22.9717L116.062 22.4843L112.798 35.4763L114.737 35.9637ZM116.773 21.762C114.771 22.2974 113.146 23.2723 111.968 24.7209L113.519 25.9831C114.389 24.9143 115.623 24.1399 117.29 23.694L116.773 21.762ZM111.973 24.7144C110.813 26.1165 110.207 27.7037 110.207 29.448H112.207C112.207 28.2057 112.626 27.0621 113.514 25.9896L111.973 24.7144ZM110.207 29.448C110.207 30.6792 110.536 31.8607 111.169 32.9801L112.91 31.9959C112.433 31.1526 112.207 30.3075 112.207 29.448H110.207ZM112.039 31.488C110.982 31.488 110.296 31.2298 109.85 30.8394L108.533 32.3446C109.452 33.1489 110.665 33.488 112.039 33.488V31.488ZM109.862 30.8499C109.456 30.4832 109.199 29.9367 109.199 29.064H107.199C107.199 30.3673 107.604 31.5061 108.521 32.3341L109.862 30.8499ZM109.199 29.064C109.199 27.9695 109.63 26.8734 110.614 25.7572L109.113 24.4348C107.878 25.8359 107.199 27.3852 107.199 29.064H109.199ZM110.613 25.758C111.626 24.6106 112.986 23.668 114.726 22.948L113.961 21.1C111.989 21.916 110.362 23.0214 109.114 24.434L110.613 25.758ZM114.726 22.948C116.457 22.2317 118.289 21.872 120.231 21.872V19.872C118.035 19.872 115.942 20.2803 113.961 21.1L114.726 22.948ZM120.231 21.872C120.916 21.872 121.432 21.9231 121.802 22.0071L122.245 20.0569C121.676 19.9276 120.998 19.872 120.231 19.872V21.872ZM121.057 20.7767L117.153 35.5607L119.086 36.0713L122.99 21.2873L121.057 20.7767ZM117.154 35.5555C116.778 36.9499 116.575 38.1943 116.575 39.272H118.575C118.575 38.4297 118.736 37.3701 119.085 36.0765L117.154 35.5555ZM116.575 39.272C116.575 40.3968 116.802 41.4263 117.427 42.1866C118.082 42.9846 119.028 43.312 120.071 43.312V41.312C119.451 41.312 119.149 41.1327 118.972 40.9174C118.764 40.6644 118.575 40.1738 118.575 39.272H116.575ZM120.071 43.312C121.631 43.312 122.919 42.5719 123.902 41.2652C124.856 39.9976 125.538 38.1853 126.01 35.9243L124.052 35.5157C123.607 37.6493 123.004 39.133 122.304 40.0628C121.634 40.9535 120.902 41.312 120.071 41.312V43.312ZM126.009 35.9316L129.209 21.1476L127.254 20.7244L124.054 35.5084L126.009 35.9316ZM128.231 21.936H132.743V19.936H128.231V21.936ZM131.765 20.7305L128.661 35.5145L130.618 35.9255L133.722 21.1415L131.765 20.7305ZM128.662 35.5073C128.006 38.5198 126.893 40.6803 125.399 42.0988L126.776 43.5492C128.652 41.7677 129.907 39.1922 130.616 35.9327L128.662 35.5073ZM125.394 42.1032C123.939 43.5023 122.075 44.224 119.719 44.224V46.224C122.526 46.224 124.908 45.3457 126.78 43.5448L125.394 42.1032ZM138.242 48.648V49.648H140.286L139.031 48.0341L138.242 48.648ZM136.162 48.456L136.371 47.4782L136.371 47.4782L136.162 48.456ZM134.594 47.528L133.839 48.1842L133.847 48.1933L133.855 48.2023L134.594 47.528ZM135.234 39.496L134.294 39.1549L134.291 39.1623L135.234 39.496ZM138.658 32.232L139.523 32.733L140.456 31.1223L138.598 31.2338L138.658 32.232ZM136.13 32.712L136.512 33.636L136.512 33.636L136.13 32.712ZM134.914 33.896L133.973 33.5573L133.491 34.896H134.914V33.896ZM135.17 34.216L134.241 34.5874L134.257 34.626L134.275 34.6632L135.17 34.216ZM134.818 35.816L135.348 36.664L135.366 36.6524L135.384 36.64L134.818 35.816ZM132.098 35.656L132.759 34.9062L132.759 34.9062L132.098 35.656ZM132.386 32.296L131.666 31.6019L131.659 31.6086L131.653 31.6155L132.386 32.296ZM134.754 30.888L135.076 31.8346L135.085 31.8316L135.094 31.8284L134.754 30.888ZM139.746 30.44L139.649 31.4353L140.263 31.4947L140.591 30.9735L139.746 30.44ZM145.282 23.656L145.951 24.3989L145.951 24.3985L145.282 23.656ZM153.41 21.448L154.388 21.6566L154.556 20.8684L153.821 20.5366L153.41 21.448ZM148.386 45V46H149.195L149.364 45.2086L148.386 45ZM143.778 45L142.799 44.7925L142.543 46H143.778V45ZM146.242 33.384L147.22 33.5915L147.386 32.8092L146.659 32.4753L146.242 33.384ZM144.066 32.584L143.816 33.5523L143.816 33.5523L144.066 32.584ZM141.954 32.232L142.039 31.2357L141.341 31.1758L141.046 31.8115L141.954 32.232ZM138.946 40.296L137.984 40.0203L137.983 40.0253L138.946 40.296ZM148.386 23.272L149.364 23.4805L149.813 21.3746L147.914 22.3902L148.386 23.272ZM145.506 26.024L144.704 25.426L144.703 25.4282L145.506 26.024ZM142.626 30.856L141.729 30.4128L141.148 31.5875L142.435 31.8376L142.626 30.856ZM146.53 31.976L146.142 32.898L147.256 33.3656L147.508 32.1845L146.53 31.976ZM138.242 47.648C137.503 47.648 136.883 47.5879 136.371 47.4782L135.952 49.4338C136.635 49.5801 137.401 49.648 138.242 49.648V47.648ZM136.371 47.4782C135.995 47.3977 135.653 47.2048 135.332 46.8537L133.855 48.2023C134.431 48.8325 135.133 49.2583 135.952 49.4338L136.371 47.4782ZM135.348 46.8718C135.149 46.6426 134.954 46.1705 134.954 45.256H132.954C132.954 46.3895 133.185 47.4321 133.839 48.1842L135.348 46.8718ZM134.954 45.256C134.954 43.9967 135.336 42.2039 136.176 39.8297L134.291 39.1623C133.425 41.6095 132.954 43.6566 132.954 45.256H134.954ZM136.174 39.8371C137.026 37.4868 138.142 35.1188 139.523 32.733L137.792 31.731C136.357 34.2092 135.19 36.6839 134.294 39.1549L136.174 39.8371ZM138.598 31.2338C137.478 31.301 136.511 31.4719 135.747 31.788L136.512 33.636C136.985 33.4401 137.704 33.291 138.718 33.2302L138.598 31.2338ZM135.747 31.788C134.92 32.1304 134.278 32.7106 133.973 33.5573L135.855 34.2347C135.934 34.0147 136.102 33.8056 136.512 33.636L135.747 31.788ZM134.914 34.896C134.508 34.896 134.294 34.6424 134.261 34.6007C134.214 34.5427 134.214 34.5188 134.241 34.5874L136.098 33.8446C136.04 33.6998 135.954 33.516 135.822 33.3513C135.704 33.2029 135.405 32.896 134.914 32.896V34.896ZM134.275 34.6632C134.314 34.7401 134.33 34.8112 134.33 34.888H136.33C136.33 34.4955 136.239 34.1186 136.064 33.7688L134.275 34.6632ZM134.33 34.888C134.33 34.9095 134.327 34.9202 134.327 34.923C134.326 34.9246 134.326 34.9251 134.326 34.925C134.326 34.9248 134.326 34.9247 134.326 34.9249C134.326 34.9252 134.325 34.9264 134.323 34.9288C134.322 34.9312 134.319 34.9352 134.313 34.9406C134.303 34.9515 134.284 34.9693 134.251 34.992L135.384 36.64C135.972 36.2361 136.33 35.6307 136.33 34.888H134.33ZM134.288 34.968C134.143 35.0583 133.913 35.136 133.538 35.136V37.136C134.187 37.136 134.809 37.0004 135.348 36.664L134.288 34.968ZM133.538 35.136C133.124 35.136 132.899 35.0295 132.759 34.9062L131.436 36.4058C132.022 36.9225 132.756 37.136 133.538 37.136V35.136ZM132.759 34.9062C132.661 34.8195 132.554 34.6634 132.554 34.28H130.554C130.554 35.0913 130.809 35.8525 131.436 36.4058L132.759 34.9062ZM132.554 34.28C132.554 33.8389 132.713 33.4135 133.118 32.9765L131.653 31.6155C130.949 32.3731 130.554 33.2704 130.554 34.28H132.554ZM133.105 32.9901C133.545 32.5347 134.183 32.1385 135.076 31.8346L134.431 29.9413C133.318 30.3202 132.379 30.8626 131.666 31.6019L133.105 32.9901ZM135.094 31.8284C135.973 31.5103 136.966 31.344 138.082 31.344V29.344C136.766 29.344 135.539 29.5404 134.413 29.9476L135.094 31.8284ZM138.082 31.344C138.486 31.344 139.006 31.3731 139.649 31.4353L139.842 29.4446C139.162 29.3789 138.573 29.344 138.082 29.344V31.344ZM140.591 30.9735C142.304 28.2589 144.093 26.0736 145.951 24.3989L144.612 22.9131C142.588 24.7371 140.686 27.0744 138.9 29.9065L140.591 30.9735ZM145.951 24.3985C147.819 22.7139 149.456 22 150.882 22V20C148.766 20 146.67 21.0568 144.612 22.9135L145.951 24.3985ZM150.882 22C151.818 22 152.508 22.138 152.998 22.3594L153.821 20.5366C152.989 20.1607 151.993 20 150.882 20V22ZM152.432 21.2394L147.408 44.7914L149.364 45.2086L154.388 21.6566L152.432 21.2394ZM148.386 44H143.778V46H148.386V44ZM144.756 45.2075L147.22 33.5915L145.263 33.1765L142.799 44.7925L144.756 45.2075ZM146.659 32.4753C145.83 32.0942 145.047 31.8046 144.316 31.6157L143.816 33.5523C144.407 33.7047 145.075 33.9485 145.824 34.2927L146.659 32.4753ZM144.316 31.6157C143.595 31.4299 142.836 31.304 142.039 31.2357L141.868 33.2283C142.565 33.288 143.213 33.3968 143.816 33.5523L144.316 31.6157ZM141.046 31.8115C139.809 34.4819 138.788 37.2182 137.984 40.0203L139.907 40.5717C140.682 37.8698 141.666 35.2301 142.861 32.6525L141.046 31.8115ZM137.983 40.0253C137.205 42.7901 136.794 45.0789 136.794 46.856H138.794C138.794 45.3477 139.15 43.2633 139.908 40.5667L137.983 40.0253ZM136.794 46.856C136.794 47.7536 136.952 48.6192 137.452 49.2619L139.031 48.0341C138.934 47.9088 138.794 47.5798 138.794 46.856H136.794ZM147.914 22.3902C146.812 22.9798 145.747 24.0281 144.704 25.426L146.307 26.622C147.27 25.3319 148.125 24.5455 148.857 24.1538L147.914 22.3902ZM144.703 25.4282C143.677 26.8101 142.687 28.4749 141.729 30.4128L143.522 31.2992C144.441 29.4398 145.371 27.8832 146.309 26.6198L144.703 25.4282ZM142.435 31.8376C143.925 32.1274 145.157 32.484 146.142 32.898L146.917 31.054C145.769 30.572 144.398 30.1819 142.816 29.8744L142.435 31.8376ZM147.508 32.1845L149.364 23.4805L147.408 23.0635L145.552 31.7675L147.508 32.1845ZM164.289 41.8L163.317 41.5654L163.314 41.5779L163.311 41.5905L164.289 41.8ZM164.897 39.432L163.938 39.1465L163.934 39.1604L163.93 39.1743L164.897 39.432ZM162.817 32.936L162.588 31.9626L161.97 32.1079L161.838 32.7284L162.817 32.936ZM160.257 45V46H161.067L161.235 45.2076L160.257 45ZM155.649 45L154.671 44.7909L154.412 46H155.649V45ZM160.001 24.648L159.867 23.657L159.17 23.7512L159.023 24.4389L160.001 24.648ZM164.737 24.008L165.715 24.2155L166.009 22.8269L164.603 23.017L164.737 24.008ZM163.169 31.4L162.19 31.1925L161.934 32.4H163.169V31.4ZM165.729 30.536L165.095 29.762L165.095 29.762L165.729 30.536ZM167.361 28.392L166.453 27.9715L166.449 27.9816L167.361 28.392ZM167.073 23.432L166.329 24.101L166.341 24.114L166.353 24.1266L167.073 23.432ZM159.905 23.4L160.334 24.3031L160.334 24.3031L159.905 23.4ZM156.865 26.088L156.014 25.5621L156.007 25.5735L156.865 26.088ZM156.033 31.912L155.126 32.3349L155.132 32.3471L155.138 32.3592L156.033 31.912ZM156.257 32.424V33.424H157.257V32.424H156.257ZM153.665 31.72L153.002 32.469L153.017 32.4824L153.033 32.4952L153.665 31.72ZM154.497 25.352L153.742 24.6961L153.741 24.6971L154.497 25.352ZM158.817 22.216L159.228 23.1276L159.237 23.1233L158.817 22.216ZM168.097 21.704L167.701 22.6222L167.701 22.6222L168.097 21.704ZM170.529 23.592L169.7 24.1519L169.707 24.1624L170.529 23.592ZM170.401 29.128L169.55 28.6029L169.55 28.6029L170.401 29.128ZM167.873 31.592L167.358 30.7345L165.391 31.9147L167.595 32.5526L167.873 31.592ZM169.569 32.776L168.702 33.2757L168.714 33.2957L168.726 33.3151L169.569 32.776ZM169.857 36.776L170.834 36.9897L170.835 36.9835L169.857 36.776ZM169.217 39.336L168.251 39.0746L168.248 39.0861L169.217 39.336ZM168.737 41.288L167.763 41.0608L167.763 41.0608L168.737 41.288ZM168.833 44.2L167.958 44.6856L167.969 44.7038L167.979 44.7214L168.833 44.2ZM169.761 45L170.029 45.9633L172.923 45.1568L170.123 44.068L169.761 45ZM166.593 44.544C165.881 44.544 165.533 44.3879 165.372 44.2494C165.24 44.136 165.097 43.9175 165.097 43.4H163.097C163.097 44.3119 163.369 45.1654 164.069 45.7666C164.74 46.3428 165.641 46.544 166.593 46.544V44.544ZM165.097 43.4C165.097 43.0185 165.149 42.5574 165.266 42.0095L163.311 41.5905C163.172 42.2373 163.097 42.8428 163.097 43.4H165.097ZM165.261 42.0346C165.407 41.4267 165.608 40.6457 165.863 39.6897L163.93 39.1743C163.673 40.1383 163.468 40.936 163.317 41.5654L165.261 42.0346ZM165.855 39.7175C166.158 38.6995 166.39 37.8186 166.547 37.0795L164.59 36.6645C164.448 37.3334 164.232 38.1592 163.938 39.1465L165.855 39.7175ZM166.547 37.0795C166.707 36.3262 166.793 35.6254 166.793 34.984H164.793C164.793 35.4519 164.729 36.0098 164.59 36.6645L166.547 37.0795ZM166.793 34.984C166.793 34.1332 166.608 33.3083 166.062 32.6904C165.496 32.0486 164.702 31.808 163.873 31.808V33.808C164.324 33.808 164.489 33.9301 164.563 34.0136C164.658 34.1211 164.793 34.3842 164.793 34.984H166.793ZM163.873 31.808C163.448 31.808 163.019 31.8612 162.588 31.9626L163.046 33.9094C163.34 33.8402 163.615 33.808 163.873 33.808V31.808ZM161.838 32.7284L159.278 44.7924L161.235 45.2076L163.795 33.1436L161.838 32.7284ZM160.257 44H155.649V46H160.257V44ZM156.627 45.2091L160.979 24.8571L159.023 24.4389L154.671 44.7909L156.627 45.2091ZM160.135 25.639L164.871 24.999L164.603 23.017L159.867 23.657L160.135 25.639ZM163.758 23.8005L162.19 31.1925L164.147 31.6075L165.715 24.2155L163.758 23.8005ZM163.169 32.4H163.425V30.4H163.169V32.4ZM163.425 32.4C164.509 32.4 165.497 32.0176 166.362 31.31L165.095 29.762C164.552 30.2064 164.004 30.4 163.425 30.4V32.4ZM166.362 31.31C167.189 30.6331 167.827 29.7926 168.273 28.8024L166.449 27.9816C166.126 28.698 165.676 29.2869 165.095 29.762L166.362 31.31ZM168.268 28.8125C168.725 27.8268 168.969 26.8305 168.969 25.832H166.969C166.969 26.4975 166.807 27.2078 166.453 27.9715L168.268 28.8125ZM168.969 25.832C168.969 24.6311 168.595 23.5691 167.792 22.7374L166.353 24.1266C166.745 24.5322 166.969 25.0703 166.969 25.832H168.969ZM167.816 22.763C166.989 21.844 165.798 21.472 164.449 21.472V23.472C165.446 23.472 166.004 23.74 166.329 24.101L167.816 22.763ZM164.449 21.472C162.601 21.472 160.935 21.803 159.475 22.4969L160.334 24.3031C161.477 23.7597 162.84 23.472 164.449 23.472V21.472ZM159.475 22.4969C158.008 23.1943 156.845 24.2176 156.014 25.5622L157.715 26.6138C158.335 25.6117 159.198 24.8431 160.334 24.3031L159.475 22.4969ZM156.007 25.5735C155.195 26.9269 154.809 28.4978 154.809 30.248H156.809C156.809 28.7982 157.126 27.5958 157.722 26.6025L156.007 25.5735ZM154.809 30.248C154.809 31.0462 154.876 31.7979 155.126 32.3349L156.939 31.4891C156.891 31.3861 156.809 31.0284 156.809 30.248H154.809ZM155.138 32.3592C155.21 32.5032 155.257 32.6028 155.284 32.6648C155.299 32.6971 155.301 32.7058 155.299 32.6983C155.298 32.6948 155.291 32.6751 155.283 32.6445C155.279 32.6287 155.273 32.6036 155.268 32.5716C155.263 32.5418 155.257 32.4899 155.257 32.424H157.257C157.257 32.2207 157.191 32.0507 157.186 32.0376C157.165 31.9769 157.14 31.9163 157.117 31.8632C157.069 31.7546 157.004 31.6195 156.927 31.4648L155.138 32.3592ZM156.257 31.424C155.215 31.424 154.619 31.2076 154.296 30.9448L153.033 32.4952C153.862 33.171 154.995 33.424 156.257 33.424V31.424ZM154.327 30.971C154.075 30.7482 153.833 30.2867 153.833 29.32H151.833C151.833 30.572 152.145 31.7105 153.002 32.469L154.327 30.971ZM153.833 29.32C153.833 28.2492 154.261 27.1505 155.252 26.0069L153.741 24.6971C152.513 26.1135 151.833 27.6602 151.833 29.32H153.833ZM155.251 26.0079C156.277 24.8273 157.595 23.8642 159.228 23.1275L158.405 21.3045C156.539 22.1465 154.977 23.274 153.742 24.6961L155.251 26.0079ZM159.237 23.1233C160.868 22.3674 162.475 22 164.065 22V20C162.156 20 160.264 20.4433 158.396 21.3087L159.237 23.1233ZM164.065 22C165.573 22 166.773 22.2222 167.701 22.6222L168.493 20.7858C167.244 20.2471 165.756 20 164.065 20V22ZM167.701 22.6222C168.656 23.0343 169.297 23.5554 169.7 24.1519L171.357 23.0321C170.694 22.0499 169.713 21.3124 168.493 20.7858L167.701 22.6222ZM169.707 24.1624C170.127 24.7664 170.329 25.4107 170.329 26.12H172.329C172.329 24.9946 171.997 23.9536 171.35 23.0216L169.707 24.1624ZM170.329 26.12C170.329 26.9068 170.088 27.7301 169.55 28.6029L171.252 29.6531C171.95 28.5206 172.329 27.3385 172.329 26.12H170.329ZM169.55 28.6029C169.02 29.4618 168.296 30.1721 167.358 30.7345L168.387 32.4495C169.583 31.7319 170.544 30.7995 171.252 29.6531L169.55 28.6029ZM167.595 32.5526C168.238 32.7389 168.548 33.0089 168.702 33.2757L170.435 32.2763C169.949 31.4338 169.128 30.9144 168.151 30.6314L167.595 32.5526ZM168.726 33.3151C168.939 33.648 169.081 34.1194 169.081 34.792H171.081C171.081 33.8433 170.88 32.9707 170.411 32.2369L168.726 33.3151ZM169.081 34.792C169.081 35.3307 169.016 35.9219 168.878 36.5685L170.835 36.9835C170.996 36.2221 171.081 35.4906 171.081 34.792H169.081ZM168.88 36.5623C168.735 37.2231 168.526 38.0592 168.251 39.0746L170.182 39.5974C170.462 38.5648 170.679 37.6943 170.834 36.9897L168.88 36.5623ZM168.248 39.0861C168.076 39.7547 167.914 40.4129 167.763 41.0608L169.71 41.5152C169.858 40.8831 170.016 40.24 170.185 39.5859L168.248 39.0861ZM167.763 41.0608C167.604 41.7399 167.513 42.3555 167.513 42.888H169.513C169.513 42.5672 169.57 42.1161 169.71 41.5152L167.763 41.0608ZM167.513 42.888C167.513 43.5283 167.653 44.1363 167.958 44.6856L169.707 43.7144C169.585 43.4957 169.513 43.229 169.513 42.888H167.513ZM167.979 44.7214C168.317 45.2741 168.791 45.6958 169.398 45.932L170.123 44.068C169.962 44.0055 169.818 43.8939 169.686 43.6786L167.979 44.7214ZM169.492 44.0367C168.228 44.3889 167.272 44.544 166.593 44.544V46.544C167.534 46.544 168.69 46.3364 170.029 45.9633L169.492 44.0367ZM173.555 43.976L172.819 44.6531L172.827 44.6609L173.555 43.976ZM172.787 36.488L171.865 36.1022L171.861 36.1107L172.787 36.488ZM178.003 31.656L178.246 32.6261L180.355 32.0988L178.582 30.8405L178.003 31.656ZM176.531 29.96L175.626 30.3845L175.631 30.3956L176.531 29.96ZM176.947 24.552L176.082 24.0503L176.079 24.0568L176.075 24.0634L176.947 24.552ZM179.475 21.96L180.002 22.8099L180.007 22.8071L179.475 21.96ZM186.355 21.992L185.719 22.7634L185.719 22.7634L186.355 21.992ZM186.931 27.304L186.125 26.7126L186.125 26.7126L186.931 27.304ZM183.763 27.4L183.447 26.4513L182.139 26.8873L182.96 27.9952L183.763 27.4ZM184.755 26.344L185.656 26.7778L185.656 26.7778L184.755 26.344ZM184.659 23.272L184.001 24.0246L184.015 24.0366L184.029 24.0481L184.659 23.272ZM181.715 23.496L182.372 24.2506L182.374 24.2486L181.715 23.496ZM180.563 25.192L181.49 25.5684L181.494 25.5585L180.563 25.192ZM180.947 30.056L180.119 30.6159L180.126 30.6264L180.947 30.056ZM183.379 31.624L183.59 32.6015L183.626 30.655L183.379 31.624ZM180.435 33.224L179.746 32.4994L179.746 32.4994L180.435 33.224ZM178.387 36.136L179.299 36.5471L179.302 36.5405L178.387 36.136ZM178.387 41.608L177.615 42.2427L177.621 42.2508L177.628 42.2588L178.387 41.608ZM184.019 41.64L184.467 42.5345L184.473 42.5312L184.019 41.64ZM186.611 39.24L187.01 38.3229L186.176 37.9605L185.736 38.7559L186.611 39.24ZM187.347 39.56L188.258 39.973L188.678 39.0479L187.746 38.6429L187.347 39.56ZM183.507 43.944L184.04 44.7902L184.04 44.7902L183.507 43.944ZM177.971 44.576C176.212 44.576 175.042 44.0971 174.284 43.2911L172.827 44.6609C174.074 45.9882 175.848 46.576 177.971 46.576V44.576ZM174.291 43.2989C173.5 42.4392 173.083 41.3466 173.083 39.944H171.083C171.083 41.784 171.648 43.3795 172.819 44.6531L174.291 43.2989ZM173.083 39.944C173.083 38.9314 173.289 37.9071 173.713 36.8653L171.861 36.1107C171.347 37.3729 171.083 38.6526 171.083 39.944H173.083ZM173.71 36.8738C174.15 35.8223 174.768 34.911 175.566 34.1316L174.169 32.7004C173.175 33.6704 172.406 34.807 171.865 36.1022L173.71 36.8738ZM175.566 34.1316C176.337 33.3785 177.226 32.8811 178.246 32.6261L177.761 30.6859C176.391 31.0282 175.189 31.7042 174.169 32.7004L175.566 34.1316ZM178.582 30.8405C178.044 30.4584 177.671 30.0187 177.432 29.5244L175.631 30.3956C176.032 31.2239 176.64 31.915 177.425 32.4715L178.582 30.8405ZM177.437 29.5356C177.178 28.9844 177.051 28.4145 177.051 27.816H175.051C175.051 28.7108 175.244 29.5703 175.626 30.3844L177.437 29.5356ZM177.051 27.816C177.051 26.8948 177.297 25.9736 177.82 25.0406L176.075 24.0634C175.403 25.2637 175.051 26.5185 175.051 27.816H177.051ZM177.812 25.0537C178.347 24.1317 179.073 23.3863 180.002 22.8099L178.948 21.1101C177.745 21.8564 176.785 22.8389 176.082 24.0503L177.812 25.0537ZM180.007 22.8071C180.933 22.2257 181.943 21.936 183.059 21.936V19.936C181.573 19.936 180.193 20.329 178.944 21.1129L180.007 22.8071ZM183.059 21.936C184.223 21.936 185.081 22.2371 185.719 22.7634L186.992 21.2206C185.923 20.3389 184.584 19.936 183.059 19.936V21.936ZM185.719 22.7634C186.309 23.2498 186.635 23.9296 186.635 24.936H188.635C188.635 23.425 188.109 22.1422 186.992 21.2206L185.719 22.7634ZM186.635 24.936C186.635 25.702 186.447 26.2738 186.125 26.7126L187.738 27.8954C188.355 27.0541 188.635 26.0473 188.635 24.936H186.635ZM186.125 26.7126C185.794 27.1646 185.512 27.264 185.267 27.264V29.264C186.303 29.264 187.131 28.7234 187.738 27.8954L186.125 26.7126ZM185.267 27.264C185.086 27.264 184.856 27.1955 184.567 26.8048L182.96 27.9952C183.524 28.7565 184.297 29.264 185.267 29.264V27.264ZM184.08 28.3487C184.835 28.0967 185.328 27.4602 185.656 26.7778L183.854 25.9102C183.628 26.3798 183.459 26.4473 183.447 26.4513L184.08 28.3487ZM185.656 26.7778C185.992 26.0815 186.171 25.358 186.171 24.616H184.171C184.171 25.026 184.074 25.4545 183.854 25.9102L185.656 26.7778ZM186.171 24.616C186.171 23.8246 185.949 23.0315 185.29 22.4959L184.029 24.0481C184.052 24.0672 184.171 24.1701 184.171 24.616H186.171ZM185.318 22.5194C184.779 22.0477 184.123 21.824 183.411 21.824V23.824C183.681 23.824 183.857 23.899 184.001 24.0246L185.318 22.5194ZM183.411 21.824C182.526 21.824 181.732 22.153 181.057 22.7434L182.374 24.2486C182.723 23.943 183.06 23.824 183.411 23.824V21.824ZM181.059 22.7414C180.429 23.2895 179.96 23.9965 179.633 24.8255L181.494 25.5585C181.722 24.9795 182.021 24.5558 182.372 24.2506L181.059 22.7414ZM179.637 24.8156C179.31 25.6195 179.147 26.4621 179.147 27.336H181.147C181.147 26.7166 181.262 26.1299 181.49 25.5684L179.637 24.8156ZM179.147 27.336C179.147 28.5438 179.465 29.6486 180.119 30.6159L181.776 29.4961C181.363 28.8847 181.147 28.1762 181.147 27.336H179.147ZM180.126 30.6264C180.823 31.63 181.86 32.2687 183.132 32.593L183.626 30.655C182.722 30.4246 182.138 30.018 181.769 29.4856L180.126 30.6264ZM183.169 30.6465C181.886 30.9232 180.742 31.5519 179.746 32.4994L181.125 33.9486C181.878 33.2321 182.697 32.7942 183.59 32.6015L183.169 30.6465ZM179.746 32.4994C178.776 33.4227 178.017 34.5023 177.473 35.7315L179.302 36.5405C179.74 35.5511 180.346 34.6893 181.125 33.9486L179.746 32.4994ZM177.476 35.7249C176.938 36.9179 176.651 38.1032 176.651 39.272H178.651C178.651 38.4355 178.856 37.5301 179.299 36.5471L177.476 35.7249ZM176.651 39.272C176.651 40.4059 176.944 41.4265 177.615 42.2427L179.16 40.9733C178.849 40.5948 178.651 40.0581 178.651 39.272H176.651ZM177.628 42.2588C178.384 43.1404 179.47 43.504 180.691 43.504V41.504C179.865 41.504 179.415 41.2703 179.147 40.9572L177.628 42.2588ZM180.691 43.504C181.942 43.504 183.204 43.1656 184.467 42.5344L183.572 40.7456C182.531 41.2664 181.574 41.504 180.691 41.504V43.504ZM184.473 42.5312C185.797 41.8571 186.821 40.9265 187.486 39.7241L185.736 38.7559C185.292 39.5589 184.588 40.2282 183.566 40.7488L184.473 42.5312ZM186.213 40.1571L186.949 40.4771L187.746 38.6429L187.01 38.3229L186.213 40.1571ZM186.437 39.147C185.687 40.8008 184.539 42.1126 182.975 43.0978L184.04 44.7902C185.931 43.5994 187.344 41.9885 188.258 39.973L186.437 39.147ZM182.975 43.0978C181.399 44.0896 179.738 44.576 177.971 44.576V46.576C180.13 46.576 182.159 45.9744 184.04 44.7902L182.975 43.0978ZM194.419 43.72L195.069 42.9599L193.773 41.852L193.438 43.5239L194.419 43.72ZM194.163 45V46H194.983L195.143 45.1961L194.163 45ZM189.555 45L188.577 44.7909L188.318 46H189.555V45ZM193.907 24.648L193.773 23.657L193.076 23.7512L192.929 24.4389L193.907 24.648ZM198.643 24.008L199.621 24.2172L199.918 22.8266L198.509 23.017L198.643 24.008ZM194.803 41.96L193.825 41.7508L193.688 42.3924L194.222 42.7737L194.803 41.96ZM199.827 40.488L198.995 39.9333L198.989 39.9421L199.827 40.488ZM202.003 35.112L201.029 34.883L201.029 34.883L202.003 35.112ZM201.523 23.944L200.752 24.5809L200.759 24.59L200.767 24.5989L201.523 23.944ZM193.779 23.432L194.22 24.3295L194.226 24.3264L193.779 23.432ZM190.803 26.12L189.952 25.5942L189.952 25.5942L190.803 26.12ZM189.939 31.912L189.033 32.3349L189.038 32.3471L189.044 32.3592L189.939 31.912ZM190.163 32.424V33.424H191.163V32.424H190.163ZM187.603 31.72L186.971 32.4952L186.978 32.5008L186.985 32.5063L187.603 31.72ZM188.371 25.32L189.138 25.9614L189.138 25.9614L188.371 25.32ZM192.723 22.184L192.328 21.2654L192.324 21.2671L192.723 22.184ZM205.939 37.416L204.995 37.0845L204.994 37.0895L205.939 37.416ZM202.675 43.176L201.937 42.5012L201.937 42.5012L202.675 43.176ZM198.323 44.416C197.355 44.416 196.276 43.9915 195.069 42.9599L193.769 44.4801C195.208 45.7098 196.731 46.416 198.323 46.416V44.416ZM193.438 43.5239L193.182 44.8039L195.143 45.1961L195.399 43.9161L193.438 43.5239ZM194.163 44H189.555V46H194.163V44ZM190.533 45.2091L194.885 24.8571L192.929 24.4389L188.577 44.7909L190.533 45.2091ZM194.041 25.639L198.777 24.999L198.509 23.017L193.773 23.657L194.041 25.639ZM197.665 23.7988L193.825 41.7508L195.781 42.1692L199.621 24.2172L197.665 23.7988ZM194.222 42.7737C194.956 43.2984 195.763 43.6 196.627 43.6V41.6C196.253 41.6 195.844 41.475 195.384 41.1463L194.222 42.7737ZM196.627 43.6C198.302 43.6 199.64 42.6063 200.665 41.0339L198.989 39.9421C198.179 41.1857 197.384 41.6 196.627 41.6V43.6ZM200.659 41.0427C201.681 39.5093 202.445 37.598 202.976 35.341L201.029 34.883C200.537 36.978 199.85 38.6507 198.995 39.9333L200.659 41.0427ZM202.976 35.341C203.506 33.0905 203.771 30.8164 203.771 28.52H201.771C201.771 30.661 201.524 32.7815 201.029 34.883L202.976 35.341ZM203.771 28.52C203.771 26.3335 203.342 24.5165 202.279 23.2891L200.767 24.5989C201.367 25.2915 201.771 26.5252 201.771 28.52H203.771ZM202.294 23.3071C201.262 22.0584 199.817 21.472 198.099 21.472V23.472C199.325 23.472 200.162 23.8669 200.752 24.5809L202.294 23.3071ZM198.099 21.472C196.362 21.472 194.766 21.8203 193.332 22.5376L194.226 24.3264C195.352 23.7637 196.636 23.472 198.099 23.472V21.472ZM193.338 22.5346C191.913 23.2347 190.778 24.2581 189.952 25.5942L191.653 26.6458C192.278 25.6352 193.127 24.8667 194.22 24.3294L193.338 22.5346ZM189.952 25.5942C189.116 26.9473 188.715 28.511 188.715 30.248H190.715C190.715 28.8277 191.039 27.6394 191.653 26.6458L189.952 25.5942ZM188.715 30.248C188.715 31.0462 188.782 31.7979 189.033 32.3349L190.845 31.4891C190.797 31.3861 190.715 31.0284 190.715 30.248H188.715ZM189.044 32.3592C189.116 32.5032 189.164 32.6028 189.191 32.6648C189.205 32.6971 189.208 32.7058 189.205 32.6983C189.204 32.6948 189.197 32.6751 189.189 32.6445C189.185 32.6287 189.18 32.6036 189.174 32.5716C189.17 32.5418 189.163 32.4899 189.163 32.424H191.163C191.163 32.2207 191.097 32.0507 191.093 32.0376C191.071 31.9769 191.046 31.9163 191.023 31.8632C190.976 31.7546 190.911 31.6195 190.833 31.4648L189.044 32.3592ZM190.163 31.424C189.178 31.424 188.577 31.2136 188.221 30.9337L186.985 32.5063C187.824 33.1651 188.929 33.424 190.163 33.424V31.424ZM188.235 30.9448C187.976 30.7337 187.739 30.3209 187.739 29.448H185.739C185.739 30.6658 186.078 31.7676 186.971 32.4952L188.235 30.9448ZM187.739 29.448C187.739 28.2704 188.174 27.1149 189.138 25.9614L187.604 24.6786C186.392 26.1278 185.739 27.7242 185.739 29.448H187.739ZM189.138 25.9614C190.111 24.7975 191.427 23.8385 193.122 23.1009L192.324 21.2671C190.392 22.1082 188.807 23.2398 187.604 24.6786L189.138 25.9614ZM193.118 23.1026C194.821 22.37 196.659 22 198.643 22V20C196.403 20 194.294 20.4193 192.328 21.2654L193.118 23.1026ZM198.643 22C201.366 22 203.187 22.7971 204.327 24.2179L205.887 22.9661C204.254 20.9309 201.765 20 198.643 20V22ZM204.327 24.2179C205.543 25.7328 206.187 27.7054 206.187 30.216H208.187C208.187 27.3506 207.444 24.9072 205.887 22.9661L204.327 24.2179ZM206.187 30.216C206.187 32.5315 205.791 34.8196 204.995 37.0845L206.882 37.7475C207.751 35.2764 208.187 32.7645 208.187 30.216H206.187ZM204.994 37.0895C204.218 39.3357 203.192 41.1287 201.937 42.5012L203.413 43.8508C204.889 42.2366 206.039 40.1897 206.884 37.7425L204.994 37.0895ZM201.937 42.5012C200.698 43.8566 199.496 44.416 198.323 44.416V46.416C200.221 46.416 201.921 45.4821 203.413 43.8508L201.937 42.5012ZM209.494 44.392L208.787 45.0991L208.787 45.0991L209.494 44.392ZM209.494 40.808L210.201 41.5151L210.208 41.5076L210.216 41.4999L209.494 40.808ZM213.078 40.808L212.356 41.4999L212.37 41.5153L212.386 41.53L213.078 40.808ZM213.078 44.392L212.386 43.67L212.378 43.6774L212.371 43.6849L213.078 44.392ZM211.286 44.128C210.843 44.128 210.501 43.985 210.201 43.6849L208.787 45.0991C209.468 45.7804 210.321 46.128 211.286 46.128V44.128ZM210.201 43.6849C209.901 43.3848 209.758 43.0431 209.758 42.6H207.758C207.758 43.5649 208.105 44.4179 208.787 45.0991L210.201 43.6849ZM209.758 42.6C209.758 42.1569 209.901 41.8152 210.201 41.5151L208.787 40.1009C208.105 40.7821 207.758 41.6351 207.758 42.6H209.758ZM210.216 41.4999C210.519 41.1831 210.856 41.04 211.286 41.04V39.04C210.307 39.04 209.449 39.4089 208.772 40.1161L210.216 41.4999ZM211.286 41.04C211.715 41.04 212.052 41.1831 212.356 41.4999L213.8 40.1161C213.122 39.4089 212.264 39.04 211.286 39.04V41.04ZM212.386 41.53C212.703 41.8336 212.846 42.1708 212.846 42.6H214.846C214.846 41.6212 214.477 40.7637 213.77 40.086L212.386 41.53ZM212.846 42.6C212.846 43.0292 212.703 43.3664 212.386 43.67L213.77 45.114C214.477 44.4363 214.846 43.5788 214.846 42.6H212.846ZM212.371 43.6849C212.07 43.985 211.729 44.128 211.286 44.128V46.128C212.251 46.128 213.103 45.7804 213.785 45.0991L212.371 43.6849ZM223.82 23.272L224.798 23.4808L225.191 21.6415L223.446 22.3445L223.82 23.272ZM220.492 25.928L219.658 25.3767L219.655 25.3803L220.492 25.928ZM219.564 31.912L218.658 32.3349L218.663 32.3471L218.669 32.3592L219.564 31.912ZM219.788 32.424V33.424H220.788V32.424H219.788ZM217.196 31.72L216.533 32.469L216.548 32.4824L216.564 32.4952L217.196 31.72ZM218.028 25.352L217.273 24.6961L217.272 24.6971L218.028 25.352ZM222.348 22.216L222.759 23.1276L222.768 23.1233L222.348 22.216ZM228.876 21.064L229.854 21.2719L230.092 20.1546L228.953 20.0669L228.876 21.064ZM223.788 45V46H224.598L224.766 45.2079L223.788 45ZM219.18 45L218.202 44.7912L217.944 46H219.18V45ZM223.446 22.3445C221.844 22.9902 220.567 23.9998 219.658 25.3767L221.326 26.4793C221.995 25.4669 222.937 24.7058 224.194 24.1995L223.446 22.3445ZM219.655 25.3803C218.759 26.7488 218.34 28.3894 218.34 30.248H220.34C220.34 28.6933 220.688 27.4539 221.329 26.4757L219.655 25.3803ZM218.34 30.248C218.34 31.0462 218.407 31.7979 218.658 32.3349L220.47 31.4891C220.422 31.3861 220.34 31.0284 220.34 30.248H218.34ZM218.669 32.3592C218.741 32.5032 218.789 32.6028 218.816 32.6648C218.83 32.6971 218.833 32.7058 218.83 32.6983C218.829 32.6948 218.822 32.6751 218.814 32.6445C218.81 32.6287 218.805 32.6036 218.799 32.5716C218.795 32.5418 218.788 32.4899 218.788 32.424H220.788C220.788 32.2207 220.722 32.0507 220.718 32.0376C220.696 31.9769 220.671 31.9163 220.648 31.8632C220.601 31.7546 220.536 31.6195 220.458 31.4648L218.669 32.3592ZM219.788 31.424C218.746 31.424 218.15 31.2076 217.828 30.9448L216.564 32.4952C217.394 33.171 218.526 33.424 219.788 33.424V31.424ZM217.858 30.971C217.607 30.7482 217.364 30.2867 217.364 29.32H215.364C215.364 30.572 215.676 31.7105 216.533 32.469L217.858 30.971ZM217.364 29.32C217.364 28.2492 217.792 27.1505 218.784 26.0069L217.272 24.6971C216.045 26.1135 215.364 27.6602 215.364 29.32H217.364ZM218.783 26.0079C219.808 24.8273 221.126 23.8642 222.759 23.1275L221.937 21.3045C220.071 22.1465 218.509 23.274 217.273 24.6961L218.783 26.0079ZM222.768 23.1233C224.4 22.3674 226.006 22 227.596 22V20C225.687 20 223.795 20.4433 221.927 21.3087L222.768 23.1233ZM227.596 22C227.856 22 228.252 22.019 228.799 22.0611L228.953 20.0669C228.39 20.0237 227.933 20 227.596 20V22ZM227.898 20.8561L222.81 44.7921L224.766 45.2079L229.854 21.2719L227.898 20.8561ZM223.788 44H219.18V46H223.788V44ZM220.158 45.2088L224.798 23.4808L222.842 23.0632L218.202 44.7912L220.158 45.2088ZM233.132 43.656L232.417 44.3557L232.425 44.3631L233.132 43.656ZM232.652 32.36L233.613 32.637L232.652 32.36ZM235.628 26.28L234.841 25.6626L234.836 25.6688L235.628 26.28ZM241.964 24.008L242.473 24.8689L244.295 23.7918L242.306 23.0682L241.964 24.008ZM239.244 27.432L238.352 26.9804L238.347 26.9892L239.244 27.432ZM237.164 33.224L236.194 32.9815L236.194 32.9815L237.164 33.224ZM241.324 40.36L240.501 39.792L240.499 39.7945L241.324 40.36ZM243.884 34.664L242.926 34.3775L242.923 34.3857L243.884 34.664ZM244.556 24.904L243.589 25.1585L243.593 25.1738L243.597 25.189L244.556 24.904ZM243.34 23.08L243.901 22.2525L243.901 22.2525L243.34 23.08ZM236.236 23.496L236.661 24.4012L236.672 24.3958L236.236 23.496ZM232.844 26.376L232.016 25.8148L232.014 25.818L232.844 26.376ZM231.756 31.976L230.823 32.335L230.827 32.3479L230.833 32.3606L231.756 31.976ZM231.916 32.424V33.424H232.916V32.424H231.916ZM229.484 31.784L228.859 32.5649L228.867 32.5708L228.874 32.5766L229.484 31.784ZM230.476 25.512L229.734 24.8411L229.728 24.8476L230.476 25.512ZM235.276 22.248L234.893 21.3243L234.889 21.3258L235.276 22.248ZM247.884 36.328L248.829 36.654L248.829 36.654L247.884 36.328ZM243.916 42.632L244.61 43.352L244.61 43.3518L243.916 42.632ZM237.356 44.192C235.762 44.192 234.633 43.7429 233.839 42.9489L232.425 44.3631C233.679 45.6171 235.365 46.192 237.356 46.192V44.192ZM233.846 42.9564C233.107 42.2011 232.628 40.8811 232.628 38.76H230.628C230.628 41.1189 231.152 43.0629 232.417 44.3556L233.846 42.9564ZM232.628 38.76C232.628 36.9781 232.949 34.9402 233.613 32.637L231.691 32.083C230.99 34.5158 230.628 36.7446 230.628 38.76H232.628ZM233.613 32.637C234.266 30.3713 235.206 28.4624 236.419 26.8912L234.836 25.6688C233.447 27.4683 232.403 29.6127 231.691 32.083L233.613 32.637ZM236.415 26.8974C237.589 25.4009 238.876 24.752 240.3 24.752V22.752C238.14 22.752 236.312 23.7885 234.841 25.6626L236.415 26.8974ZM240.3 24.752C240.855 24.752 241.288 24.8264 241.622 24.9478L242.306 23.0682C241.701 22.8483 241.025 22.752 240.3 22.752V24.752ZM241.455 23.1471C240.268 23.8483 239.254 25.1972 238.352 26.9804L240.136 27.8836C240.983 26.2108 241.782 25.277 242.473 24.8689L241.455 23.1471ZM238.347 26.9892C237.458 28.7894 236.742 30.7884 236.194 32.9815L238.134 33.4665C238.652 31.3929 239.323 29.5306 240.141 27.8748L238.347 26.9892ZM236.194 32.9815C235.647 35.1692 235.364 37.1414 235.364 38.888H237.364C237.364 37.3493 237.614 35.5455 238.134 33.4665L236.194 32.9815ZM235.364 38.888C235.364 40.1078 235.519 41.1751 235.901 42.0196L237.723 41.1964C237.507 40.7182 237.364 39.9722 237.364 38.888H235.364ZM235.901 42.0196C236.104 42.4707 236.397 42.8774 236.812 43.1695C237.234 43.4671 237.718 43.6 238.22 43.6V41.6C238.081 41.6 238.011 41.5676 237.964 41.5345C237.909 41.4959 237.818 41.4066 237.723 41.1964L235.901 42.0196ZM238.22 43.6C239.778 43.6 241.073 42.4939 242.149 40.9255L240.499 39.7945C239.527 41.2128 238.753 41.6 238.22 41.6V43.6ZM242.147 40.928C243.268 39.3033 244.161 37.2998 244.844 34.9423L242.923 34.3857C242.284 36.5935 241.47 38.3874 240.501 39.792L242.147 40.928ZM244.842 34.9505C245.549 32.5866 245.908 30.2925 245.908 28.072H243.908C243.908 30.0754 243.584 32.1761 242.926 34.3775L244.842 34.9505ZM245.908 28.072C245.908 26.7037 245.788 25.5395 245.514 24.619L243.597 25.189C243.793 25.8472 243.908 26.795 243.908 28.072H245.908ZM245.523 24.6495C245.259 23.645 244.73 22.8151 243.901 22.2525L242.778 23.9075C243.144 24.1556 243.426 24.5416 243.589 25.1585L245.523 24.6495ZM243.901 22.2525C243.074 21.6911 242.005 21.472 240.812 21.472V23.472C241.795 23.472 242.411 23.6582 242.778 23.9075L243.901 22.2525ZM240.812 21.472C239.026 21.472 237.35 21.8443 235.8 22.5962L236.672 24.3958C237.937 23.7824 239.313 23.472 240.812 23.472V21.472ZM235.811 22.5909C234.244 23.3268 232.973 24.4039 232.016 25.8148L233.672 26.9372C234.422 25.8308 235.412 24.9879 236.661 24.4011L235.811 22.5909ZM232.014 25.818C231.06 27.2369 230.596 28.8756 230.596 30.696H232.596C232.596 29.231 232.964 27.9897 233.674 26.934L232.014 25.818ZM230.596 30.696C230.596 31.3016 230.648 31.8801 230.823 32.335L232.689 31.617C232.651 31.5172 232.596 31.2424 232.596 30.696H230.596ZM230.833 32.3606C230.884 32.4826 230.916 32.5656 230.934 32.6163C230.943 32.6426 230.945 32.6482 230.942 32.6396C230.941 32.6353 230.936 32.618 230.931 32.5918C230.929 32.5783 230.925 32.5581 230.922 32.533C230.919 32.5089 230.916 32.4711 230.916 32.424H232.916C232.916 32.2642 232.877 32.1307 232.869 32.1044C232.854 32.0478 232.835 31.9921 232.818 31.9437C232.782 31.8451 232.735 31.7254 232.679 31.5914L230.833 32.3606ZM231.916 31.424C230.96 31.424 230.403 31.2293 230.094 30.9914L228.874 32.5766C229.674 33.192 230.738 33.424 231.916 33.424V31.424ZM230.109 31.0031C229.893 30.8306 229.684 30.4915 229.684 29.736H227.684C227.684 30.8579 228.008 31.8841 228.859 32.5649L230.109 31.0031ZM229.684 29.736C229.684 28.5603 230.154 27.3797 231.223 26.1764L229.728 24.8476C228.409 26.3323 227.684 27.9677 227.684 29.736H229.684ZM231.217 26.1829C232.318 24.9661 233.789 23.956 235.663 23.1702L234.889 21.3258C232.795 22.204 231.065 23.3699 229.734 24.8411L231.217 26.1829ZM235.659 23.1717C237.541 22.3907 239.512 22 241.58 22V20C239.253 20 237.021 20.4413 234.893 21.3243L235.659 23.1717ZM241.58 22C244.078 22 245.665 22.6764 246.6 23.8117L248.144 22.5403C246.689 20.7743 244.415 20 241.58 20V22ZM246.6 23.8117C247.601 25.0279 248.164 26.7802 248.164 29.192H250.164C250.164 26.4838 249.532 24.2255 248.144 22.5403L246.6 23.8117ZM248.164 29.192C248.164 31.3488 247.761 33.6171 246.939 36.002L248.829 36.654C249.714 34.0896 250.164 31.6006 250.164 29.192H248.164ZM246.939 36.002C246.134 38.3353 244.894 40.2994 243.222 41.9122L244.61 43.3518C246.522 41.5086 247.927 39.27 248.829 36.654L246.939 36.002ZM243.222 41.912C241.649 43.4278 239.716 44.192 237.356 44.192V46.192C240.201 46.192 242.641 45.2495 244.61 43.352L243.222 41.912Z" fill="black" fill-opacity="0.69"/>
</g>
<defs>
<clipPath id="clip0_0_1">
<rect width="251" height="66" fill="white"/>
</clipPath>
</defs>
</svg>
