<svg width="220" height="22" viewBox="0 0 220 22" fill="none" xmlns="http://www.w3.org/2000/svg">
<line y1="1.5" x2="22" y2="1.5" stroke="black" stroke-width="3"/>
<line x1="12.5" y1="3" x2="12.5" y2="19" stroke="black" stroke-width="3"/>
<line x1="27" y1="1.5" x2="42" y2="1.5" stroke="black" stroke-width="3"/>
<line x1="28.5" y1="3" x2="28.5" y2="19" stroke="black" stroke-width="3"/>
<line x1="27" y1="17.5" x2="42" y2="17.5" stroke="black" stroke-width="3"/>
<line x1="27" y1="9.5" x2="42" y2="9.5" stroke="black" stroke-width="3"/>
<line x1="49" y1="1.5" x2="65" y2="1.5" stroke="black" stroke-width="3"/>
<line x1="50.5" y1="3" x2="50.5" y2="19" stroke="black" stroke-width="3"/>
<line x1="49" y1="17.5" x2="65" y2="17.5" stroke="black" stroke-width="3"/>
<line x1="71.5" y1="3" x2="71.5" y2="19" stroke="black" stroke-width="3"/>
<line x1="70" y1="9.5" x2="81" y2="9.5" stroke="black" stroke-width="3"/>
<line x1="82.5" y1="3" x2="82.5" y2="19" stroke="black" stroke-width="3"/>
<line x1="91" y1="1.5" x2="103" y2="1.5" stroke="black" stroke-width="3"/>
<line x1="92.5" y1="3" x2="92.5" y2="11" stroke="black" stroke-width="3"/>
<line x1="91" y1="9.5" x2="103" y2="9.5" stroke="black" stroke-width="3"/>
<line x1="104.5" y1="11" x2="104.5" y2="19" stroke="black" stroke-width="3"/>
<line x1="103" y1="20.5" x2="91" y2="20.5" stroke="black" stroke-width="3"/>
<line x1="112" y1="1.5" x2="127" y2="1.5" stroke="black" stroke-width="3"/>
<line x1="113.5" y1="3" x2="113.5" y2="19" stroke="black" stroke-width="3"/>
<line x1="112" y1="17.5" x2="127" y2="17.5" stroke="black" stroke-width="3"/>
<line x1="125.5" y1="19" x2="125.5" y2="3" stroke="black" stroke-width="3"/>
<line x1="122.744" y1="13.6976" x2="129.744" y2="17.6976" stroke="black" stroke-width="3"/>
<line x1="137.5" y1="3" x2="137.5" y2="19" stroke="black" stroke-width="3"/>
<line x1="136" y1="17.5" x2="147" y2="17.5" stroke="black" stroke-width="3"/>
<line x1="145.5" y1="19" x2="145.5" y2="3" stroke="black" stroke-width="3"/>
<line x1="155.503" y1="18.9064" x2="156.503" y2="2.90643" stroke="black" stroke-width="3"/>
<line x1="158" y1="1.5" x2="165" y2="1.5" stroke="black" stroke-width="3"/>
<line x1="166.474" y1="2.72357" x2="169.474" y2="18.7236" stroke="black" stroke-width="3"/>
<line x1="157" y1="9.5" x2="167" y2="9.5" stroke="black" stroke-width="3"/>
<line x1="178.5" y1="3" x2="178.5" y2="19" stroke="black" stroke-width="3"/>
<line x1="177" y1="1.5" x2="185" y2="1.5" stroke="black" stroke-width="3"/>
<line x1="186.5" y1="3" x2="186.5" y2="11" stroke="black" stroke-width="3"/>
<line x1="185" y1="12.5" x2="177" y2="12.5" stroke="black" stroke-width="3"/>
<line x1="177.937" y1="9.8287" x2="187.937" y2="17.8287" stroke="black" stroke-width="3"/>
<line x1="201" y1="4.5" x2="192" y2="4.5" stroke="black" stroke-width="3"/>
<line x1="193.5" y1="3" x2="193.5" y2="19" stroke="black" stroke-width="3"/>
<line x1="192" y1="17.5" x2="201" y2="17.5" stroke="black" stroke-width="3"/>
<line x1="192" y1="9.5" x2="201" y2="9.5" stroke="black" stroke-width="3"/>
<line x1="209.5" y1="3" x2="209.5" y2="19" stroke="black" stroke-width="3"/>
<line x1="208" y1="1.5" x2="216" y2="1.5" stroke="black" stroke-width="3"/>
<line x1="217.488" y1="2.81395" x2="218.488" y2="10.8139" stroke="black" stroke-width="3"/>
<line x1="216.364" y1="18.4552" x2="208.364" y2="20.4552" stroke="black" stroke-width="3"/>
<line x1="218.48" y1="11.2466" x2="217.48" y2="17.2466" stroke="black" stroke-width="3"/>
</svg>
