<svg width="141" height="20" viewBox="0 0 141 20" fill="none" xmlns="http://www.w3.org/2000/svg">
<path d="M7.62695 0.78125V15H4.70703V0.78125H7.62695ZM12.002 0.78125V3.07617H0.400391V0.78125H12.002ZM17.4414 15.1953C16.6211 15.1953 15.8854 15.0651 15.2344 14.8047C14.5833 14.5378 14.0299 14.1699 13.5742 13.7012C13.125 13.2324 12.7799 12.6888 12.5391 12.0703C12.2982 11.4453 12.1777 10.7812 12.1777 10.0781V9.6875C12.1777 8.88672 12.2917 8.1543 12.5195 7.49023C12.7474 6.82617 13.0729 6.25 13.4961 5.76172C13.9258 5.27344 14.4466 4.89909 15.0586 4.63867C15.6706 4.37174 16.3607 4.23828 17.1289 4.23828C17.8776 4.23828 18.5417 4.36198 19.1211 4.60938C19.7005 4.85677 20.1855 5.20833 20.5762 5.66406C20.9733 6.11979 21.2728 6.66667 21.4746 7.30469C21.6764 7.9362 21.7773 8.63932 21.7773 9.41406V10.5859H13.3789V8.71094H19.0137V8.49609C19.0137 8.10547 18.9421 7.75716 18.7988 7.45117C18.6621 7.13867 18.4538 6.89128 18.1738 6.70898C17.8939 6.52669 17.5358 6.43555 17.0996 6.43555C16.7285 6.43555 16.4095 6.51693 16.1426 6.67969C15.8757 6.84245 15.6576 7.07031 15.4883 7.36328C15.3255 7.65625 15.2018 8.0013 15.1172 8.39844C15.0391 8.78906 15 9.21875 15 9.6875V10.0781C15 10.5013 15.0586 10.8919 15.1758 11.25C15.2995 11.6081 15.472 11.9173 15.6934 12.1777C15.9212 12.4382 16.1947 12.64 16.5137 12.7832C16.8392 12.9264 17.207 12.998 17.6172 12.998C18.125 12.998 18.597 12.9004 19.0332 12.7051C19.4759 12.5033 19.8568 12.2005 20.1758 11.7969L21.543 13.2812C21.3216 13.6003 21.0189 13.9062 20.6348 14.1992C20.2572 14.4922 19.8014 14.7331 19.2676 14.9219C18.7337 15.1042 18.125 15.1953 17.4414 15.1953ZM27.7441 12.998C28.0892 12.998 28.3952 12.9329 28.6621 12.8027C28.929 12.666 29.1374 12.4772 29.2871 12.2363C29.4434 11.9889 29.5247 11.6992 29.5312 11.3672H32.1777C32.1712 12.1094 31.9727 12.7702 31.582 13.3496C31.1914 13.9225 30.6673 14.375 30.0098 14.707C29.3522 15.0326 28.6165 15.1953 27.8027 15.1953C26.9824 15.1953 26.2663 15.0586 25.6543 14.7852C25.0488 14.5117 24.5443 14.1341 24.1406 13.6523C23.737 13.1641 23.4342 12.5977 23.2324 11.9531C23.0306 11.3021 22.9297 10.6055 22.9297 9.86328V9.58008C22.9297 8.83138 23.0306 8.13477 23.2324 7.49023C23.4342 6.83919 23.737 6.27279 24.1406 5.79102C24.5443 5.30273 25.0488 4.92188 25.6543 4.64844C26.2598 4.375 26.9694 4.23828 27.7832 4.23828C28.6491 4.23828 29.4076 4.4043 30.0586 4.73633C30.7161 5.06836 31.2305 5.54362 31.6016 6.16211C31.9792 6.77409 32.1712 7.5 32.1777 8.33984H29.5312C29.5247 7.98828 29.4499 7.66927 29.3066 7.38281C29.1699 7.09635 28.9681 6.86849 28.7012 6.69922C28.4408 6.52344 28.1185 6.43555 27.7344 6.43555C27.3242 6.43555 26.9889 6.52344 26.7285 6.69922C26.4681 6.86849 26.2663 7.10286 26.123 7.40234C25.9798 7.69531 25.8789 8.0306 25.8203 8.4082C25.7682 8.7793 25.7422 9.16992 25.7422 9.58008V9.86328C25.7422 10.2734 25.7682 10.6673 25.8203 11.0449C25.8724 11.4225 25.9701 11.7578 26.1133 12.0508C26.263 12.3438 26.4681 12.5749 26.7285 12.7441C26.9889 12.9134 27.3275 12.998 27.7441 12.998ZM36.5527 0V15H33.7402V0H36.5527ZM36.1523 9.3457H35.3809C35.3874 8.61003 35.485 7.93294 35.6738 7.31445C35.8626 6.68945 36.1328 6.14909 36.4844 5.69336C36.8359 5.23112 37.2559 4.87305 37.7441 4.61914C38.2389 4.36523 38.7858 4.23828 39.3848 4.23828C39.9056 4.23828 40.3776 4.31315 40.8008 4.46289C41.2305 4.60612 41.5983 4.84049 41.9043 5.16602C42.2168 5.48503 42.4577 5.90495 42.627 6.42578C42.7962 6.94661 42.8809 7.57812 42.8809 8.32031V15H40.0488V8.30078C40.0488 7.83203 39.9805 7.46419 39.8438 7.19727C39.7135 6.92383 39.5215 6.73177 39.2676 6.62109C39.0202 6.50391 38.7142 6.44531 38.3496 6.44531C37.946 6.44531 37.6009 6.52018 37.3145 6.66992C37.0345 6.81966 36.8099 7.02799 36.6406 7.29492C36.4714 7.55534 36.3477 7.86133 36.2695 8.21289C36.1914 8.56445 36.1523 8.94206 36.1523 9.3457ZM52.5977 11.2793C52.5977 11.0254 52.5586 10.7975 52.4805 10.5957C52.4089 10.3874 52.2721 10.1986 52.0703 10.0293C51.8685 9.85352 51.5853 9.68099 51.2207 9.51172C50.8561 9.34245 50.3841 9.16667 49.8047 8.98438C49.1602 8.77604 48.5482 8.54167 47.9688 8.28125C47.3958 8.02083 46.888 7.7181 46.4453 7.37305C46.0091 7.02148 45.6641 6.61458 45.4102 6.15234C45.1628 5.6901 45.0391 5.15299 45.0391 4.54102C45.0391 3.94857 45.1693 3.41146 45.4297 2.92969C45.6901 2.44141 46.0547 2.02474 46.5234 1.67969C46.9922 1.32812 47.5456 1.05794 48.1836 0.869141C48.8281 0.680339 49.5345 0.585938 50.3027 0.585938C51.3509 0.585938 52.2656 0.77474 53.0469 1.15234C53.8281 1.52995 54.4336 2.04753 54.8633 2.70508C55.2995 3.36263 55.5176 4.11458 55.5176 4.96094H52.6074C52.6074 4.54427 52.5195 4.17969 52.3438 3.86719C52.1745 3.54818 51.9141 3.29753 51.5625 3.11523C51.2174 2.93294 50.7812 2.8418 50.2539 2.8418C49.7461 2.8418 49.3229 2.91992 48.9844 3.07617C48.6458 3.22591 48.3919 3.43099 48.2227 3.69141C48.0534 3.94531 47.9688 4.23177 47.9688 4.55078C47.9688 4.79167 48.0273 5.00977 48.1445 5.20508C48.2682 5.40039 48.4505 5.58268 48.6914 5.75195C48.9323 5.92122 49.2285 6.08073 49.5801 6.23047C49.9316 6.38021 50.3385 6.52669 50.8008 6.66992C51.5755 6.9043 52.2559 7.16797 52.8418 7.46094C53.4342 7.75391 53.929 8.08268 54.3262 8.44727C54.7233 8.81185 55.0228 9.22526 55.2246 9.6875C55.4264 10.1497 55.5273 10.6738 55.5273 11.2598C55.5273 11.8783 55.4069 12.4316 55.166 12.9199C54.9251 13.4082 54.5768 13.8216 54.1211 14.1602C53.6654 14.4987 53.1217 14.7559 52.4902 14.9316C51.8587 15.1074 51.1523 15.1953 50.3711 15.1953C49.668 15.1953 48.9746 15.1042 48.291 14.9219C47.6074 14.7331 46.9857 14.4499 46.4258 14.0723C45.8724 13.6947 45.4297 13.2129 45.0977 12.627C44.7656 12.041 44.5996 11.3477 44.5996 10.5469H47.5391C47.5391 10.9896 47.6074 11.3639 47.7441 11.6699C47.8809 11.9759 48.0729 12.2233 48.3203 12.4121C48.5742 12.6009 48.8737 12.7376 49.2188 12.8223C49.5703 12.9069 49.9544 12.9492 50.3711 12.9492C50.8789 12.9492 51.2956 12.8776 51.6211 12.7344C51.9531 12.5911 52.1973 12.3926 52.3535 12.1387C52.5163 11.8848 52.5977 11.5983 52.5977 11.2793ZM63.584 19.0625V6.5918L63.9453 4.43359H66.416V19.0625H63.584ZM56.9043 9.82422V9.61914C56.9043 8.81185 56.9922 8.07943 57.168 7.42188C57.3503 6.75781 57.6172 6.19141 57.9688 5.72266C58.3203 5.2474 58.75 4.88281 59.2578 4.62891C59.7721 4.36849 60.3646 4.23828 61.0352 4.23828C61.6797 4.23828 62.2363 4.36849 62.7051 4.62891C63.1738 4.88932 63.5677 5.25716 63.8867 5.73242C64.2122 6.20768 64.4727 6.76758 64.668 7.41211C64.8633 8.05664 65.013 8.76302 65.1172 9.53125V9.98047C65.0195 10.7161 64.8698 11.3997 64.668 12.0312C64.4727 12.6628 64.2122 13.2161 63.8867 13.6914C63.5677 14.1667 63.1706 14.5378 62.6953 14.8047C62.2266 15.0651 61.6667 15.1953 61.0156 15.1953C60.3581 15.1953 59.7721 15.0618 59.2578 14.7949C58.75 14.5215 58.3203 14.1439 57.9688 13.6621C57.6172 13.1803 57.3503 12.6139 57.168 11.9629C56.9922 11.3053 56.9043 10.5924 56.9043 9.82422ZM59.7168 9.61914V9.82422C59.7168 10.2604 59.7526 10.6706 59.8242 11.0547C59.8958 11.4323 60.0098 11.7676 60.166 12.0605C60.3288 12.3535 60.5371 12.5846 60.791 12.7539C61.0449 12.9167 61.3574 12.998 61.7285 12.998C62.2428 12.998 62.6562 12.8874 62.9688 12.666C63.2878 12.4382 63.5221 12.1289 63.6719 11.7383C63.8281 11.3477 63.9193 10.9017 63.9453 10.4004V9.12109C63.9258 8.71094 63.8704 8.3431 63.7793 8.01758C63.6947 7.68555 63.5645 7.40234 63.3887 7.16797C63.2194 6.93359 62.998 6.75456 62.7246 6.63086C62.4577 6.50065 62.1322 6.43555 61.748 6.43555C61.3835 6.43555 61.071 6.51693 60.8105 6.67969C60.5501 6.84245 60.3385 7.07031 60.1758 7.36328C60.0195 7.64974 59.9023 7.98503 59.8242 8.36914C59.7526 8.75326 59.7168 9.16992 59.7168 9.61914ZM74.8828 12.4707V4.43359H77.6953V15H75.0488L74.8828 12.4707ZM75.1953 10.3027L76.0254 10.2832C76.0254 10.9863 75.944 11.6406 75.7812 12.2461C75.6185 12.8451 75.3743 13.3659 75.0488 13.8086C74.7233 14.2448 74.3132 14.5866 73.8184 14.834C73.3236 15.0749 72.7409 15.1953 72.0703 15.1953C71.556 15.1953 71.0807 15.1237 70.6445 14.9805C70.2148 14.8307 69.8438 14.5996 69.5312 14.2871C69.2253 13.9681 68.9844 13.5612 68.8086 13.0664C68.6393 12.5651 68.5547 11.9629 68.5547 11.2598V4.43359H71.3672V11.2793C71.3672 11.5918 71.403 11.8555 71.4746 12.0703C71.5527 12.2852 71.6602 12.4609 71.7969 12.5977C71.9336 12.7344 72.0931 12.832 72.2754 12.8906C72.4642 12.9492 72.6725 12.9785 72.9004 12.9785C73.4798 12.9785 73.9355 12.8613 74.2676 12.627C74.6061 12.3926 74.8438 12.0736 74.9805 11.6699C75.1237 11.2598 75.1953 10.804 75.1953 10.3027ZM85.5469 12.6172V7.91016C85.5469 7.57161 85.4915 7.2819 85.3809 7.04102C85.2702 6.79362 85.0977 6.60156 84.8633 6.46484C84.6354 6.32812 84.3392 6.25977 83.9746 6.25977C83.6621 6.25977 83.3919 6.3151 83.1641 6.42578C82.9362 6.52995 82.7604 6.68294 82.6367 6.88477C82.513 7.08008 82.4512 7.3112 82.4512 7.57812H79.6387C79.6387 7.12891 79.7428 6.70247 79.9512 6.29883C80.1595 5.89518 80.4622 5.54036 80.8594 5.23438C81.2565 4.92188 81.7285 4.67773 82.2754 4.50195C82.8288 4.32617 83.4473 4.23828 84.1309 4.23828C84.9512 4.23828 85.6803 4.375 86.3184 4.64844C86.9564 4.92188 87.4577 5.33203 87.8223 5.87891C88.1934 6.42578 88.3789 7.10938 88.3789 7.92969V12.4512C88.3789 13.0306 88.4147 13.5059 88.4863 13.877C88.5579 14.2415 88.6621 14.5605 88.7988 14.834V15H85.957C85.8203 14.7135 85.7161 14.3555 85.6445 13.9258C85.5794 13.4896 85.5469 13.0534 85.5469 12.6172ZM85.918 8.56445L85.9375 10.1562H84.3652C83.9941 10.1562 83.6719 10.1986 83.3984 10.2832C83.125 10.3678 82.9004 10.4883 82.7246 10.6445C82.5488 10.7943 82.4186 10.9701 82.334 11.1719C82.2559 11.3737 82.2168 11.5951 82.2168 11.8359C82.2168 12.0768 82.2721 12.2949 82.3828 12.4902C82.4935 12.679 82.653 12.8288 82.8613 12.9395C83.0697 13.0436 83.3138 13.0957 83.5938 13.0957C84.0169 13.0957 84.3848 13.0111 84.6973 12.8418C85.0098 12.6725 85.2507 12.4642 85.4199 12.2168C85.5957 11.9694 85.6868 11.735 85.6934 11.5137L86.4355 12.7051C86.3314 12.972 86.1882 13.2487 86.0059 13.5352C85.8301 13.8216 85.6055 14.0918 85.332 14.3457C85.0586 14.5931 84.7298 14.7982 84.3457 14.9609C83.9616 15.1172 83.5059 15.1953 82.9785 15.1953C82.3079 15.1953 81.6992 15.0618 81.1523 14.7949C80.612 14.5215 80.1823 14.1471 79.8633 13.6719C79.5508 13.1901 79.3945 12.6432 79.3945 12.0312C79.3945 11.4779 79.4987 10.9863 79.707 10.5566C79.9154 10.127 80.2214 9.76562 80.625 9.47266C81.0352 9.17318 81.5462 8.94857 82.1582 8.79883C82.7702 8.64258 83.4798 8.56445 84.2871 8.56445H85.918ZM93.3594 6.73828V15H90.5469V4.43359H93.1934L93.3594 6.73828ZM96.543 4.36523L96.4941 6.97266C96.3574 6.95312 96.1914 6.93685 95.9961 6.92383C95.8073 6.9043 95.6348 6.89453 95.4785 6.89453C95.0814 6.89453 94.7363 6.94661 94.4434 7.05078C94.1569 7.14844 93.916 7.29492 93.7207 7.49023C93.5319 7.68555 93.3887 7.92318 93.291 8.20312C93.1999 8.48307 93.1478 8.80208 93.1348 9.16016L92.5684 8.98438C92.5684 8.30078 92.6367 7.67253 92.7734 7.09961C92.9102 6.52018 93.1087 6.01562 93.3691 5.58594C93.6361 5.15625 93.9616 4.82422 94.3457 4.58984C94.7298 4.35547 95.1693 4.23828 95.6641 4.23828C95.8203 4.23828 95.9798 4.2513 96.1426 4.27734C96.3053 4.29688 96.4388 4.32617 96.543 4.36523ZM102.539 15.1953C101.719 15.1953 100.983 15.0651 100.332 14.8047C99.681 14.5378 99.1276 14.1699 98.6719 13.7012C98.2227 13.2324 97.8776 12.6888 97.6367 12.0703C97.3958 11.4453 97.2754 10.7812 97.2754 10.0781V9.6875C97.2754 8.88672 97.3893 8.1543 97.6172 7.49023C97.8451 6.82617 98.1706 6.25 98.5938 5.76172C99.0234 5.27344 99.5443 4.89909 100.156 4.63867C100.768 4.37174 101.458 4.23828 102.227 4.23828C102.975 4.23828 103.639 4.36198 104.219 4.60938C104.798 4.85677 105.283 5.20833 105.674 5.66406C106.071 6.11979 106.37 6.66667 106.572 7.30469C106.774 7.9362 106.875 8.63932 106.875 9.41406V10.5859H98.4766V8.71094H104.111V8.49609C104.111 8.10547 104.04 7.75716 103.896 7.45117C103.76 7.13867 103.551 6.89128 103.271 6.70898C102.992 6.52669 102.633 6.43555 102.197 6.43555C101.826 6.43555 101.507 6.51693 101.24 6.67969C100.973 6.84245 100.755 7.07031 100.586 7.36328C100.423 7.65625 100.299 8.0013 100.215 8.39844C100.137 8.78906 100.098 9.21875 100.098 9.6875V10.0781C100.098 10.5013 100.156 10.8919 100.273 11.25C100.397 11.6081 100.57 11.9173 100.791 12.1777C101.019 12.4382 101.292 12.64 101.611 12.7832C101.937 12.9264 102.305 12.998 102.715 12.998C103.223 12.998 103.695 12.9004 104.131 12.7051C104.574 12.5033 104.954 12.2005 105.273 11.7969L106.641 13.2812C106.419 13.6003 106.117 13.9062 105.732 14.1992C105.355 14.4922 104.899 14.7331 104.365 14.9219C103.831 15.1042 103.223 15.1953 102.539 15.1953ZM114.717 12.6953V0H117.549V15H115L114.717 12.6953ZM108.037 9.84375V9.63867C108.037 8.83138 108.128 8.09896 108.311 7.44141C108.493 6.77734 108.76 6.20768 109.111 5.73242C109.463 5.25716 109.896 4.88932 110.41 4.62891C110.924 4.36849 111.51 4.23828 112.168 4.23828C112.786 4.23828 113.327 4.36849 113.789 4.62891C114.258 4.88932 114.655 5.26042 114.98 5.74219C115.312 6.21745 115.579 6.7806 115.781 7.43164C115.983 8.07617 116.13 8.78255 116.221 9.55078V10C116.13 10.7357 115.983 11.4193 115.781 12.0508C115.579 12.6823 115.312 13.2357 114.98 13.7109C114.655 14.1797 114.258 14.5443 113.789 14.8047C113.32 15.0651 112.773 15.1953 112.148 15.1953C111.491 15.1953 110.905 15.0618 110.391 14.7949C109.883 14.528 109.453 14.1536 109.102 13.6719C108.757 13.1901 108.493 12.6237 108.311 11.9727C108.128 11.3216 108.037 10.612 108.037 9.84375ZM110.85 9.63867V9.84375C110.85 10.2799 110.882 10.6868 110.947 11.0645C111.019 11.4421 111.133 11.7773 111.289 12.0703C111.452 12.3568 111.66 12.5814 111.914 12.7441C112.174 12.9004 112.49 12.9785 112.861 12.9785C113.343 12.9785 113.74 12.8711 114.053 12.6562C114.365 12.4349 114.603 12.1322 114.766 11.748C114.935 11.3639 115.033 10.9212 115.059 10.4199V9.14062C115.039 8.73047 114.98 8.36263 114.883 8.03711C114.792 7.70508 114.655 7.42188 114.473 7.1875C114.297 6.95312 114.076 6.77083 113.809 6.64062C113.548 6.51042 113.239 6.44531 112.881 6.44531C112.516 6.44531 112.204 6.52995 111.943 6.69922C111.683 6.86198 111.471 7.08659 111.309 7.37305C111.152 7.65951 111.035 7.99805 110.957 8.38867C110.885 8.77279 110.85 9.18945 110.85 9.63867ZM119.883 13.6426C119.883 13.2259 120.026 12.8776 120.312 12.5977C120.605 12.3177 120.993 12.1777 121.475 12.1777C121.956 12.1777 122.34 12.3177 122.627 12.5977C122.92 12.8776 123.066 13.2259 123.066 13.6426C123.066 14.0592 122.92 14.4076 122.627 14.6875C122.34 14.9674 121.956 15.1074 121.475 15.1074C120.993 15.1074 120.605 14.9674 120.312 14.6875C120.026 14.4076 119.883 14.0592 119.883 13.6426ZM128.516 4.43359V15H125.693V4.43359H128.516ZM125.518 1.67969C125.518 1.26953 125.661 0.93099 125.947 0.664062C126.234 0.397135 126.618 0.263672 127.1 0.263672C127.575 0.263672 127.956 0.397135 128.242 0.664062C128.535 0.93099 128.682 1.26953 128.682 1.67969C128.682 2.08984 128.535 2.42839 128.242 2.69531C127.956 2.96224 127.575 3.0957 127.1 3.0957C126.618 3.0957 126.234 2.96224 125.947 2.69531C125.661 2.42839 125.518 2.08984 125.518 1.67969ZM130.391 9.82422V9.61914C130.391 8.8444 130.501 8.13151 130.723 7.48047C130.944 6.82292 131.266 6.25326 131.689 5.77148C132.113 5.28971 132.633 4.91536 133.252 4.64844C133.87 4.375 134.58 4.23828 135.381 4.23828C136.182 4.23828 136.895 4.375 137.52 4.64844C138.145 4.91536 138.669 5.28971 139.092 5.77148C139.521 6.25326 139.847 6.82292 140.068 7.48047C140.29 8.13151 140.4 8.8444 140.4 9.61914V9.82422C140.4 10.5924 140.29 11.3053 140.068 11.9629C139.847 12.6139 139.521 13.1836 139.092 13.6719C138.669 14.1536 138.148 14.528 137.529 14.7949C136.911 15.0618 136.201 15.1953 135.4 15.1953C134.6 15.1953 133.887 15.0618 133.262 14.7949C132.643 14.528 132.119 14.1536 131.689 13.6719C131.266 13.1836 130.944 12.6139 130.723 11.9629C130.501 11.3053 130.391 10.5924 130.391 9.82422ZM133.203 9.61914V9.82422C133.203 10.2669 133.242 10.6803 133.32 11.0645C133.398 11.4486 133.522 11.7871 133.691 12.0801C133.867 12.3665 134.095 12.5911 134.375 12.7539C134.655 12.9167 134.997 12.998 135.4 12.998C135.791 12.998 136.126 12.9167 136.406 12.7539C136.686 12.5911 136.911 12.3665 137.08 12.0801C137.249 11.7871 137.373 11.4486 137.451 11.0645C137.536 10.6803 137.578 10.2669 137.578 9.82422V9.61914C137.578 9.18945 137.536 8.78581 137.451 8.4082C137.373 8.02409 137.246 7.68555 137.07 7.39258C136.901 7.0931 136.676 6.85872 136.396 6.68945C136.117 6.52018 135.778 6.43555 135.381 6.43555C134.984 6.43555 134.645 6.52018 134.365 6.68945C134.092 6.85872 133.867 7.0931 133.691 7.39258C133.522 7.68555 133.398 8.02409 133.32 8.4082C133.242 8.78581 133.203 9.18945 133.203 9.61914Z" fill="#01101F"/>
</svg>
